<?xml version="1.0" encoding="utf-8"?>
<!-- Generator: Adobe Illustrator 25.3.1, SVG Export Plug-In . SVG Version: 6.00 Build 0)  -->
<svg version="1.1" id="Layer_1" xmlns="http://www.w3.org/2000/svg" xmlns:xlink="http://www.w3.org/1999/xlink" x="0px" y="0px"
	 viewBox="0 0 1280 720" style="enable-background:new 0 0 1280 720;" xml:space="preserve">
<style type="text/css">
	.st0{clip-path:url(#SVGID_2_);fill:#FFFFFF;}
	.st1{clip-path:url(#SVGID_2_);enable-background:new    ;}
	.st2{font-family:'Arial-BoldMT';}
	.st3{font-size:27px;}
	.st4{font-family:'Arial-ItalicMT';}
	.st5{font-size:24px;}
	.st6{font-family:'ArialMT';}
	.st7{clip-path:url(#SVGID_2_);fill:none;stroke:#2F528F;stroke-width:1.3333;stroke-miterlimit:8;}
</style>
<g>
	<defs>
		<rect id="SVGID_1_" width="1280" height="720"/>
	</defs>
	<clipPath id="SVGID_2_">
		<use xlink:href="#SVGID_1_"  style="overflow:visible;"/>
	</clipPath>
	<rect class="st0" width="1280" height="720"/>
	<g class="st1">
		<text transform="matrix(1 0 0 1 78.5934 49)" class="st2 st3">Q1: Why do we underestimate the effect of added mass on metabolic energy consumption ?</text>
	</g>
	<g class="st1">
		<text transform="matrix(1 0 0 1 78.5934 78)" class="st4 st5">(But have a reasonable prediction of effect walking speed) </text>
	</g>
	<g class="st1">
		<text transform="matrix(1 0 0 1 88.4395 160)" class="st2 st5">Errors in musculoskeletal </text>
	</g>
	<g class="st1">
		<text transform="matrix(1 0 0 1 88.4395 189)" class="st2 st5">modelling</text>
	</g>
	<g class="st1">
		<text transform="matrix(1 0 0 1 472.1254 160)" class="st2 st5">Errors in neural control</text>
	</g>
	<g class="st1">
		<text transform="matrix(1 0 0 1 941.3623 160)" class="st2 st5">Other errors</text>
	</g>
	<g class="st1">
		<text transform="matrix(1 0 0 1 83.5164 592)" class="st6 st5">And how to improve it ?</text>
	</g>
	<g class="st1">
		<text transform="matrix(1 0 0 1 884.5164 241)" class="st6 st5">•</text>
	</g>
	<g class="st1">
		<text transform="matrix(1 0 0 1 914.5164 241)" class="st6 st5">Subjects are not fully adapted </text>
	</g>
	<g class="st1">
		<text transform="matrix(1 0 0 1 914.5164 270)" class="st6 st5">to walking with added mass</text>
	</g>
	<g class="st1">
		<text transform="matrix(1 0 0 1 467.5094 241)" class="st6 st5">•</text>
	</g>
	<g class="st1">
		<text transform="matrix(1 0 0 1 497.5094 241)" class="st6 st5">Minimizing energy is wrong</text>
	</g>
	<g class="st1">
		<text transform="matrix(1 0 0 1 467.5094 270)" class="st6 st5">•</text>
	</g>
	<g class="st1">
		<text transform="matrix(1 0 0 1 497.5094 270)" class="st6 st5">No model of balance</text>
	</g>
	<g class="st1">
		<text transform="matrix(1 0 0 1 705.6764 270)" class="st6 st5">contro</text>
	</g>
	<g class="st1">
		<text transform="matrix(1 0 0 1 769.3694 270)" class="st6 st5">l</text>
	</g>
	<g class="st1">
		<text transform="matrix(1 0 0 1 65.0199 242)" class="st6 st5">•</text>
	</g>
	<g class="st1">
		<text transform="matrix(1 0 0 1 95.0199 242)" class="st6 st5">Large errors in ankle </text>
	</g>
	<g class="st1">
		<text transform="matrix(1 0 0 1 95.0199 271)" class="st6 st5">kinematics (due to modelling </text>
	</g>
	<g class="st1">
		<text transform="matrix(1 0 0 1 95.0199 300)" class="st6 st5">muscle geometry / foot) ?)</text>
	</g>
	<g class="st1">
		<text transform="matrix(1 0 0 1 65.0199 358)" class="st6 st5">•</text>
	</g>
	<g class="st1">
		<text transform="matrix(1 0 0 1 95.0199 358)" class="st6 st5">Errors in energy equations ?</text>
	</g>
	<path class="st7" d="M47.5,162.5c0-30.9,27.6-56,61.6-56h246.3c34,0,61.6,25.1,61.6,56v328c0,30.9-27.6,56-61.6,56H109.1
		c-34,0-61.6-25.1-61.6-56V162.5z"/>
	<path class="st7" d="M436.5,168.5c0-34.2,29-62,64.8-62h259c35.8,0,64.8,27.8,64.8,62v316c0,34.2-29,62-64.8,62h-259
		c-35.8,0-64.8-27.8-64.8-62V168.5z"/>
	<path class="st7" d="M861.5,168.5c0-34.2,27.8-62,62-62h248c34.2,0,62,27.8,62,62v316c0,34.2-27.8,62-62,62h-248
		c-34.2,0-62-27.8-62-62V168.5z"/>
	<g class="st1">
		<text transform="matrix(1 0 0 1 83.5164 641)" class="st6 st5">•</text>
	</g>
	<g class="st1">
		<text transform="matrix(1 0 0 1 113.5164 641)" class="st6 st5">Simulation with experimental kinematics and GRF to identify if</text>
	</g>
	<g class="st1">
		<text transform="matrix(1 0 0 1 777.6526 641)" class="st6 st5">error ankle kinematics explain error in energy</text>
	</g>
</g>
</svg>
