<?xml version="1.0" encoding="utf-8"?>
<!-- Generator: Adobe Illustrator 25.3.1, SVG Export Plug-In . SVG Version: 6.00 Build 0)  -->
<svg version="1.1" id="Layer_1" xmlns="http://www.w3.org/2000/svg" xmlns:xlink="http://www.w3.org/1999/xlink" x="0px" y="0px"
	 viewBox="0 0 1280 720" style="enable-background:new 0 0 1280 720;" xml:space="preserve">
<style type="text/css">
	.st0{clip-path:url(#SVGID_2_);fill:#FFFFFF;}
	.st1{font-family:'Arial-BoldMT';}
	.st2{font-size:27px;}
	.st3{clip-path:url(#SVGID_2_);fill:none;stroke:#2F528F;stroke-width:1.3333;stroke-miterlimit:8;}
	.st4{font-size:24px;}
	.st5{font-family:'ArialMT';}
</style>
<g>
	<defs>
		<rect id="SVGID_1_" width="1280" height="720"/>
	</defs>
	<clipPath id="SVGID_2_">
		<use xlink:href="#SVGID_1_"  style="overflow:visible;"/>
	</clipPath>
	<rect class="st0" width="1280" height="720"/>
	<text transform="matrix(1 0 0 1 84.0616 57)" class="st1 st2">Q2:</text>
	<text transform="matrix(1 0 0 1 129.2283 57)" class="st1 st2">How to benchmark/falsify predictive simulations ?</text>
	<path class="st3" d="M94.5,186.3c0-44.6,36.2-80.8,80.8-80.8h323.3c44.6,0,80.8,36.2,80.8,80.8v396.3c0,44.6-36.2,80.8-80.8,80.8
		H175.3c-44.6,0-80.8-36.2-80.8-80.8V186.3z"/>
	<text transform="matrix(1 0 0 1 148.359 149)" class="st1 st4">Mechanical interventions:</text>
	<text transform="matrix(1 0 0 1 148.359 207)" class="st5 st4">•</text>
	<text transform="matrix(1 0 0 1 178.359 207)" class="st5 st4">Δ</text>
	<text transform="matrix(1 0 0 1 198.1923 207)" class="st5 st4">mass</text>
	<text transform="matrix(1 0 0 1 148.359 236)" class="st5 st4">•</text>
	<text transform="matrix(1 0 0 1 178.359 236)" class="st5 st4">Δ</text>
	<text transform="matrix(1 0 0 1 192.6923 236)" class="st5 st4"> </text>
	<text transform="matrix(1 0 0 1 198.0257 236)" class="st5 st4">walking speed</text>
	<text transform="matrix(1 0 0 1 148.359 265)" class="st5 st4">•</text>
	<text transform="matrix(1 0 0 1 178.359 265)" class="st5 st4">Δ</text>
	<text transform="matrix(1 0 0 1 192.6923 265)" class="st5 st4"> </text>
	<text transform="matrix(1 0 0 1 198.0257 265)" class="st5 st4">step frequency</text>
	<text transform="matrix(1 0 0 1 148.359 293)" class="st5 st4">•</text>
	<text transform="matrix(1 0 0 1 178.359 293)" class="st5 st4">Limit joint ROM with brace</text>
	<text transform="matrix(1 0 0 1 148.359 322)" class="st5 st4">•</text>
	<text transform="matrix(1 0 0 1 178.359 322)" class="st5 st4">…</text>
	<text transform="matrix(1 0 0 1 194.859 322)" class="st5 st4">.</text>
	<path class="st3" d="M624.5,190.7c0-47,38.1-85.2,85.2-85.2h340.7c47,0,85.2,38.1,85.2,85.2v387.7c0,47-38.1,85.2-85.2,85.2H709.7
		c-47,0-85.2-38.1-85.2-85.2V190.7z"/>
	<text transform="matrix(1 0 0 1 684.083 149)" class="st1 st4">Non-</text>
	<text transform="matrix(1 0 0 1 732.9164 149)" class="st1 st4">mechanical interventions ?</text>
</g>
</svg>
