<svg width="1280" height="720" xmlns="http://www.w3.org/2000/svg" xmlns:xlink="http://www.w3.org/1999/xlink" overflow="hidden"><defs><clipPath id="clip0"><rect x="0" y="0" width="1280" height="720"/></clipPath></defs><g clip-path="url(#clip0)"><rect x="0" y="0" width="1280" height="720" fill="#FFFFFF"/><text font-family="Calibri,Calibri_MSFontService,sans-serif" font-weight="700" font-size="27" transform="translate(84.0616 57)">Q2:<tspan x="45.1667" y="0">How to benchmark/falsify predictive simulations ?</tspan></text><path d="M94.5001 186.335C94.5001 141.691 130.691 105.5 175.335 105.5L498.665 105.5C543.309 105.5 579.5 141.691 579.5 186.335L579.5 582.665C579.5 627.309 543.309 663.5 498.665 663.5L175.335 663.5C130.691 663.5 94.5001 627.309 94.5001 582.665Z" stroke="#2F528F" stroke-width="1.33333" stroke-miterlimit="8" fill="none" fill-rule="evenodd"/><text font-family="Calibri,Calibri_MSFontService,sans-serif" font-weight="700" font-size="24" transform="translate(148.359 149)">Mechanical interventions:<tspan font-family="Arial,Arial_MSFontService,sans-serif" font-weight="400" x="0" y="58">•</tspan><tspan font-family="Cambria Math,Cambria Math_MSFontService,sans-serif" font-weight="400" x="30" y="58">Δ</tspan><tspan font-weight="400" x="49.8333" y="58">mass</tspan><tspan font-family="Arial,Arial_MSFontService,sans-serif" font-weight="400" x="0" y="87">•</tspan><tspan font-family="Cambria Math,Cambria Math_MSFontService,sans-serif" font-weight="400" x="30" y="87">Δ</tspan><tspan font-family="Cambria Math,Cambria Math_MSFontService,sans-serif" font-weight="400" x="44.3333" y="87"> </tspan><tspan font-weight="400" x="49.6667" y="87">walking speed</tspan><tspan font-family="Arial,Arial_MSFontService,sans-serif" font-weight="400" x="0" y="116">•</tspan><tspan font-family="Cambria Math,Cambria Math_MSFontService,sans-serif" font-weight="400" x="30" y="116">Δ</tspan><tspan font-family="Cambria Math,Cambria Math_MSFontService,sans-serif" font-weight="400" x="44.3333" y="116"> </tspan><tspan font-weight="400" x="49.6667" y="116">step frequency</tspan><tspan font-family="Arial,Arial_MSFontService,sans-serif" font-weight="400" x="0" y="144">•</tspan><tspan font-weight="400" x="30" y="144">Limit joint ROM with brace</tspan><tspan font-family="Arial,Arial_MSFontService,sans-serif" font-weight="400" x="0" y="173">•</tspan><tspan font-weight="400" x="30" y="173">…</tspan><tspan font-weight="400" x="46.5" y="173">.</tspan></text><path d="M624.5 190.668C624.5 143.631 662.631 105.5 709.668 105.5L1050.33 105.5C1097.37 105.5 1135.5 143.631 1135.5 190.668L1135.5 578.332C1135.5 625.369 1097.37 663.5 1050.33 663.5L709.668 663.5C662.631 663.5 624.5 625.369 624.5 578.332Z" stroke="#2F528F" stroke-width="1.33333" stroke-miterlimit="8" fill="none" fill-rule="evenodd"/><text font-family="Calibri,Calibri_MSFontService,sans-serif" font-weight="700" font-size="24" transform="translate(684.083 149)">Non-<tspan x="48.8334" y="0">mechanical interventions ?</tspan></text></g></svg>