<?xml version="1.0" encoding="utf-8"?>
<!-- Generator: Adobe Illustrator 23.0.2, SVG Export Plug-In . SVG Version: 6.00 Build 0)  -->
<svg version="1.1" id="Layer_1" xmlns="http://www.w3.org/2000/svg" xmlns:xlink="http://www.w3.org/1999/xlink" x="0px" y="0px"
	 viewBox="0 0 989.22 239.15" style="enable-background:new 0 0 989.22 239.15;" xml:space="preserve">
<style type="text/css">
	.st0{clip-path:url(#SVGID_2_);fill:#FFFFFF;}
	.st1{fill:#FFFFFF;}
	.st2{fill:none;stroke:#262626;stroke-width:0.5002;stroke-linecap:square;stroke-linejoin:round;stroke-miterlimit:10;}
	.st3{fill:#4D4D4F;}
	.st4{font-family:'Helvetica';}
	.st5{font-size:9.9998px;}
	.st6{letter-spacing:10;}
	.st7{font-size:11.0003px;}
	.st8{fill:none;stroke:#5590CC;stroke-width:0.75;stroke-miterlimit:10;}
	.st9{fill:none;stroke:#8AC652;stroke-width:0.75;stroke-miterlimit:10;}
	.st10{fill:#344DA1;}
	.st11{fill:none;stroke:#344DA1;stroke-width:0.75;stroke-miterlimit:10;}
	.st12{fill:#109A48;}
	.st13{fill:none;stroke:#109A48;stroke-width:0.75;stroke-miterlimit:10;}
	.st14{letter-spacing:34;}
	.st15{letter-spacing:38;}
	.st16{letter-spacing:15;}
	.st17{letter-spacing:26;}
</style>
<g>
	<g>
		<defs>
			<rect id="SVGID_1_" x="-128.79" y="1.52" width="1218.63" height="238.5"/>
		</defs>
		<clipPath id="SVGID_2_">
			<use xlink:href="#SVGID_1_"  style="overflow:visible;"/>
		</clipPath>
		<rect x="-128.91" y="1.52" class="st0" width="1218.75" height="238.5"/>
	</g>
	<rect x="-128.91" y="1.52" class="st1" width="1218.75" height="238.5"/>
	<rect x="29.34" y="19.52" class="st1" width="189.75" height="188.25"/>
	<path class="st2" d="M29.34,207.77h189.75 M29.34,207.77v-1.9 M60.96,207.77v-1.9 M92.59,207.77v-1.9 M124.21,207.77v-1.9
		 M155.84,207.77v-1.9 M187.46,207.77v-1.9 M219.09,207.77v-1.9"/>
	<text transform="matrix(1 0 0 1 17.7133 222.2605)" class="st3 st4 st5">-0.1</text>
	<text transform="matrix(1 0 0 1 33.5415 222.2605)" class="st3 st4 st5 st6">4-</text>
	<text transform="matrix(1 0 0 1 52.6665 222.2605)" class="st3 st4 st5">0.12</text>
	<text transform="matrix(1 0 0 1 83.9633 222.2605)" class="st3 st4 st5">-0.1</text>
	<text transform="matrix(1 0 0 1 112.5883 222.2605)" class="st3 st4 st5">-0.0</text>
	<text transform="matrix(1 0 0 1 128.4165 222.2605)" class="st3 st4 st5 st6">8-</text>
	<text transform="matrix(1 0 0 1 147.5415 222.2605)" class="st3 st4 st5">0.06</text>
	<text transform="matrix(1 0 0 1 175.8383 222.2605)" class="st3 st4 st5">-0.0</text>
	<text transform="matrix(1 0 0 1 191.6665 222.2605)" class="st3 st4 st5 st6">4-</text>
	<text transform="matrix(1 0 0 1 210.7915 222.2605)" class="st3 st4 st5">0.02</text>
	<text transform="matrix(1 0 0 1 90.8383 236.7683)" class="st3 st4 st7">COM position</text>
	<path class="st2" d="M29.34,207.77V19.52 M29.34,207.77h1.9 M29.34,176.39h1.9 M29.34,145.02h1.9 M29.34,113.64h1.9 M29.34,82.27
		h1.9 M29.34,50.89h1.9 M29.34,19.52h1.9"/>
	<text transform="matrix(1 0 0 1 19.3383 211.8933)" class="st3 st4 st5">0</text>
	<text transform="matrix(1 0 0 1 11.0883 180.5183)" class="st3 st4 st5">0.</text>
	<text transform="matrix(1 0 0 1 18.5883 180.5183)" class="st3 st4 st5">2</text>
	<text transform="matrix(1 0 0 1 11.0883 149.1355)" class="st3 st4 st5">0.</text>
	<text transform="matrix(1 0 0 1 18.5883 149.1355)" class="st3 st4 st5">4</text>
	<text transform="matrix(1 0 0 1 11.0883 117.7761)" class="st3 st4 st5">0.</text>
	<text transform="matrix(1 0 0 1 18.5883 117.7761)" class="st3 st4 st5">6</text>
	<text transform="matrix(1 0 0 1 11.0883 86.3933)" class="st3 st4 st5">0.</text>
	<text transform="matrix(1 0 0 1 18.5883 86.3933)" class="st3 st4 st5">8</text>
	<text transform="matrix(1 0 0 1 19.3383 55.0183)" class="st3 st4 st5">1</text>
	<text transform="matrix(1 0 0 1 11.0883 23.6433)" class="st3 st4 st5">1.</text>
	<text transform="matrix(1 0 0 1 18.5883 23.6433)" class="st3 st4 st5">2</text>
	<text transform="matrix(0 -1 1 0 5.0883 154.9011)" class="st3 st4 st7">e</text>
	<path class="st8" d="M117.51,182.62c0-1.66-1.34-3-3-3s-3,1.34-3,3s1.34,3,3,3S117.51,184.27,117.51,182.62L117.51,182.62z
		 M119.49,190.91c0-1.66-1.34-3-3-3s-3,1.34-3,3s1.34,3,3,3S119.49,192.57,119.49,190.91L119.49,190.91z M175.65,193.24
		c0-1.66-1.34-3-3-3s-3,1.34-3,3s1.34,3,3,3S175.65,194.89,175.65,193.24L175.65,193.24z M122.69,188.95c0-1.66-1.34-3-3-3
		s-3,1.34-3,3s1.34,3,3,3S122.69,190.61,122.69,188.95L122.69,188.95z M134.15,192.06c0-1.66-1.34-3-3-3s-3,1.34-3,3s1.34,3,3,3
		S134.15,193.71,134.15,192.06L134.15,192.06z M146.76,193.51c0-1.66-1.34-3-3-3s-3,1.34-3,3s1.34,3,3,3
		S146.76,195.17,146.76,193.51L146.76,193.51z M90.48,189.66c0-1.66-1.34-3-3-3s-3,1.34-3,3s1.34,3,3,3S90.48,191.32,90.48,189.66
		L90.48,189.66z M105.96,195.48c0-1.66-1.34-3-3-3s-3,1.34-3,3s1.34,3,3,3S105.96,197.14,105.96,195.48L105.96,195.48z
		 M109.92,161.48c0-1.66-1.34-3-3-3s-3,1.34-3,3s1.34,3,3,3S109.92,163.14,109.92,161.48L109.92,161.48z M108.21,190.38
		c0-1.66-1.34-3-3-3s-3,1.34-3,3s1.34,3,3,3S108.21,192.04,108.21,190.38L108.21,190.38z M138.74,189.64c0-1.66-1.34-3-3-3
		s-3,1.34-3,3s1.34,3,3,3S138.74,191.3,138.74,189.64L138.74,189.64z M121.61,188.34c0-1.66-1.34-3-3-3s-3,1.34-3,3s1.34,3,3,3
		S121.61,189.99,121.61,188.34L121.61,188.34z M121.39,190.68c0-1.66-1.34-3-3-3s-3,1.34-3,3s1.34,3,3,3
		S121.39,192.33,121.39,190.68L121.39,190.68z M132.36,177.03c0-1.66-1.34-3-3-3c-1.66,0-3,1.34-3,3s1.34,3,3,3
		C131.02,180.03,132.36,178.69,132.36,177.03L132.36,177.03z M96.4,178.66c0-1.66-1.34-3-3-3s-3,1.34-3,3s1.34,3,3,3
		S96.4,180.31,96.4,178.66L96.4,178.66z M174.3,186.07c0-1.66-1.34-3-3-3s-3,1.34-3,3s1.34,3,3,3S174.3,187.73,174.3,186.07
		L174.3,186.07z M89.81,173.87c0-1.66-1.34-3-3-3s-3,1.34-3,3s1.34,3,3,3S89.81,175.53,89.81,173.87L89.81,173.87z M115.86,169.63
		c0-1.66-1.34-3-3-3s-3,1.34-3,3s1.34,3,3,3S115.86,171.28,115.86,169.63L115.86,169.63z M139.19,193.13c0-1.66-1.34-3-3-3
		s-3,1.34-3,3s1.34,3,3,3S139.19,194.78,139.19,193.13L139.19,193.13z M142.89,191.38c0-1.66-1.34-3-3-3s-3,1.34-3,3s1.34,3,3,3
		S142.89,193.04,142.89,191.38L142.89,191.38z M151.44,193.5c0-1.66-1.34-3-3-3s-3,1.34-3,3s1.34,3,3,3S151.44,195.16,151.44,193.5
		L151.44,193.5z M119.23,194.7c0-1.66-1.34-3-3-3s-3,1.34-3,3s1.34,3,3,3S119.23,196.35,119.23,194.7L119.23,194.7z M192.83,185.65
		c0-1.66-1.34-3-3-3s-3,1.34-3,3s1.34,3,3,3S192.83,187.31,192.83,185.65L192.83,185.65z M144.94,180.89c0-1.66-1.34-3-3-3
		s-3,1.34-3,3s1.34,3,3,3S144.94,182.55,144.94,180.89L144.94,180.89z M126.73,195.6c0-1.66-1.34-3-3-3s-3,1.34-3,3s1.34,3,3,3
		S126.73,197.25,126.73,195.6L126.73,195.6z M134.8,196.47c0-1.66-1.34-3-3-3s-3,1.34-3,3s1.34,3,3,3S134.8,198.13,134.8,196.47
		L134.8,196.47z M145.43,188.09c0-1.66-1.34-3-3-3s-3,1.34-3,3s1.34,3,3,3S145.43,189.74,145.43,188.09L145.43,188.09z M86.05,162
		c0-1.66-1.34-3-3-3s-3,1.34-3,3s1.34,3,3,3S86.05,163.66,86.05,162L86.05,162z M105,185.12c0-1.66-1.34-3-3-3s-3,1.34-3,3
		s1.34,3,3,3S105,186.78,105,185.12L105,185.12z M114.54,189.2c0-1.66-1.34-3-3-3s-3,1.34-3,3s1.34,3,3,3
		S114.54,190.85,114.54,189.2L114.54,189.2z M113.56,197.27c0-1.66-1.34-3-3-3s-3,1.34-3,3s1.34,3,3,3S113.56,198.93,113.56,197.27
		L113.56,197.27z M116.06,192.3c0-1.66-1.34-3-3-3s-3,1.34-3,3s1.34,3,3,3S116.06,193.95,116.06,192.3L116.06,192.3z M143.5,198.25
		c0-1.66-1.34-3-3-3s-3,1.34-3,3s1.34,3,3,3S143.5,199.91,143.5,198.25L143.5,198.25z M131.67,187.34c0-1.66-1.34-3-3-3
		c-1.66,0-3,1.34-3,3s1.34,3,3,3C130.33,190.34,131.67,189,131.67,187.34L131.67,187.34z M101,195.1c0-1.66-1.34-3-3-3s-3,1.34-3,3
		s1.34,3,3,3S101,196.75,101,195.1L101,195.1z M117.86,197.53c0-1.66-1.34-3-3-3s-3,1.34-3,3s1.34,3,3,3
		S117.86,199.19,117.86,197.53L117.86,197.53z M86.35,179.01c0-1.66-1.34-3-3-3s-3,1.34-3,3s1.34,3,3,3S86.35,180.67,86.35,179.01
		L86.35,179.01z M117.3,195.84c0-1.66-1.34-3-3-3s-3,1.34-3,3s1.34,3,3,3S117.3,197.5,117.3,195.84L117.3,195.84z M93.19,198.55
		c0-1.66-1.34-3-3-3s-3,1.34-3,3s1.34,3,3,3S93.19,200.21,93.19,198.55L93.19,198.55z M117.86,190.53c0-1.66-1.34-3-3-3s-3,1.34-3,3
		s1.34,3,3,3S117.86,192.19,117.86,190.53L117.86,190.53z M119.1,196.13c0-1.66-1.34-3-3-3s-3,1.34-3,3s1.34,3,3,3
		S119.1,197.79,119.1,196.13L119.1,196.13z M142.56,192.06c0-1.66-1.34-3-3-3s-3,1.34-3,3s1.34,3,3,3S142.56,193.72,142.56,192.06
		L142.56,192.06z M150.12,190.21c0-1.66-1.34-3-3-3s-3,1.34-3,3s1.34,3,3,3S150.12,191.87,150.12,190.21L150.12,190.21z
		 M118.07,189.51c0-1.66-1.34-3-3-3s-3,1.34-3,3s1.34,3,3,3S118.07,191.17,118.07,189.51L118.07,189.51z M102.15,190.81
		c0-1.66-1.34-3-3-3s-3,1.34-3,3s1.34,3,3,3S102.15,192.46,102.15,190.81L102.15,190.81z M103.47,198.25c0-1.66-1.34-3-3-3
		s-3,1.34-3,3s1.34,3,3,3S103.47,199.9,103.47,198.25L103.47,198.25z M114.68,193.67c0-1.66-1.34-3-3-3s-3,1.34-3,3s1.34,3,3,3
		S114.68,195.33,114.68,193.67L114.68,193.67z M123.95,199.06c0-1.66-1.34-3-3-3s-3,1.34-3,3s1.34,3,3,3
		S123.95,200.72,123.95,199.06L123.95,199.06z M110.66,193.93c0-1.66-1.34-3-3-3s-3,1.34-3,3s1.34,3,3,3
		S110.66,195.58,110.66,193.93L110.66,193.93z M132.87,198.77c0-1.66-1.34-3-3-3s-3,1.34-3,3s1.34,3,3,3
		S132.87,200.42,132.87,198.77L132.87,198.77z M132.81,175.47c0-1.66-1.34-3-3-3s-3,1.34-3,3s1.34,3,3,3
		S132.81,177.13,132.81,175.47L132.81,175.47z M113.05,196.22c0-1.66-1.34-3-3-3s-3,1.34-3,3s1.34,3,3,3
		S113.05,197.88,113.05,196.22L113.05,196.22z M141.31,197.15c0-1.66-1.34-3-3-3s-3,1.34-3,3s1.34,3,3,3
		S141.31,198.81,141.31,197.15L141.31,197.15z M142.75,195.73c0-1.66-1.34-3-3-3s-3,1.34-3,3s1.34,3,3,3
		S142.75,197.38,142.75,195.73L142.75,195.73z M119.01,196.31c0-1.66-1.34-3-3-3s-3,1.34-3,3s1.34,3,3,3
		S119.01,197.97,119.01,196.31L119.01,196.31z M124.68,165.22c0-1.66-1.34-3-3-3s-3,1.34-3,3s1.34,3,3,3
		S124.68,166.87,124.68,165.22L124.68,165.22z M121.34,197.07c0-1.66-1.34-3-3-3s-3,1.34-3,3s1.34,3,3,3
		S121.34,198.72,121.34,197.07L121.34,197.07z M104.52,158.07c0-1.66-1.34-3-3-3s-3,1.34-3,3s1.34,3,3,3
		S104.52,159.72,104.52,158.07L104.52,158.07z M105.43,191.67c0-1.66-1.34-3-3-3s-3,1.34-3,3s1.34,3,3,3
		S105.43,193.33,105.43,191.67L105.43,191.67z M113.1,193.44c0-1.66-1.34-3-3-3s-3,1.34-3,3s1.34,3,3,3S113.1,195.1,113.1,193.44
		L113.1,193.44z M106.54,184.46c0-1.66-1.34-3-3-3s-3,1.34-3,3s1.34,3,3,3S106.54,186.12,106.54,184.46L106.54,184.46z"/>
	<path class="st9" d="M117.51,118.44c0-1.66-1.34-3-3-3s-3,1.34-3,3s1.34,3,3,3S117.51,120.1,117.51,118.44L117.51,118.44z
		 M119.49,117.56c0-1.66-1.34-3-3-3s-3,1.34-3,3s1.34,3,3,3S119.49,119.21,119.49,117.56L119.49,117.56z M175.65,53.89
		c0-1.66-1.34-3-3-3s-3,1.34-3,3s1.34,3,3,3S175.65,55.55,175.65,53.89L175.65,53.89z M122.69,108.9c0-1.66-1.34-3-3-3s-3,1.34-3,3
		s1.34,3,3,3S122.69,110.56,122.69,108.9L122.69,108.9z M134.15,94.68c0-1.66-1.34-3-3-3s-3,1.34-3,3s1.34,3,3,3
		S134.15,96.33,134.15,94.68L134.15,94.68z M146.76,104.23c0-1.66-1.34-3-3-3s-3,1.34-3,3s1.34,3,3,3S146.76,105.89,146.76,104.23
		L146.76,104.23z M90.48,113.14c0-1.66-1.34-3-3-3s-3,1.34-3,3s1.34,3,3,3S90.48,114.8,90.48,113.14L90.48,113.14z M105.96,85.75
		c0-1.66-1.34-3-3-3s-3,1.34-3,3s1.34,3,3,3S105.96,87.41,105.96,85.75L105.96,85.75z M109.92,124.83c0-1.66-1.34-3-3-3s-3,1.34-3,3
		s1.34,3,3,3S109.92,126.49,109.92,124.83L109.92,124.83z M108.21,104.64c0-1.66-1.34-3-3-3s-3,1.34-3,3s1.34,3,3,3
		S108.21,106.3,108.21,104.64L108.21,104.64z M138.74,84.82c0-1.66-1.34-3-3-3s-3,1.34-3,3s1.34,3,3,3S138.74,86.47,138.74,84.82
		L138.74,84.82z M121.61,123.6c0-1.66-1.34-3-3-3s-3,1.34-3,3s1.34,3,3,3S121.61,125.26,121.61,123.6L121.61,123.6z M121.39,62.93
		c0-1.66-1.34-3-3-3s-3,1.34-3,3s1.34,3,3,3S121.39,64.58,121.39,62.93L121.39,62.93z M132.36,131.56c0-1.66-1.34-3-3-3
		c-1.66,0-3,1.34-3,3s1.34,3,3,3C131.02,134.56,132.36,133.21,132.36,131.56L132.36,131.56z M96.4,120.29c0-1.66-1.34-3-3-3
		s-3,1.34-3,3s1.34,3,3,3S96.4,121.94,96.4,120.29L96.4,120.29z M174.3,72.33c0-1.66-1.34-3-3-3s-3,1.34-3,3s1.34,3,3,3
		S174.3,73.99,174.3,72.33L174.3,72.33z M89.81,101.75c0-1.66-1.34-3-3-3s-3,1.34-3,3s1.34,3,3,3S89.81,103.41,89.81,101.75
		L89.81,101.75z M115.86,95.43c0-1.66-1.34-3-3-3s-3,1.34-3,3s1.34,3,3,3S115.86,97.09,115.86,95.43L115.86,95.43z M139.19,73.55
		c0-1.66-1.34-3-3-3s-3,1.34-3,3s1.34,3,3,3S139.19,75.2,139.19,73.55L139.19,73.55z M142.89,58.81c0-1.66-1.34-3-3-3s-3,1.34-3,3
		s1.34,3,3,3S142.89,60.47,142.89,58.81L142.89,58.81z M151.44,78.54c0-1.66-1.34-3-3-3s-3,1.34-3,3s1.34,3,3,3
		S151.44,80.2,151.44,78.54L151.44,78.54z M119.23,96.39c0-1.66-1.34-3-3-3s-3,1.34-3,3s1.34,3,3,3S119.23,98.04,119.23,96.39
		L119.23,96.39z M192.83,99.04c0-1.66-1.34-3-3-3s-3,1.34-3,3c0,1.66,1.34,3,3,3S192.83,100.69,192.83,99.04L192.83,99.04z
		 M144.94,104.55c0-1.66-1.34-3-3-3s-3,1.34-3,3s1.34,3,3,3S144.94,106.21,144.94,104.55L144.94,104.55z M126.73,104.15
		c0-1.66-1.34-3-3-3s-3,1.34-3,3c0,1.66,1.34,3,3,3S126.73,105.8,126.73,104.15L126.73,104.15z M134.8,111.94c0-1.66-1.34-3-3-3
		s-3,1.34-3,3s1.34,3,3,3S134.8,113.6,134.8,111.94L134.8,111.94z M145.43,121.52c0-1.66-1.34-3-3-3s-3,1.34-3,3s1.34,3,3,3
		S145.43,123.17,145.43,121.52L145.43,121.52z M86.05,149.23c0-1.66-1.34-3-3-3s-3,1.34-3,3s1.34,3,3,3S86.05,150.88,86.05,149.23
		L86.05,149.23z M105,123.66c0-1.66-1.34-3-3-3s-3,1.34-3,3s1.34,3,3,3S105,125.31,105,123.66L105,123.66z M114.54,106.39
		c0-1.66-1.34-3-3-3s-3,1.34-3,3s1.34,3,3,3S114.54,108.05,114.54,106.39L114.54,106.39z M113.56,114c0-1.66-1.34-3-3-3s-3,1.34-3,3
		s1.34,3,3,3S113.56,115.65,113.56,114L113.56,114z M116.06,95.4c0-1.66-1.34-3-3-3s-3,1.34-3,3s1.34,3,3,3
		S116.06,97.05,116.06,95.4L116.06,95.4z M143.5,135.51c0-1.66-1.34-3-3-3s-3,1.34-3,3s1.34,3,3,3S143.5,137.17,143.5,135.51
		L143.5,135.51z M131.67,101.26c0-1.66-1.34-3-3-3c-1.66,0-3,1.34-3,3c0,1.66,1.34,3,3,3C130.33,104.26,131.67,102.92,131.67,101.26
		L131.67,101.26z M101,94.39c0-1.66-1.34-3-3-3s-3,1.34-3,3s1.34,3,3,3S101,96.04,101,94.39L101,94.39z M117.86,103.8
		c0-1.66-1.34-3-3-3s-3,1.34-3,3s1.34,3,3,3S117.86,105.46,117.86,103.8L117.86,103.8z M86.35,118.11c0-1.66-1.34-3-3-3s-3,1.34-3,3
		s1.34,3,3,3S86.35,119.76,86.35,118.11L86.35,118.11z M117.3,90.4c0-1.66-1.34-3-3-3s-3,1.34-3,3c0,1.66,1.34,3,3,3
		S117.3,92.05,117.3,90.4L117.3,90.4z M93.19,124.81c0-1.66-1.34-3-3-3s-3,1.34-3,3s1.34,3,3,3S93.19,126.47,93.19,124.81
		L93.19,124.81z M117.86,77.59c0-1.66-1.34-3-3-3s-3,1.34-3,3s1.34,3,3,3S117.86,79.24,117.86,77.59L117.86,77.59z M119.1,114.14
		c0-1.66-1.34-3-3-3s-3,1.34-3,3s1.34,3,3,3S119.1,115.8,119.1,114.14L119.1,114.14z M142.56,118.1c0-1.66-1.34-3-3-3s-3,1.34-3,3
		s1.34,3,3,3S142.56,119.76,142.56,118.1L142.56,118.1z M150.12,121.86c0-1.66-1.34-3-3-3s-3,1.34-3,3s1.34,3,3,3
		S150.12,123.52,150.12,121.86L150.12,121.86z M118.07,60.63c0-1.66-1.34-3-3-3s-3,1.34-3,3s1.34,3,3,3S118.07,62.28,118.07,60.63
		L118.07,60.63z M102.15,105.68c0-1.66-1.34-3-3-3s-3,1.34-3,3s1.34,3,3,3S102.15,107.34,102.15,105.68L102.15,105.68z
		 M103.47,139.36c0-1.66-1.34-3-3-3s-3,1.34-3,3s1.34,3,3,3S103.47,141.01,103.47,139.36L103.47,139.36z M114.68,163.01
		c0-1.66-1.34-3-3-3s-3,1.34-3,3s1.34,3,3,3S114.68,164.67,114.68,163.01L114.68,163.01z M123.95,101.31c0-1.66-1.34-3-3-3
		s-3,1.34-3,3c0,1.66,1.34,3,3,3S123.95,102.96,123.95,101.31L123.95,101.31z M110.66,97.89c0-1.66-1.34-3-3-3s-3,1.34-3,3
		s1.34,3,3,3S110.66,99.55,110.66,97.89L110.66,97.89z M132.87,124.95c0-1.66-1.34-3-3-3s-3,1.34-3,3s1.34,3,3,3
		S132.87,126.61,132.87,124.95L132.87,124.95z M132.81,114.53c0-1.66-1.34-3-3-3s-3,1.34-3,3s1.34,3,3,3
		S132.81,116.18,132.81,114.53L132.81,114.53z M113.05,116.92c0-1.66-1.34-3-3-3s-3,1.34-3,3s1.34,3,3,3
		S113.05,118.58,113.05,116.92L113.05,116.92z M141.31,103.03c0-1.66-1.34-3-3-3s-3,1.34-3,3s1.34,3,3,3
		S141.31,104.69,141.31,103.03L141.31,103.03z M142.75,94.05c0-1.66-1.34-3-3-3s-3,1.34-3,3s1.34,3,3,3S142.75,95.71,142.75,94.05
		L142.75,94.05z M119.01,77.76c0-1.66-1.34-3-3-3s-3,1.34-3,3s1.34,3,3,3S119.01,79.41,119.01,77.76L119.01,77.76z M124.68,100.67
		c0-1.66-1.34-3-3-3s-3,1.34-3,3s1.34,3,3,3S124.68,102.32,124.68,100.67L124.68,100.67z M121.34,116.6c0-1.66-1.34-3-3-3
		s-3,1.34-3,3s1.34,3,3,3S121.34,118.26,121.34,116.6L121.34,116.6z M104.52,130.73c0-1.66-1.34-3-3-3s-3,1.34-3,3s1.34,3,3,3
		S104.52,132.39,104.52,130.73L104.52,130.73z M105.43,106.58c0-1.66-1.34-3-3-3s-3,1.34-3,3s1.34,3,3,3
		S105.43,108.24,105.43,106.58L105.43,106.58z M113.1,107.03c0-1.66-1.34-3-3-3s-3,1.34-3,3s1.34,3,3,3S113.1,108.68,113.1,107.03
		L113.1,107.03z M106.54,61.62c0-1.66-1.34-3-3-3s-3,1.34-3,3s1.34,3,3,3S106.54,63.28,106.54,61.62L106.54,61.62z"/>
	<path class="st10" d="M103.54,190.2c0-1.66-1.34-3-3-3s-3,1.34-3,3s1.34,3,3,3S103.54,191.86,103.54,190.2L103.54,190.2z"/>
	<path class="st11" d="M103.54,190.2c0-1.66-1.34-3-3-3s-3,1.34-3,3s1.34,3,3,3S103.54,191.86,103.54,190.2L103.54,190.2z"/>
	<path class="st12" d="M103.54,82.04c0-1.66-1.34-3-3-3s-3,1.34-3,3s1.34,3,3,3S103.54,83.7,103.54,82.04L103.54,82.04z"/>
	<path class="st13" d="M103.54,82.04c0-1.66-1.34-3-3-3s-3,1.34-3,3s1.34,3,3,3S103.54,83.7,103.54,82.04L103.54,82.04z"/>
	<path class="st10" d="M139.61,189.65c0-1.66-1.34-3-3-3s-3,1.34-3,3s1.34,3,3,3S139.61,191.3,139.61,189.65L139.61,189.65z"/>
	<path class="st11" d="M139.61,189.65c0-1.66-1.34-3-3-3s-3,1.34-3,3s1.34,3,3,3S139.61,191.3,139.61,189.65L139.61,189.65z"/>
	<path class="st12" d="M139.61,86.26c0-1.66-1.34-3-3-3s-3,1.34-3,3s1.34,3,3,3S139.61,87.92,139.61,86.26L139.61,86.26z"/>
	<path class="st13" d="M139.61,86.26c0-1.66-1.34-3-3-3s-3,1.34-3,3s1.34,3,3,3S139.61,87.92,139.61,86.26L139.61,86.26z"/>
	<path class="st10" d="M206.98,192.59c0-1.66-1.34-3-3-3s-3,1.34-3,3s1.34,3,3,3S206.98,194.25,206.98,192.59L206.98,192.59z"/>
	<path class="st11" d="M206.98,192.59c0-1.66-1.34-3-3-3s-3,1.34-3,3s1.34,3,3,3S206.98,194.25,206.98,192.59L206.98,192.59z"/>
	<path class="st12" d="M206.98,38.87c0-1.66-1.34-3-3-3s-3,1.34-3,3s1.34,3,3,3S206.98,40.53,206.98,38.87L206.98,38.87z"/>
	<path class="st13" d="M206.98,38.87c0-1.66-1.34-3-3-3s-3,1.34-3,3s1.34,3,3,3S206.98,40.53,206.98,38.87L206.98,38.87z"/>
	<path class="st12" d="M145.99,68.87c0-1.66-1.34-3-3-3s-3,1.34-3,3s1.34,3,3,3S145.99,70.53,145.99,68.87L145.99,68.87z"/>
	<path class="st13" d="M145.99,68.87c0-1.66-1.34-3-3-3s-3,1.34-3,3s1.34,3,3,3S145.99,70.53,145.99,68.87L145.99,68.87z"/>
	<path class="st10" d="M111.04,189.18c0-1.66-1.34-3-3-3s-3,1.34-3,3s1.34,3,3,3S111.04,190.83,111.04,189.18L111.04,189.18z"/>
	<path class="st11" d="M111.04,189.18c0-1.66-1.34-3-3-3s-3,1.34-3,3s1.34,3,3,3S111.04,190.83,111.04,189.18L111.04,189.18z"/>
	<path class="st12" d="M111.04,86.33c0-1.66-1.34-3-3-3s-3,1.34-3,3s1.34,3,3,3S111.04,87.99,111.04,86.33L111.04,86.33z"/>
	<path class="st13" d="M111.04,86.33c0-1.66-1.34-3-3-3s-3,1.34-3,3s1.34,3,3,3S111.04,87.99,111.04,86.33L111.04,86.33z"/>
	<path class="st10" d="M213.67,191.75c0-1.66-1.34-3-3-3s-3,1.34-3,3s1.34,3,3,3S213.67,193.41,213.67,191.75L213.67,191.75z"/>
	<path class="st11" d="M213.67,191.75c0-1.66-1.34-3-3-3s-3,1.34-3,3s1.34,3,3,3S213.67,193.41,213.67,191.75L213.67,191.75z"/>
	<path class="st12" d="M213.67,26.14c0-1.66-1.34-3-3-3s-3,1.34-3,3s1.34,3,3,3S213.67,27.8,213.67,26.14L213.67,26.14z"/>
	<path class="st13" d="M213.67,26.14c0-1.66-1.34-3-3-3s-3,1.34-3,3s1.34,3,3,3S213.67,27.8,213.67,26.14L213.67,26.14z"/>
	<path class="st10" d="M175.14,192.6c0-1.66-1.34-3-3-3s-3,1.34-3,3s1.34,3,3,3S175.14,194.26,175.14,192.6L175.14,192.6z"/>
	<path class="st11" d="M175.14,192.6c0-1.66-1.34-3-3-3s-3,1.34-3,3s1.34,3,3,3S175.14,194.26,175.14,192.6L175.14,192.6z"/>
	<path class="st12" d="M175.14,46.97c0-1.66-1.34-3-3-3s-3,1.34-3,3s1.34,3,3,3S175.14,48.63,175.14,46.97L175.14,46.97z"/>
	<path class="st13" d="M175.14,46.97c0-1.66-1.34-3-3-3s-3,1.34-3,3s1.34,3,3,3S175.14,48.63,175.14,46.97L175.14,46.97z"/>
	<path class="st10" d="M132.83,187.68c0-1.66-1.34-3-3-3s-3,1.34-3,3s1.34,3,3,3S132.83,189.33,132.83,187.68L132.83,187.68z"/>
	<path class="st11" d="M132.83,187.68c0-1.66-1.34-3-3-3s-3,1.34-3,3s1.34,3,3,3S132.83,189.33,132.83,187.68L132.83,187.68z"/>
	<path class="st12" d="M132.83,68.91c0-1.66-1.34-3-3-3s-3,1.34-3,3s1.34,3,3,3S132.83,70.57,132.83,68.91L132.83,68.91z"/>
	<path class="st13" d="M132.83,68.91c0-1.66-1.34-3-3-3s-3,1.34-3,3s1.34,3,3,3S132.83,70.57,132.83,68.91L132.83,68.91z"/>
	<path class="st10" d="M111.66,191.97c0-1.66-1.34-3-3-3s-3,1.34-3,3s1.34,3,3,3S111.66,193.63,111.66,191.97L111.66,191.97z"/>
	<path class="st11" d="M111.66,191.97c0-1.66-1.34-3-3-3s-3,1.34-3,3s1.34,3,3,3S111.66,193.63,111.66,191.97L111.66,191.97z"/>
	<path class="st12" d="M111.66,37.18c0-1.66-1.34-3-3-3s-3,1.34-3,3s1.34,3,3,3S111.66,38.84,111.66,37.18L111.66,37.18z"/>
	<path class="st13" d="M111.66,37.18c0-1.66-1.34-3-3-3s-3,1.34-3,3s1.34,3,3,3S111.66,38.84,111.66,37.18L111.66,37.18z"/>
	<path class="st10" d="M143.76,157.4c0-1.66-1.34-3-3-3s-3,1.34-3,3s1.34,3,3,3S143.76,159.05,143.76,157.4L143.76,157.4z"/>
	<path class="st11" d="M143.76,157.4c0-1.66-1.34-3-3-3s-3,1.34-3,3s1.34,3,3,3S143.76,159.05,143.76,157.4L143.76,157.4z"/>
	<path class="st12" d="M143.76,123.36c0-1.66-1.34-3-3-3s-3,1.34-3,3s1.34,3,3,3S143.76,125.01,143.76,123.36L143.76,123.36z"/>
	<path class="st13" d="M143.76,123.36c0-1.66-1.34-3-3-3s-3,1.34-3,3s1.34,3,3,3S143.76,125.01,143.76,123.36L143.76,123.36z"/>
	<path class="st10" d="M79.81,151.96c0-1.66-1.34-3-3-3s-3,1.34-3,3s1.34,3,3,3S79.81,153.62,79.81,151.96L79.81,151.96z"/>
	<path class="st11" d="M79.81,151.96c0-1.66-1.34-3-3-3s-3,1.34-3,3s1.34,3,3,3S79.81,153.62,79.81,151.96L79.81,151.96z"/>
	<path class="st12" d="M79.81,166.45c0-1.66-1.34-3-3-3s-3,1.34-3,3s1.34,3,3,3S79.81,168.11,79.81,166.45L79.81,166.45z"/>
	<path class="st13" d="M79.81,166.45c0-1.66-1.34-3-3-3s-3,1.34-3,3s1.34,3,3,3S79.81,168.11,79.81,166.45L79.81,166.45z"/>
	<path class="st10" d="M128.42,155.62c0-1.66-1.34-3-3-3s-3,1.34-3,3s1.34,3,3,3S128.42,157.28,128.42,155.62L128.42,155.62z"/>
	<path class="st11" d="M128.42,155.62c0-1.66-1.34-3-3-3s-3,1.34-3,3s1.34,3,3,3S128.42,157.28,128.42,155.62L128.42,155.62z"/>
	<path class="st12" d="M128.42,121.56c0-1.66-1.34-3-3-3s-3,1.34-3,3s1.34,3,3,3S128.42,123.22,128.42,121.56L128.42,121.56z"/>
	<path class="st13" d="M128.42,121.56c0-1.66-1.34-3-3-3s-3,1.34-3,3s1.34,3,3,3S128.42,123.22,128.42,121.56L128.42,121.56z"/>
	<path class="st10" d="M90.95,124.34c0-1.66-1.34-3-3-3s-3,1.34-3,3s1.34,3,3,3S90.95,125.99,90.95,124.34L90.95,124.34z"/>
	<path class="st11" d="M90.95,124.34c0-1.66-1.34-3-3-3s-3,1.34-3,3s1.34,3,3,3S90.95,125.99,90.95,124.34L90.95,124.34z"/>
	<path class="st12" d="M90.95,142.69c0-1.66-1.34-3-3-3s-3,1.34-3,3s1.34,3,3,3S90.95,144.35,90.95,142.69L90.95,142.69z"/>
	<path class="st13" d="M90.95,142.69c0-1.66-1.34-3-3-3s-3,1.34-3,3s1.34,3,3,3S90.95,144.35,90.95,142.69L90.95,142.69z"/>
	<path class="st10" d="M125.7,159.7c0-1.66-1.34-3-3-3s-3,1.34-3,3s1.34,3,3,3S125.7,161.36,125.7,159.7L125.7,159.7z"/>
	<path class="st11" d="M125.7,159.7c0-1.66-1.34-3-3-3s-3,1.34-3,3s1.34,3,3,3S125.7,161.36,125.7,159.7L125.7,159.7z"/>
	<path class="st12" d="M125.7,122.97c0-1.66-1.34-3-3-3s-3,1.34-3,3s1.34,3,3,3S125.7,124.63,125.7,122.97L125.7,122.97z"/>
	<path class="st13" d="M125.7,122.97c0-1.66-1.34-3-3-3s-3,1.34-3,3s1.34,3,3,3S125.7,124.63,125.7,122.97L125.7,122.97z"/>
	<path class="st10" d="M62.37,106.43c0-1.66-1.34-3-3-3s-3,1.34-3,3s1.34,3,3,3S62.37,108.09,62.37,106.43L62.37,106.43z"/>
	<path class="st11" d="M62.37,106.43c0-1.66-1.34-3-3-3s-3,1.34-3,3s1.34,3,3,3S62.37,108.09,62.37,106.43L62.37,106.43z"/>
	<path class="st12" d="M62.37,176.05c0-1.66-1.34-3-3-3s-3,1.34-3,3s1.34,3,3,3S62.37,177.7,62.37,176.05L62.37,176.05z"/>
	<path class="st13" d="M62.37,176.05c0-1.66-1.34-3-3-3s-3,1.34-3,3s1.34,3,3,3S62.37,177.7,62.37,176.05L62.37,176.05z"/>
	<path class="st10" d="M104.02,49.83c0-1.66-1.34-3-3-3s-3,1.34-3,3s1.34,3,3,3S104.02,51.49,104.02,49.83L104.02,49.83z"/>
	<path class="st11" d="M104.02,49.83c0-1.66-1.34-3-3-3s-3,1.34-3,3s1.34,3,3,3S104.02,51.49,104.02,49.83L104.02,49.83z"/>
	<path class="st12" d="M104.02,129.24c0-1.66-1.34-3-3-3s-3,1.34-3,3s1.34,3,3,3S104.02,130.9,104.02,129.24L104.02,129.24z"/>
	<path class="st13" d="M104.02,129.24c0-1.66-1.34-3-3-3s-3,1.34-3,3s1.34,3,3,3S104.02,130.9,104.02,129.24L104.02,129.24z"/>
	<path class="st10" d="M91.06,55.41c0-1.66-1.34-3-3-3s-3,1.34-3,3s1.34,3,3,3S91.06,57.07,91.06,55.41L91.06,55.41z"/>
	<path class="st11" d="M91.06,55.41c0-1.66-1.34-3-3-3s-3,1.34-3,3s1.34,3,3,3S91.06,57.07,91.06,55.41L91.06,55.41z"/>
	<path class="st12" d="M91.06,162.93c0-1.66-1.34-3-3-3s-3,1.34-3,3s1.34,3,3,3S91.06,164.59,91.06,162.93L91.06,162.93z"/>
	<path class="st13" d="M91.06,162.93c0-1.66-1.34-3-3-3s-3,1.34-3,3s1.34,3,3,3S91.06,164.59,91.06,162.93L91.06,162.93z"/>
	<path class="st10" d="M137.04,106.29c0-1.66-1.34-3-3-3s-3,1.34-3,3s1.34,3,3,3S137.04,107.94,137.04,106.29L137.04,106.29z"/>
	<path class="st11" d="M137.04,106.29c0-1.66-1.34-3-3-3s-3,1.34-3,3s1.34,3,3,3S137.04,107.94,137.04,106.29L137.04,106.29z"/>
	<path class="st12" d="M137.04,167.44c0-1.66-1.34-3-3-3s-3,1.34-3,3s1.34,3,3,3S137.04,169.1,137.04,167.44L137.04,167.44z"/>
	<path class="st13" d="M137.04,167.44c0-1.66-1.34-3-3-3s-3,1.34-3,3s1.34,3,3,3S137.04,169.1,137.04,167.44L137.04,167.44z"/>
	<rect x="280.59" y="19.52" class="st1" width="189.75" height="188.25"/>
	<path class="st2" d="M280.59,207.77h189.75 M280.59,207.77v-1.9 M328.02,207.77v-1.9 M375.46,207.77v-1.9 M422.9,207.77v-1.9
		 M470.34,207.77v-1.9"/>
	<text transform="matrix(1 0 0 1 273.4633 222.2605)" class="st3 st4 st5">0.</text>
	<text transform="matrix(1 0 0 1 280.9633 222.2605)" class="st3 st4 st5 st14">60</text>
	<text transform="matrix(1 0 0 1 325.9008 222.2605)" class="st3 st4 st5">.8</text>
	<text transform="matrix(1 0 0 1 372.4633 222.2605)" class="st3 st4 st5 st15">11</text>
	<text transform="matrix(1 0 0 1 420.7758 222.2605)" class="st3 st4 st5">.2</text>
	<text transform="matrix(1 0 0 1 463.2133 222.2605)" class="st3 st4 st5">1.</text>
	<text transform="matrix(1 0 0 1 470.7133 222.2605)" class="st3 st4 st5">4</text>
	<text transform="matrix(1 0 0 1 342.4633 236.7683)" class="st3 st4 st7">COM velocity</text>
	<path class="st2" d="M280.59,207.77V19.52 M280.59,207.77h1.9 M280.59,176.39h1.9 M280.59,145.02h1.9 M280.59,113.64h1.9
		 M280.59,82.27h1.9 M280.59,50.89h1.9 M280.59,19.52h1.9"/>
	<text transform="matrix(1 0 0 1 270.5883 211.8933)" class="st3 st4 st5">0</text>
	<text transform="matrix(1 0 0 1 262.3383 180.5183)" class="st3 st4 st5">0.</text>
	<text transform="matrix(1 0 0 1 269.8383 180.5183)" class="st3 st4 st5">2</text>
	<text transform="matrix(1 0 0 1 262.3383 149.1355)" class="st3 st4 st5">0.</text>
	<text transform="matrix(1 0 0 1 269.8383 149.1355)" class="st3 st4 st5">4</text>
	<text transform="matrix(1 0 0 1 262.3383 117.7761)" class="st3 st4 st5">0.</text>
	<text transform="matrix(1 0 0 1 269.8383 117.7761)" class="st3 st4 st5">6</text>
	<text transform="matrix(1 0 0 1 262.3383 86.3933)" class="st3 st4 st5">0.</text>
	<text transform="matrix(1 0 0 1 269.8383 86.3933)" class="st3 st4 st5">8</text>
	<text transform="matrix(1 0 0 1 270.5883 55.0183)" class="st3 st4 st5">1</text>
	<text transform="matrix(1 0 0 1 262.3383 23.6433)" class="st3 st4 st5">1.</text>
	<text transform="matrix(1 0 0 1 269.8383 23.6433)" class="st3 st4 st5">2</text>
	<text transform="matrix(0 -1 1 0 256.3383 154.9011)" class="st3 st4 st7">Muscle Reponse</text>
	<path class="st8" d="M398.74,182.62c0-1.66-1.34-3-3-3c-1.66,0-3,1.34-3,3s1.34,3,3,3C397.4,185.62,398.74,184.27,398.74,182.62
		L398.74,182.62z M391.15,190.91c0-1.66-1.34-3-3-3s-3,1.34-3,3s1.34,3,3,3S391.15,192.57,391.15,190.91L391.15,190.91z
		 M368.69,193.24c0-1.66-1.34-3-3-3c-1.66,0-3,1.34-3,3s1.34,3,3,3C367.34,196.24,368.69,194.89,368.69,193.24L368.69,193.24z
		 M390.22,188.95c0-1.66-1.34-3-3-3s-3,1.34-3,3s1.34,3,3,3S390.22,190.61,390.22,188.95L390.22,188.95z M382.77,192.06
		c0-1.66-1.34-3-3-3s-3,1.34-3,3s1.34,3,3,3S382.77,193.71,382.77,192.06L382.77,192.06z M390.15,193.51c0-1.66-1.34-3-3-3
		s-3,1.34-3,3s1.34,3,3,3S390.15,195.17,390.15,193.51L390.15,193.51z M387.13,189.66c0-1.66-1.34-3-3-3c-1.66,0-3,1.34-3,3
		s1.34,3,3,3C385.78,192.66,387.13,191.32,387.13,189.66L387.13,189.66z M380.28,195.48c0-1.66-1.34-3-3-3c-1.66,0-3,1.34-3,3
		s1.34,3,3,3C378.94,198.48,380.28,197.14,380.28,195.48L380.28,195.48z M378.57,161.48c0-1.66-1.34-3-3-3c-1.66,0-3,1.34-3,3
		s1.34,3,3,3C377.23,164.48,378.57,163.14,378.57,161.48L378.57,161.48z M397.92,190.38c0-1.66-1.34-3-3-3s-3,1.34-3,3s1.34,3,3,3
		S397.92,192.04,397.92,190.38L397.92,190.38z M369.54,189.64c0-1.66-1.34-3-3-3c-1.66,0-3,1.34-3,3s1.34,3,3,3
		C368.19,192.64,369.54,191.3,369.54,189.64L369.54,189.64z M402.22,188.34c0-1.66-1.34-3-3-3c-1.66,0-3,1.34-3,3s1.34,3,3,3
		C400.88,191.34,402.22,189.99,402.22,188.34L402.22,188.34z M381.08,190.68c0-1.66-1.34-3-3-3c-1.66,0-3,1.34-3,3s1.34,3,3,3
		C379.74,193.68,381.08,192.33,381.08,190.68L381.08,190.68z M386.57,177.03c0-1.66-1.34-3-3-3c-1.66,0-3,1.34-3,3s1.34,3,3,3
		C385.23,180.03,386.57,178.69,386.57,177.03L386.57,177.03z M396.58,178.66c0-1.66-1.34-3-3-3c-1.66,0-3,1.34-3,3s1.34,3,3,3
		C395.24,181.66,396.58,180.31,396.58,178.66L396.58,178.66z M383.96,186.07c0-1.66-1.34-3-3-3c-1.66,0-3,1.34-3,3s1.34,3,3,3
		C382.62,189.07,383.96,187.73,383.96,186.07L383.96,186.07z M385.93,173.87c0-1.66-1.34-3-3-3c-1.66,0-3,1.34-3,3s1.34,3,3,3
		C384.59,176.87,385.93,175.53,385.93,173.87L385.93,173.87z M382.8,169.63c0-1.66-1.34-3-3-3s-3,1.34-3,3s1.34,3,3,3
		S382.8,171.28,382.8,169.63L382.8,169.63z M394.89,193.13c0-1.66-1.34-3-3-3s-3,1.34-3,3s1.34,3,3,3S394.89,194.78,394.89,193.13
		L394.89,193.13z M392.24,191.38c0-1.66-1.34-3-3-3c-1.66,0-3,1.34-3,3s1.34,3,3,3C390.9,194.38,392.24,193.04,392.24,191.38
		L392.24,191.38z M386.66,193.5c0-1.66-1.34-3-3-3c-1.66,0-3,1.34-3,3s1.34,3,3,3C385.32,196.5,386.66,195.16,386.66,193.5
		L386.66,193.5z M394.53,194.7c0-1.66-1.34-3-3-3c-1.66,0-3,1.34-3,3s1.34,3,3,3C393.19,197.7,394.53,196.35,394.53,194.7
		L394.53,194.7z M381.99,185.65c0-1.66-1.34-3-3-3s-3,1.34-3,3s1.34,3,3,3S381.99,187.31,381.99,185.65L381.99,185.65z
		 M384.08,180.89c0-1.66-1.34-3-3-3c-1.66,0-3,1.34-3,3s1.34,3,3,3C382.74,183.89,384.08,182.55,384.08,180.89L384.08,180.89z
		 M395.75,195.6c0-1.66-1.34-3-3-3s-3,1.34-3,3s1.34,3,3,3S395.75,197.25,395.75,195.6L395.75,195.6z M374.44,196.47
		c0-1.66-1.34-3-3-3c-1.66,0-3,1.34-3,3s1.34,3,3,3C373.1,199.47,374.44,198.13,374.44,196.47L374.44,196.47z M391.33,188.09
		c0-1.66-1.34-3-3-3c-1.66,0-3,1.34-3,3s1.34,3,3,3C389.98,191.09,391.33,189.74,391.33,188.09L391.33,188.09z M376.71,162
		c0-1.66-1.34-3-3-3c-1.66,0-3,1.34-3,3s1.34,3,3,3C375.36,165,376.71,163.66,376.71,162L376.71,162z M403.1,185.12
		c0-1.66-1.34-3-3-3s-3,1.34-3,3s1.34,3,3,3S403.1,186.78,403.1,185.12L403.1,185.12z M388.46,189.2c0-1.66-1.34-3-3-3
		c-1.66,0-3,1.34-3,3s1.34,3,3,3C387.12,192.2,388.46,190.85,388.46,189.2L388.46,189.2z M387.98,197.27c0-1.66-1.34-3-3-3
		s-3,1.34-3,3s1.34,3,3,3S387.98,198.93,387.98,197.27L387.98,197.27z M379.37,192.3c0-1.66-1.34-3-3-3c-1.66,0-3,1.34-3,3
		s1.34,3,3,3C378.03,195.3,379.37,193.95,379.37,192.3L379.37,192.3z M388.58,198.25c0-1.66-1.34-3-3-3s-3,1.34-3,3s1.34,3,3,3
		S388.58,199.91,388.58,198.25L388.58,198.25z M390.39,187.34c0-1.66-1.34-3-3-3c-1.66,0-3,1.34-3,3s1.34,3,3,3
		C389.04,190.34,390.39,189,390.39,187.34L390.39,187.34z M378.39,195.1c0-1.66-1.34-3-3-3c-1.66,0-3,1.34-3,3s1.34,3,3,3
		C377.05,198.1,378.39,196.75,378.39,195.1L378.39,195.1z M400.57,197.53c0-1.66-1.34-3-3-3c-1.66,0-3,1.34-3,3s1.34,3,3,3
		C399.23,200.53,400.57,199.19,400.57,197.53L400.57,197.53z M390.47,179.01c0-1.66-1.34-3-3-3c-1.66,0-3,1.34-3,3s1.34,3,3,3
		C389.12,182.01,390.47,180.67,390.47,179.01L390.47,179.01z M390.08,195.84c0-1.66-1.34-3-3-3s-3,1.34-3,3s1.34,3,3,3
		S390.08,197.5,390.08,195.84L390.08,195.84z M382.94,198.55c0-1.66-1.34-3-3-3s-3,1.34-3,3s1.34,3,3,3S382.94,200.21,382.94,198.55
		L382.94,198.55z M383.72,190.53c0-1.66-1.34-3-3-3c-1.66,0-3,1.34-3,3s1.34,3,3,3C382.37,193.53,383.72,192.19,383.72,190.53
		L383.72,190.53z M401.52,196.13c0-1.66-1.34-3-3-3s-3,1.34-3,3s1.34,3,3,3S401.52,197.79,401.52,196.13L401.52,196.13z
		 M376.63,192.06c0-1.66-1.34-3-3-3s-3,1.34-3,3s1.34,3,3,3S376.63,193.72,376.63,192.06L376.63,192.06z M382.27,190.21
		c0-1.66-1.34-3-3-3c-1.66,0-3,1.34-3,3s1.34,3,3,3C380.92,193.21,382.27,191.87,382.27,190.21L382.27,190.21z M389.16,189.51
		c0-1.66-1.34-3-3-3c-1.66,0-3,1.34-3,3s1.34,3,3,3C387.82,192.51,389.16,191.17,389.16,189.51L389.16,189.51z M387.88,190.81
		c0-1.66-1.34-3-3-3s-3,1.34-3,3s1.34,3,3,3S387.88,192.46,387.88,190.81L387.88,190.81z M376.24,198.25c0-1.66-1.34-3-3-3
		s-3,1.34-3,3s1.34,3,3,3S376.24,199.9,376.24,198.25L376.24,198.25z M387.94,193.67c0-1.66-1.34-3-3-3s-3,1.34-3,3s1.34,3,3,3
		S387.94,195.33,387.94,193.67L387.94,193.67z M391.44,199.06c0-1.66-1.34-3-3-3c-1.66,0-3,1.34-3,3s1.34,3,3,3
		C390.1,202.06,391.44,200.72,391.44,199.06L391.44,199.06z M392.21,193.93c0-1.66-1.34-3-3-3s-3,1.34-3,3s1.34,3,3,3
		S392.21,195.58,392.21,193.93L392.21,193.93z M390.47,198.77c0-1.66-1.34-3-3-3s-3,1.34-3,3s1.34,3,3,3
		S390.47,200.42,390.47,198.77L390.47,198.77z M371.31,175.47c0-1.66-1.34-3-3-3s-3,1.34-3,3s1.34,3,3,3
		S371.31,177.13,371.31,175.47L371.31,175.47z M390.83,196.22c0-1.66-1.34-3-3-3c-1.66,0-3,1.34-3,3s1.34,3,3,3
		C389.49,199.22,390.83,197.88,390.83,196.22L390.83,196.22z M377.53,197.15c0-1.66-1.34-3-3-3s-3,1.34-3,3s1.34,3,3,3
		S377.53,198.81,377.53,197.15L377.53,197.15z M392.61,195.73c0-1.66-1.34-3-3-3c-1.66,0-3,1.34-3,3s1.34,3,3,3
		C391.27,198.73,392.61,197.38,392.61,195.73L392.61,195.73z M388.85,196.31c0-1.66-1.34-3-3-3s-3,1.34-3,3s1.34,3,3,3
		S388.85,197.97,388.85,196.31L388.85,196.31z M394.42,165.22c0-1.66-1.34-3-3-3c-1.66,0-3,1.34-3,3s1.34,3,3,3
		C393.08,168.22,394.42,166.87,394.42,165.22L394.42,165.22z M389.94,197.07c0-1.66-1.34-3-3-3c-1.66,0-3,1.34-3,3s1.34,3,3,3
		C388.6,200.07,389.94,198.72,389.94,197.07L389.94,197.07z M377.92,158.07c0-1.66-1.34-3-3-3c-1.66,0-3,1.34-3,3s1.34,3,3,3
		C376.58,161.07,377.92,159.72,377.92,158.07L377.92,158.07z M392.3,191.67c0-1.66-1.34-3-3-3c-1.66,0-3,1.34-3,3s1.34,3,3,3
		C390.95,194.67,392.3,193.33,392.3,191.67L392.3,191.67z M397.46,193.44c0-1.66-1.34-3-3-3c-1.66,0-3,1.34-3,3s1.34,3,3,3
		C396.11,196.44,397.46,195.1,397.46,193.44L397.46,193.44z M374.65,184.46c0-1.66-1.34-3-3-3c-1.66,0-3,1.34-3,3s1.34,3,3,3
		C373.31,187.46,374.65,186.12,374.65,184.46L374.65,184.46z"/>
	<path class="st9" d="M398.74,118.44c0-1.66-1.34-3-3-3c-1.66,0-3,1.34-3,3s1.34,3,3,3C397.4,121.44,398.74,120.1,398.74,118.44
		L398.74,118.44z M391.15,117.56c0-1.66-1.34-3-3-3s-3,1.34-3,3s1.34,3,3,3S391.15,119.21,391.15,117.56L391.15,117.56z
		 M368.69,53.89c0-1.66-1.34-3-3-3c-1.66,0-3,1.34-3,3s1.34,3,3,3C367.34,56.89,368.69,55.55,368.69,53.89L368.69,53.89z
		 M390.22,108.9c0-1.66-1.34-3-3-3s-3,1.34-3,3s1.34,3,3,3S390.22,110.56,390.22,108.9L390.22,108.9z M382.77,94.68
		c0-1.66-1.34-3-3-3s-3,1.34-3,3s1.34,3,3,3S382.77,96.33,382.77,94.68L382.77,94.68z M390.15,104.23c0-1.66-1.34-3-3-3s-3,1.34-3,3
		s1.34,3,3,3S390.15,105.89,390.15,104.23L390.15,104.23z M387.13,113.14c0-1.66-1.34-3-3-3c-1.66,0-3,1.34-3,3s1.34,3,3,3
		C385.78,116.14,387.13,114.8,387.13,113.14L387.13,113.14z M380.28,85.75c0-1.66-1.34-3-3-3c-1.66,0-3,1.34-3,3s1.34,3,3,3
		C378.94,88.75,380.28,87.41,380.28,85.75L380.28,85.75z M378.57,124.83c0-1.66-1.34-3-3-3c-1.66,0-3,1.34-3,3s1.34,3,3,3
		C377.23,127.83,378.57,126.49,378.57,124.83L378.57,124.83z M397.92,104.64c0-1.66-1.34-3-3-3s-3,1.34-3,3s1.34,3,3,3
		S397.92,106.3,397.92,104.64L397.92,104.64z M369.54,84.82c0-1.66-1.34-3-3-3c-1.66,0-3,1.34-3,3s1.34,3,3,3
		C368.19,87.82,369.54,86.47,369.54,84.82L369.54,84.82z M402.22,123.6c0-1.66-1.34-3-3-3c-1.66,0-3,1.34-3,3s1.34,3,3,3
		C400.88,126.6,402.22,125.26,402.22,123.6L402.22,123.6z M381.08,62.93c0-1.66-1.34-3-3-3c-1.66,0-3,1.34-3,3s1.34,3,3,3
		C379.74,65.93,381.08,64.58,381.08,62.93L381.08,62.93z M386.57,131.56c0-1.66-1.34-3-3-3c-1.66,0-3,1.34-3,3s1.34,3,3,3
		C385.23,134.56,386.57,133.21,386.57,131.56L386.57,131.56z M396.58,120.29c0-1.66-1.34-3-3-3c-1.66,0-3,1.34-3,3s1.34,3,3,3
		C395.24,123.29,396.58,121.94,396.58,120.29L396.58,120.29z M383.96,72.33c0-1.66-1.34-3-3-3c-1.66,0-3,1.34-3,3s1.34,3,3,3
		C382.62,75.33,383.96,73.99,383.96,72.33L383.96,72.33z M385.93,101.75c0-1.66-1.34-3-3-3c-1.66,0-3,1.34-3,3s1.34,3,3,3
		C384.59,104.75,385.93,103.41,385.93,101.75L385.93,101.75z M382.8,95.43c0-1.66-1.34-3-3-3s-3,1.34-3,3s1.34,3,3,3
		S382.8,97.09,382.8,95.43L382.8,95.43z M394.89,73.55c0-1.66-1.34-3-3-3s-3,1.34-3,3s1.34,3,3,3S394.89,75.2,394.89,73.55
		L394.89,73.55z M392.24,58.81c0-1.66-1.34-3-3-3c-1.66,0-3,1.34-3,3s1.34,3,3,3C390.9,61.81,392.24,60.47,392.24,58.81
		L392.24,58.81z M386.66,78.54c0-1.66-1.34-3-3-3c-1.66,0-3,1.34-3,3s1.34,3,3,3C385.32,81.54,386.66,80.2,386.66,78.54
		L386.66,78.54z M394.53,96.39c0-1.66-1.34-3-3-3c-1.66,0-3,1.34-3,3s1.34,3,3,3C393.19,99.39,394.53,98.04,394.53,96.39
		L394.53,96.39z M381.99,99.04c0-1.66-1.34-3-3-3s-3,1.34-3,3c0,1.66,1.34,3,3,3S381.99,100.69,381.99,99.04L381.99,99.04z
		 M384.08,104.55c0-1.66-1.34-3-3-3c-1.66,0-3,1.34-3,3s1.34,3,3,3C382.74,107.55,384.08,106.21,384.08,104.55L384.08,104.55z
		 M395.75,104.15c0-1.66-1.34-3-3-3s-3,1.34-3,3c0,1.66,1.34,3,3,3S395.75,105.8,395.75,104.15L395.75,104.15z M374.44,111.94
		c0-1.66-1.34-3-3-3c-1.66,0-3,1.34-3,3s1.34,3,3,3C373.1,114.94,374.44,113.6,374.44,111.94L374.44,111.94z M391.33,121.52
		c0-1.66-1.34-3-3-3c-1.66,0-3,1.34-3,3s1.34,3,3,3C389.98,124.52,391.33,123.17,391.33,121.52L391.33,121.52z M376.71,149.23
		c0-1.66-1.34-3-3-3c-1.66,0-3,1.34-3,3s1.34,3,3,3C375.36,152.23,376.71,150.88,376.71,149.23L376.71,149.23z M403.1,123.66
		c0-1.66-1.34-3-3-3s-3,1.34-3,3s1.34,3,3,3S403.1,125.31,403.1,123.66L403.1,123.66z M388.46,106.39c0-1.66-1.34-3-3-3
		c-1.66,0-3,1.34-3,3s1.34,3,3,3C387.12,109.39,388.46,108.05,388.46,106.39L388.46,106.39z M387.98,114c0-1.66-1.34-3-3-3
		s-3,1.34-3,3s1.34,3,3,3S387.98,115.65,387.98,114L387.98,114z M379.37,95.4c0-1.66-1.34-3-3-3c-1.66,0-3,1.34-3,3s1.34,3,3,3
		C378.03,98.4,379.37,97.05,379.37,95.4L379.37,95.4z M388.58,135.51c0-1.66-1.34-3-3-3s-3,1.34-3,3s1.34,3,3,3
		S388.58,137.17,388.58,135.51L388.58,135.51z M390.39,101.26c0-1.66-1.34-3-3-3c-1.66,0-3,1.34-3,3c0,1.66,1.34,3,3,3
		C389.04,104.26,390.39,102.92,390.39,101.26L390.39,101.26z M378.39,94.39c0-1.66-1.34-3-3-3c-1.66,0-3,1.34-3,3s1.34,3,3,3
		C377.05,97.39,378.39,96.04,378.39,94.39L378.39,94.39z M400.57,103.8c0-1.66-1.34-3-3-3c-1.66,0-3,1.34-3,3s1.34,3,3,3
		C399.23,106.8,400.57,105.46,400.57,103.8L400.57,103.8z M390.47,118.11c0-1.66-1.34-3-3-3c-1.66,0-3,1.34-3,3s1.34,3,3,3
		C389.12,121.11,390.47,119.76,390.47,118.11L390.47,118.11z M390.08,90.4c0-1.66-1.34-3-3-3s-3,1.34-3,3c0,1.66,1.34,3,3,3
		S390.08,92.05,390.08,90.4L390.08,90.4z M382.94,124.81c0-1.66-1.34-3-3-3s-3,1.34-3,3s1.34,3,3,3S382.94,126.47,382.94,124.81
		L382.94,124.81z M383.72,77.59c0-1.66-1.34-3-3-3c-1.66,0-3,1.34-3,3s1.34,3,3,3C382.37,80.59,383.72,79.24,383.72,77.59
		L383.72,77.59z M401.52,114.14c0-1.66-1.34-3-3-3s-3,1.34-3,3s1.34,3,3,3S401.52,115.8,401.52,114.14L401.52,114.14z M376.63,118.1
		c0-1.66-1.34-3-3-3s-3,1.34-3,3s1.34,3,3,3S376.63,119.76,376.63,118.1L376.63,118.1z M382.27,121.86c0-1.66-1.34-3-3-3
		c-1.66,0-3,1.34-3,3s1.34,3,3,3C380.92,124.86,382.27,123.52,382.27,121.86L382.27,121.86z M389.16,60.63c0-1.66-1.34-3-3-3
		c-1.66,0-3,1.34-3,3s1.34,3,3,3C387.82,63.63,389.16,62.28,389.16,60.63L389.16,60.63z M387.88,105.68c0-1.66-1.34-3-3-3
		s-3,1.34-3,3s1.34,3,3,3S387.88,107.34,387.88,105.68L387.88,105.68z M376.24,139.36c0-1.66-1.34-3-3-3s-3,1.34-3,3s1.34,3,3,3
		S376.24,141.01,376.24,139.36L376.24,139.36z M387.94,163.01c0-1.66-1.34-3-3-3s-3,1.34-3,3s1.34,3,3,3
		S387.94,164.67,387.94,163.01L387.94,163.01z M391.44,101.31c0-1.66-1.34-3-3-3c-1.66,0-3,1.34-3,3c0,1.66,1.34,3,3,3
		C390.1,104.31,391.44,102.96,391.44,101.31L391.44,101.31z M392.21,97.89c0-1.66-1.34-3-3-3s-3,1.34-3,3s1.34,3,3,3
		S392.21,99.55,392.21,97.89L392.21,97.89z M390.47,124.95c0-1.66-1.34-3-3-3s-3,1.34-3,3s1.34,3,3,3S390.47,126.61,390.47,124.95
		L390.47,124.95z M371.31,114.53c0-1.66-1.34-3-3-3s-3,1.34-3,3s1.34,3,3,3S371.31,116.18,371.31,114.53L371.31,114.53z
		 M390.83,116.92c0-1.66-1.34-3-3-3c-1.66,0-3,1.34-3,3s1.34,3,3,3C389.49,119.92,390.83,118.58,390.83,116.92L390.83,116.92z
		 M377.53,103.03c0-1.66-1.34-3-3-3s-3,1.34-3,3s1.34,3,3,3S377.53,104.69,377.53,103.03L377.53,103.03z M392.61,94.05
		c0-1.66-1.34-3-3-3c-1.66,0-3,1.34-3,3s1.34,3,3,3C391.27,97.05,392.61,95.71,392.61,94.05L392.61,94.05z M388.85,77.76
		c0-1.66-1.34-3-3-3s-3,1.34-3,3s1.34,3,3,3S388.85,79.41,388.85,77.76L388.85,77.76z M394.42,100.67c0-1.66-1.34-3-3-3
		c-1.66,0-3,1.34-3,3s1.34,3,3,3C393.08,103.67,394.42,102.32,394.42,100.67L394.42,100.67z M389.94,116.6c0-1.66-1.34-3-3-3
		c-1.66,0-3,1.34-3,3s1.34,3,3,3C388.6,119.6,389.94,118.26,389.94,116.6L389.94,116.6z M377.92,130.73c0-1.66-1.34-3-3-3
		c-1.66,0-3,1.34-3,3s1.34,3,3,3C376.58,133.73,377.92,132.39,377.92,130.73L377.92,130.73z M392.3,106.58c0-1.66-1.34-3-3-3
		c-1.66,0-3,1.34-3,3s1.34,3,3,3C390.95,109.58,392.3,108.24,392.3,106.58L392.3,106.58z M397.46,107.03c0-1.66-1.34-3-3-3
		c-1.66,0-3,1.34-3,3s1.34,3,3,3C396.11,110.03,397.46,108.68,397.46,107.03L397.46,107.03z M374.65,61.62c0-1.66-1.34-3-3-3
		c-1.66,0-3,1.34-3,3s1.34,3,3,3C373.31,64.62,374.65,63.28,374.65,61.62L374.65,61.62z"/>
	<path class="st10" d="M422.56,190.2c0-1.66-1.34-3-3-3s-3,1.34-3,3s1.34,3,3,3S422.56,191.86,422.56,190.2L422.56,190.2z"/>
	<path class="st11" d="M422.56,190.2c0-1.66-1.34-3-3-3s-3,1.34-3,3s1.34,3,3,3S422.56,191.86,422.56,190.2L422.56,190.2z"/>
	<path class="st12" d="M422.56,82.04c0-1.66-1.34-3-3-3s-3,1.34-3,3s1.34,3,3,3S422.56,83.7,422.56,82.04L422.56,82.04z"/>
	<path class="st13" d="M422.56,82.04c0-1.66-1.34-3-3-3s-3,1.34-3,3s1.34,3,3,3S422.56,83.7,422.56,82.04L422.56,82.04z"/>
	<path class="st10" d="M430.67,189.65c0-1.66-1.34-3-3-3c-1.66,0-3,1.34-3,3s1.34,3,3,3C429.33,192.65,430.67,191.3,430.67,189.65
		L430.67,189.65z"/>
	<path class="st11" d="M430.67,189.65c0-1.66-1.34-3-3-3c-1.66,0-3,1.34-3,3s1.34,3,3,3C429.33,192.65,430.67,191.3,430.67,189.65
		L430.67,189.65z"/>
	<path class="st12" d="M430.67,86.26c0-1.66-1.34-3-3-3c-1.66,0-3,1.34-3,3s1.34,3,3,3C429.33,89.26,430.67,87.92,430.67,86.26
		L430.67,86.26z"/>
	<path class="st13" d="M430.67,86.26c0-1.66-1.34-3-3-3c-1.66,0-3,1.34-3,3s1.34,3,3,3C429.33,89.26,430.67,87.92,430.67,86.26
		L430.67,86.26z"/>
	<path class="st10" d="M427.08,192.59c0-1.66-1.34-3-3-3s-3,1.34-3,3s1.34,3,3,3S427.08,194.25,427.08,192.59L427.08,192.59z"/>
	<path class="st11" d="M427.08,192.59c0-1.66-1.34-3-3-3s-3,1.34-3,3s1.34,3,3,3S427.08,194.25,427.08,192.59L427.08,192.59z"/>
	<path class="st12" d="M427.08,38.87c0-1.66-1.34-3-3-3s-3,1.34-3,3s1.34,3,3,3S427.08,40.53,427.08,38.87L427.08,38.87z"/>
	<path class="st13" d="M427.08,38.87c0-1.66-1.34-3-3-3s-3,1.34-3,3s1.34,3,3,3S427.08,40.53,427.08,38.87L427.08,38.87z"/>
	<path class="st12" d="M448.72,68.87c0-1.66-1.34-3-3-3c-1.66,0-3,1.34-3,3s1.34,3,3,3C447.37,71.87,448.72,70.53,448.72,68.87
		L448.72,68.87z"/>
	<path class="st13" d="M448.72,68.87c0-1.66-1.34-3-3-3c-1.66,0-3,1.34-3,3s1.34,3,3,3C447.37,71.87,448.72,70.53,448.72,68.87
		L448.72,68.87z"/>
	<path class="st10" d="M433.07,189.18c0-1.66-1.34-3-3-3c-1.66,0-3,1.34-3,3s1.34,3,3,3C431.73,192.18,433.07,190.83,433.07,189.18
		L433.07,189.18z"/>
	<path class="st11" d="M433.07,189.18c0-1.66-1.34-3-3-3c-1.66,0-3,1.34-3,3s1.34,3,3,3C431.73,192.18,433.07,190.83,433.07,189.18
		L433.07,189.18z"/>
	<path class="st12" d="M433.07,86.33c0-1.66-1.34-3-3-3c-1.66,0-3,1.34-3,3s1.34,3,3,3C431.73,89.33,433.07,87.99,433.07,86.33
		L433.07,86.33z"/>
	<path class="st13" d="M433.07,86.33c0-1.66-1.34-3-3-3c-1.66,0-3,1.34-3,3s1.34,3,3,3C431.73,89.33,433.07,87.99,433.07,86.33
		L433.07,86.33z"/>
	<path class="st10" d="M450.98,191.75c0-1.66-1.34-3-3-3c-1.66,0-3,1.34-3,3s1.34,3,3,3C449.63,194.75,450.98,193.41,450.98,191.75
		L450.98,191.75z"/>
	<path class="st11" d="M450.98,191.75c0-1.66-1.34-3-3-3c-1.66,0-3,1.34-3,3s1.34,3,3,3C449.63,194.75,450.98,193.41,450.98,191.75
		L450.98,191.75z"/>
	<path class="st12" d="M450.98,26.14c0-1.66-1.34-3-3-3c-1.66,0-3,1.34-3,3s1.34,3,3,3C449.63,29.14,450.98,27.8,450.98,26.14
		L450.98,26.14z"/>
	<path class="st13" d="M450.98,26.14c0-1.66-1.34-3-3-3c-1.66,0-3,1.34-3,3s1.34,3,3,3C449.63,29.14,450.98,27.8,450.98,26.14
		L450.98,26.14z"/>
	<path class="st10" d="M444.68,192.6c0-1.66-1.34-3-3-3s-3,1.34-3,3s1.34,3,3,3S444.68,194.26,444.68,192.6L444.68,192.6z"/>
	<path class="st11" d="M444.68,192.6c0-1.66-1.34-3-3-3s-3,1.34-3,3s1.34,3,3,3S444.68,194.26,444.68,192.6L444.68,192.6z"/>
	<path class="st12" d="M444.68,46.97c0-1.66-1.34-3-3-3s-3,1.34-3,3s1.34,3,3,3S444.68,48.63,444.68,46.97L444.68,46.97z"/>
	<path class="st13" d="M444.68,46.97c0-1.66-1.34-3-3-3s-3,1.34-3,3s1.34,3,3,3S444.68,48.63,444.68,46.97L444.68,46.97z"/>
	<path class="st10" d="M443.75,187.68c0-1.66-1.34-3-3-3s-3,1.34-3,3s1.34,3,3,3S443.75,189.33,443.75,187.68L443.75,187.68z"/>
	<path class="st11" d="M443.75,187.68c0-1.66-1.34-3-3-3s-3,1.34-3,3s1.34,3,3,3S443.75,189.33,443.75,187.68L443.75,187.68z"/>
	<path class="st12" d="M443.75,68.91c0-1.66-1.34-3-3-3s-3,1.34-3,3s1.34,3,3,3S443.75,70.57,443.75,68.91L443.75,68.91z"/>
	<path class="st13" d="M443.75,68.91c0-1.66-1.34-3-3-3s-3,1.34-3,3s1.34,3,3,3S443.75,70.57,443.75,68.91L443.75,68.91z"/>
	<path class="st10" d="M451.14,191.97c0-1.66-1.34-3-3-3c-1.66,0-3,1.34-3,3s1.34,3,3,3C449.8,194.97,451.14,193.63,451.14,191.97
		L451.14,191.97z"/>
	<path class="st11" d="M451.14,191.97c0-1.66-1.34-3-3-3c-1.66,0-3,1.34-3,3s1.34,3,3,3C449.8,194.97,451.14,193.63,451.14,191.97
		L451.14,191.97z"/>
	<path class="st12" d="M451.14,37.18c0-1.66-1.34-3-3-3c-1.66,0-3,1.34-3,3s1.34,3,3,3C449.8,40.18,451.14,38.84,451.14,37.18
		L451.14,37.18z"/>
	<path class="st13" d="M451.14,37.18c0-1.66-1.34-3-3-3c-1.66,0-3,1.34-3,3s1.34,3,3,3C449.8,40.18,451.14,38.84,451.14,37.18
		L451.14,37.18z"/>
	<path class="st10" d="M332.43,157.4c0-1.66-1.34-3-3-3s-3,1.34-3,3s1.34,3,3,3S332.43,159.05,332.43,157.4L332.43,157.4z"/>
	<path class="st11" d="M332.43,157.4c0-1.66-1.34-3-3-3s-3,1.34-3,3s1.34,3,3,3S332.43,159.05,332.43,157.4L332.43,157.4z"/>
	<path class="st12" d="M332.43,123.36c0-1.66-1.34-3-3-3s-3,1.34-3,3s1.34,3,3,3S332.43,125.01,332.43,123.36L332.43,123.36z"/>
	<path class="st13" d="M332.43,123.36c0-1.66-1.34-3-3-3s-3,1.34-3,3s1.34,3,3,3S332.43,125.01,332.43,123.36L332.43,123.36z"/>
	<path class="st10" d="M348.28,151.96c0-1.66-1.34-3-3-3c-1.66,0-3,1.34-3,3s1.34,3,3,3C346.93,154.96,348.28,153.62,348.28,151.96
		L348.28,151.96z"/>
	<path class="st11" d="M348.28,151.96c0-1.66-1.34-3-3-3c-1.66,0-3,1.34-3,3s1.34,3,3,3C346.93,154.96,348.28,153.62,348.28,151.96
		L348.28,151.96z"/>
	<path class="st12" d="M348.28,166.45c0-1.66-1.34-3-3-3c-1.66,0-3,1.34-3,3s1.34,3,3,3C346.93,169.45,348.28,168.11,348.28,166.45
		L348.28,166.45z"/>
	<path class="st13" d="M348.28,166.45c0-1.66-1.34-3-3-3c-1.66,0-3,1.34-3,3s1.34,3,3,3C346.93,169.45,348.28,168.11,348.28,166.45
		L348.28,166.45z"/>
	<path class="st10" d="M337.01,155.62c0-1.66-1.34-3-3-3c-1.66,0-3,1.34-3,3s1.34,3,3,3C335.67,158.62,337.01,157.28,337.01,155.62
		L337.01,155.62z"/>
	<path class="st11" d="M337.01,155.62c0-1.66-1.34-3-3-3c-1.66,0-3,1.34-3,3s1.34,3,3,3C335.67,158.62,337.01,157.28,337.01,155.62
		L337.01,155.62z"/>
	<path class="st12" d="M337.01,121.56c0-1.66-1.34-3-3-3c-1.66,0-3,1.34-3,3s1.34,3,3,3C335.67,124.56,337.01,123.22,337.01,121.56
		L337.01,121.56z"/>
	<path class="st13" d="M337.01,121.56c0-1.66-1.34-3-3-3c-1.66,0-3,1.34-3,3s1.34,3,3,3C335.67,124.56,337.01,123.22,337.01,121.56
		L337.01,121.56z"/>
	<path class="st10" d="M337.07,124.34c0-1.66-1.34-3-3-3c-1.66,0-3,1.34-3,3s1.34,3,3,3C335.73,127.34,337.07,125.99,337.07,124.34
		L337.07,124.34z"/>
	<path class="st11" d="M337.07,124.34c0-1.66-1.34-3-3-3c-1.66,0-3,1.34-3,3s1.34,3,3,3C335.73,127.34,337.07,125.99,337.07,124.34
		L337.07,124.34z"/>
	<path class="st12" d="M337.07,142.69c0-1.66-1.34-3-3-3c-1.66,0-3,1.34-3,3s1.34,3,3,3C335.73,145.69,337.07,144.35,337.07,142.69
		L337.07,142.69z"/>
	<path class="st13" d="M337.07,142.69c0-1.66-1.34-3-3-3c-1.66,0-3,1.34-3,3s1.34,3,3,3C335.73,145.69,337.07,144.35,337.07,142.69
		L337.07,142.69z"/>
	<path class="st10" d="M335.81,159.7c0-1.66-1.34-3-3-3s-3,1.34-3,3s1.34,3,3,3S335.81,161.36,335.81,159.7L335.81,159.7z"/>
	<path class="st11" d="M335.81,159.7c0-1.66-1.34-3-3-3s-3,1.34-3,3s1.34,3,3,3S335.81,161.36,335.81,159.7L335.81,159.7z"/>
	<path class="st12" d="M335.81,122.97c0-1.66-1.34-3-3-3s-3,1.34-3,3s1.34,3,3,3S335.81,124.63,335.81,122.97L335.81,122.97z"/>
	<path class="st13" d="M335.81,122.97c0-1.66-1.34-3-3-3s-3,1.34-3,3s1.34,3,3,3S335.81,124.63,335.81,122.97L335.81,122.97z"/>
	<path class="st10" d="M322.62,106.43c0-1.66-1.34-3-3-3s-3,1.34-3,3s1.34,3,3,3S322.62,108.09,322.62,106.43L322.62,106.43z"/>
	<path class="st11" d="M322.62,106.43c0-1.66-1.34-3-3-3s-3,1.34-3,3s1.34,3,3,3S322.62,108.09,322.62,106.43L322.62,106.43z"/>
	<path class="st12" d="M322.62,176.05c0-1.66-1.34-3-3-3s-3,1.34-3,3s1.34,3,3,3S322.62,177.7,322.62,176.05L322.62,176.05z"/>
	<path class="st13" d="M322.62,176.05c0-1.66-1.34-3-3-3s-3,1.34-3,3s1.34,3,3,3S322.62,177.7,322.62,176.05L322.62,176.05z"/>
	<path class="st10" d="M312.88,49.83c0-1.66-1.34-3-3-3c-1.66,0-3,1.34-3,3s1.34,3,3,3C311.54,52.83,312.88,51.49,312.88,49.83
		L312.88,49.83z"/>
	<path class="st11" d="M312.88,49.83c0-1.66-1.34-3-3-3c-1.66,0-3,1.34-3,3s1.34,3,3,3C311.54,52.83,312.88,51.49,312.88,49.83
		L312.88,49.83z"/>
	<path class="st12" d="M312.88,129.24c0-1.66-1.34-3-3-3c-1.66,0-3,1.34-3,3s1.34,3,3,3C311.54,132.24,312.88,130.9,312.88,129.24
		L312.88,129.24z"/>
	<path class="st13" d="M312.88,129.24c0-1.66-1.34-3-3-3c-1.66,0-3,1.34-3,3s1.34,3,3,3C311.54,132.24,312.88,130.9,312.88,129.24
		L312.88,129.24z"/>
	<path class="st10" d="M289.36,55.41c0-1.66-1.34-3-3-3c-1.66,0-3,1.34-3,3s1.34,3,3,3C288.01,58.41,289.36,57.07,289.36,55.41
		L289.36,55.41z"/>
	<path class="st11" d="M289.36,55.41c0-1.66-1.34-3-3-3c-1.66,0-3,1.34-3,3s1.34,3,3,3C288.01,58.41,289.36,57.07,289.36,55.41
		L289.36,55.41z"/>
	<path class="st12" d="M289.36,162.93c0-1.66-1.34-3-3-3c-1.66,0-3,1.34-3,3s1.34,3,3,3C288.01,165.93,289.36,164.59,289.36,162.93
		L289.36,162.93z"/>
	<path class="st13" d="M289.36,162.93c0-1.66-1.34-3-3-3c-1.66,0-3,1.34-3,3s1.34,3,3,3C288.01,165.93,289.36,164.59,289.36,162.93
		L289.36,162.93z"/>
	<path class="st10" d="M293.63,106.29c0-1.66-1.34-3-3-3s-3,1.34-3,3s1.34,3,3,3S293.63,107.94,293.63,106.29L293.63,106.29z"/>
	<path class="st11" d="M293.63,106.29c0-1.66-1.34-3-3-3s-3,1.34-3,3s1.34,3,3,3S293.63,107.94,293.63,106.29L293.63,106.29z"/>
	<path class="st12" d="M293.63,167.44c0-1.66-1.34-3-3-3s-3,1.34-3,3s1.34,3,3,3S293.63,169.1,293.63,167.44L293.63,167.44z"/>
	<path class="st13" d="M293.63,167.44c0-1.66-1.34-3-3-3s-3,1.34-3,3s1.34,3,3,3S293.63,169.1,293.63,167.44L293.63,167.44z"/>
	<rect x="531.84" y="19.52" class="st1" width="189.75" height="188.25"/>
	<path class="st2" d="M531.84,207.77h189.75 M540.15,207.77v-1.9 M570.39,207.77v-1.9 M600.63,207.77v-1.9 M630.87,207.77v-1.9
		 M661.11,207.77v-1.9 M691.35,207.77v-1.9 M721.59,207.77v-1.9"/>
	<text transform="matrix(1 0 0 1 533.0336 222.2605)" class="st3 st4 st5">0.</text>
	<text transform="matrix(1 0 0 1 540.5336 222.2605)" class="st3 st4 st5 st16">10</text>
	<text transform="matrix(1 0 0 1 565.643 222.2605)" class="st3 st4 st5">.1</text>
	<text transform="matrix(1 0 0 1 573.143 222.2605)" class="st3 st4 st5 st16">50</text>
	<text transform="matrix(1 0 0 1 598.5102 222.2605)" class="st3 st4 st5">.2</text>
	<text transform="matrix(1 0 0 1 621.1196 222.2605)" class="st3 st4 st5">0.25</text>
	<text transform="matrix(1 0 0 1 653.9789 222.2605)" class="st3 st4 st5">0.</text>
	<text transform="matrix(1 0 0 1 661.4789 222.2605)" class="st3 st4 st5 st16">30</text>
	<text transform="matrix(1 0 0 1 686.6039 222.2605)" class="st3 st4 st5">.3</text>
	<text transform="matrix(1 0 0 1 694.1039 222.2605)" class="st3 st4 st5 st16">50</text>
	<text transform="matrix(1 0 0 1 719.4633 222.2605)" class="st3 st4 st5">.4</text>
	<text transform="matrix(1 0 0 1 581.3383 236.7683)" class="st3 st4 st7">Extrapolated CO</text>
	<text transform="matrix(1 0 0 1 655.5883 236.7683)" class="st3 st4 st7">M</text>
	<path class="st2" d="M531.84,207.77V19.52 M531.84,207.77h1.9 M531.84,176.39h1.9 M531.84,145.02h1.9 M531.84,113.64h1.9
		 M531.84,82.27h1.9 M531.84,50.89h1.9 M531.84,19.52h1.9"/>
	<text transform="matrix(1 0 0 1 521.8383 211.8933)" class="st3 st4 st5">0</text>
	<text transform="matrix(1 0 0 1 513.5883 180.5183)" class="st3 st4 st5">0.</text>
	<text transform="matrix(1 0 0 1 521.0883 180.5183)" class="st3 st4 st5">2</text>
	<text transform="matrix(1 0 0 1 513.5883 149.1355)" class="st3 st4 st5">0.</text>
	<text transform="matrix(1 0 0 1 521.0883 149.1355)" class="st3 st4 st5">4</text>
	<text transform="matrix(1 0 0 1 513.5883 117.7761)" class="st3 st4 st5">0.</text>
	<text transform="matrix(1 0 0 1 521.0883 117.7761)" class="st3 st4 st5">6</text>
	<text transform="matrix(1 0 0 1 513.5883 86.3933)" class="st3 st4 st5">0.</text>
	<text transform="matrix(1 0 0 1 521.0883 86.3933)" class="st3 st4 st5">8</text>
	<text transform="matrix(1 0 0 1 521.8383 55.0183)" class="st3 st4 st5">1</text>
	<text transform="matrix(1 0 0 1 513.5883 23.6433)" class="st3 st4 st5">1.</text>
	<text transform="matrix(1 0 0 1 521.0883 23.6433)" class="st3 st4 st5">2</text>
	<text transform="matrix(0 -1 1 0 507.5883 154.9011)" class="st3 st4 st7">Muscle Reponse</text>
	<path class="st8" d="M629.42,182.62c0-1.66-1.34-3-3-3s-3,1.34-3,3s1.34,3,3,3S629.42,184.27,629.42,182.62L629.42,182.62z
		 M624.33,190.91c0-1.66-1.34-3-3-3c-1.66,0-3,1.34-3,3s1.34,3,3,3C622.98,193.91,624.33,192.57,624.33,190.91L624.33,190.91z
		 M628.45,193.24c0-1.66-1.34-3-3-3c-1.66,0-3,1.34-3,3s1.34,3,3,3C627.11,196.24,628.45,194.89,628.45,193.24L628.45,193.24z
		 M624.83,188.95c0-1.66-1.34-3-3-3s-3,1.34-3,3s1.34,3,3,3S624.83,190.61,624.83,188.95L624.83,188.95z M623.46,192.06
		c0-1.66-1.34-3-3-3s-3,1.34-3,3s1.34,3,3,3S623.46,193.71,623.46,192.06L623.46,192.06z M633.98,193.51c0-1.66-1.34-3-3-3
		s-3,1.34-3,3s1.34,3,3,3S633.98,195.17,633.98,193.51L633.98,193.51z M610.12,189.66c0-1.66-1.34-3-3-3s-3,1.34-3,3s1.34,3,3,3
		S610.12,191.32,610.12,189.66L610.12,189.66z M610.75,195.48c0-1.66-1.34-3-3-3s-3,1.34-3,3s1.34,3,3,3
		S610.75,197.14,610.75,195.48L610.75,195.48z M610.95,161.48c0-1.66-1.34-3-3-3s-3,1.34-3,3s1.34,3,3,3
		S610.95,163.14,610.95,161.48L610.95,161.48z M625.23,190.38c0-1.66-1.34-3-3-3s-3,1.34-3,3s1.34,3,3,3
		S625.23,192.04,625.23,190.38L625.23,190.38z M614.99,189.64c0-1.66-1.34-3-3-3s-3,1.34-3,3s1.34,3,3,3S614.99,191.3,614.99,189.64
		L614.99,189.64z M633.68,188.34c0-1.66-1.34-3-3-3c-1.66,0-3,1.34-3,3s1.34,3,3,3C632.34,191.34,633.68,189.99,633.68,188.34
		L633.68,188.34z M617.27,190.68c0-1.66-1.34-3-3-3c-1.66,0-3,1.34-3,3s1.34,3,3,3C615.93,193.68,617.27,192.33,617.27,190.68
		L617.27,190.68z M625.71,177.03c0-1.66-1.34-3-3-3c-1.66,0-3,1.34-3,3s1.34,3,3,3C624.37,180.03,625.71,178.69,625.71,177.03
		L625.71,177.03z M619.69,178.66c0-1.66-1.34-3-3-3c-1.66,0-3,1.34-3,3s1.34,3,3,3C618.35,181.66,619.69,180.31,619.69,178.66
		L619.69,178.66z M639.73,186.07c0-1.66-1.34-3-3-3s-3,1.34-3,3s1.34,3,3,3S639.73,187.73,639.73,186.07L639.73,186.07z
		 M608.94,173.87c0-1.66-1.34-3-3-3c-1.66,0-3,1.34-3,3s1.34,3,3,3C607.59,176.87,608.94,175.53,608.94,173.87L608.94,173.87z
		 M616.48,169.63c0-1.66-1.34-3-3-3c-1.66,0-3,1.34-3,3s1.34,3,3,3C615.14,172.63,616.48,171.28,616.48,169.63L616.48,169.63z
		 M634.75,193.13c0-1.66-1.34-3-3-3c-1.66,0-3,1.34-3,3s1.34,3,3,3C633.4,196.13,634.75,194.78,634.75,193.13L634.75,193.13z
		 M634.11,191.38c0-1.66-1.34-3-3-3c-1.66,0-3,1.34-3,3s1.34,3,3,3C632.77,194.38,634.11,193.04,634.11,191.38L634.11,191.38z
		 M633.07,193.5c0-1.66-1.34-3-3-3c-1.66,0-3,1.34-3,3s1.34,3,3,3C631.73,196.5,633.07,195.16,633.07,193.5L633.07,193.5z
		 M626.84,194.7c0-1.66-1.34-3-3-3c-1.66,0-3,1.34-3,3s1.34,3,3,3C625.49,197.7,626.84,196.35,626.84,194.7L626.84,194.7z
		 M645.3,185.65c0-1.66-1.34-3-3-3c-1.66,0-3,1.34-3,3s1.34,3,3,3C643.96,188.65,645.3,187.31,645.3,185.65L645.3,185.65z
		 M628.6,180.89c0-1.66-1.34-3-3-3c-1.66,0-3,1.34-3,3s1.34,3,3,3C627.25,183.89,628.6,182.55,628.6,180.89L628.6,180.89z
		 M630.65,195.6c0-1.66-1.34-3-3-3c-1.66,0-3,1.34-3,3s1.34,3,3,3C629.3,198.6,630.65,197.25,630.65,195.6L630.65,195.6z
		 M617.27,196.47c0-1.66-1.34-3-3-3s-3,1.34-3,3s1.34,3,3,3S617.27,198.13,617.27,196.47L617.27,196.47z M634.38,188.09
		c0-1.66-1.34-3-3-3c-1.66,0-3,1.34-3,3s1.34,3,3,3C633.04,191.09,634.38,189.74,634.38,188.09L634.38,188.09z M600.38,162
		c0-1.66-1.34-3-3-3c-1.66,0-3,1.34-3,3s1.34,3,3,3C599.03,165,600.38,163.66,600.38,162L600.38,162z M628.01,185.12
		c0-1.66-1.34-3-3-3s-3,1.34-3,3s1.34,3,3,3S628.01,186.78,628.01,185.12L628.01,185.12z M620.35,189.2c0-1.66-1.34-3-3-3
		c-1.66,0-3,1.34-3,3s1.34,3,3,3C619.01,192.2,620.35,190.85,620.35,189.2L620.35,189.2z M619.61,197.27c0-1.66-1.34-3-3-3
		s-3,1.34-3,3s1.34,3,3,3S619.61,198.93,619.61,197.27L619.61,197.27z M613.92,192.3c0-1.66-1.34-3-3-3s-3,1.34-3,3s1.34,3,3,3
		S613.92,193.95,613.92,192.3L613.92,192.3z M631.52,198.25c0-1.66-1.34-3-3-3c-1.66,0-3,1.34-3,3s1.34,3,3,3
		C630.18,201.25,631.52,199.91,631.52,198.25L631.52,198.25z M628.39,187.34c0-1.66-1.34-3-3-3s-3,1.34-3,3s1.34,3,3,3
		S628.39,189,628.39,187.34L628.39,187.34z M607.4,195.1c0-1.66-1.34-3-3-3c-1.66,0-3,1.34-3,3s1.34,3,3,3
		C606.05,198.1,607.4,196.75,607.4,195.1L607.4,195.1z M630.98,197.53c0-1.66-1.34-3-3-3s-3,1.34-3,3s1.34,3,3,3
		S630.98,199.19,630.98,197.53L630.98,197.53z M611.12,179.01c0-1.66-1.34-3-3-3s-3,1.34-3,3s1.34,3,3,3
		S611.12,180.67,611.12,179.01L611.12,179.01z M622.66,195.84c0-1.66-1.34-3-3-3s-3,1.34-3,3s1.34,3,3,3S622.66,197.5,622.66,195.84
		L622.66,195.84z M607.92,198.55c0-1.66-1.34-3-3-3c-1.66,0-3,1.34-3,3s1.34,3,3,3C606.58,201.55,607.92,200.21,607.92,198.55
		L607.92,198.55z M617.96,190.53c0-1.66-1.34-3-3-3s-3,1.34-3,3s1.34,3,3,3S617.96,192.19,617.96,190.53L617.96,190.53z
		 M632.18,196.13c0-1.66-1.34-3-3-3c-1.66,0-3,1.34-3,3s1.34,3,3,3C630.84,199.13,632.18,197.79,632.18,196.13L632.18,196.13z
		 M621.93,192.06c0-1.66-1.34-3-3-3s-3,1.34-3,3s1.34,3,3,3S621.93,193.72,621.93,192.06L621.93,192.06z M629.18,190.21
		c0-1.66-1.34-3-3-3c-1.66,0-3,1.34-3,3s1.34,3,3,3C627.83,193.21,629.18,191.87,629.18,190.21L629.18,190.21z M622.24,189.51
		c0-1.66-1.34-3-3-3s-3,1.34-3,3s1.34,3,3,3S622.24,191.17,622.24,189.51L622.24,189.51z M615.17,190.81c0-1.66-1.34-3-3-3
		c-1.66,0-3,1.34-3,3s1.34,3,3,3C613.83,193.81,615.17,192.46,615.17,190.81L615.17,190.81z M606.68,198.25c0-1.66-1.34-3-3-3
		c-1.66,0-3,1.34-3,3s1.34,3,3,3C605.34,201.25,606.68,199.9,606.68,198.25L606.68,198.25z M620.01,193.67c0-1.66-1.34-3-3-3
		s-3,1.34-3,3s1.34,3,3,3S620.01,195.33,620.01,193.67L620.01,193.67z M626.25,199.06c0-1.66-1.34-3-3-3c-1.66,0-3,1.34-3,3
		s1.34,3,3,3C624.91,202.06,626.25,200.72,626.25,199.06L626.25,199.06z M621.76,193.93c0-1.66-1.34-3-3-3c-1.66,0-3,1.34-3,3
		s1.34,3,3,3C620.42,196.93,621.76,195.58,621.76,193.93L621.76,193.93z M628.92,198.77c0-1.66-1.34-3-3-3c-1.66,0-3,1.34-3,3
		s1.34,3,3,3C627.57,201.77,628.92,200.42,628.92,198.77L628.92,198.77z M614.09,175.47c0-1.66-1.34-3-3-3c-1.66,0-3,1.34-3,3
		s1.34,3,3,3C612.75,178.47,614.09,177.13,614.09,175.47L614.09,175.47z M621.61,196.22c0-1.66-1.34-3-3-3s-3,1.34-3,3s1.34,3,3,3
		S621.61,197.88,621.61,196.22L621.61,196.22z M622.15,197.15c0-1.66-1.34-3-3-3s-3,1.34-3,3s1.34,3,3,3
		S622.15,198.81,622.15,197.15L622.15,197.15z M634.35,195.73c0-1.66-1.34-3-3-3c-1.66,0-3,1.34-3,3s1.34,3,3,3
		C633,198.73,634.35,197.38,634.35,195.73L634.35,195.73z M622.37,196.31c0-1.66-1.34-3-3-3c-1.66,0-3,1.34-3,3s1.34,3,3,3
		C621.02,199.31,622.37,197.97,622.37,196.31L622.37,196.31z M628.83,165.22c0-1.66-1.34-3-3-3c-1.66,0-3,1.34-3,3s1.34,3,3,3
		C627.49,168.22,628.83,166.87,628.83,165.22L628.83,165.22z M624.1,197.07c0-1.66-1.34-3-3-3s-3,1.34-3,3s1.34,3,3,3
		S624.1,198.72,624.1,197.07L624.1,197.07z M608.38,158.07c0-1.66-1.34-3-3-3s-3,1.34-3,3s1.34,3,3,3S608.38,159.72,608.38,158.07
		L608.38,158.07z M619.83,191.67c0-1.66-1.34-3-3-3c-1.66,0-3,1.34-3,3s1.34,3,3,3C618.49,194.67,619.83,193.33,619.83,191.67
		L619.83,191.67z M626.75,193.44c0-1.66-1.34-3-3-3c-1.66,0-3,1.34-3,3s1.34,3,3,3C625.4,196.44,626.75,195.1,626.75,193.44
		L626.75,193.44z M606.63,184.46c0-1.66-1.34-3-3-3s-3,1.34-3,3s1.34,3,3,3S606.63,186.12,606.63,184.46L606.63,184.46z"/>
	<path class="st9" d="M629.42,118.44c0-1.66-1.34-3-3-3s-3,1.34-3,3s1.34,3,3,3S629.42,120.1,629.42,118.44L629.42,118.44z
		 M624.33,117.56c0-1.66-1.34-3-3-3c-1.66,0-3,1.34-3,3s1.34,3,3,3C622.98,120.56,624.33,119.21,624.33,117.56L624.33,117.56z
		 M628.45,53.89c0-1.66-1.34-3-3-3c-1.66,0-3,1.34-3,3s1.34,3,3,3C627.11,56.89,628.45,55.55,628.45,53.89L628.45,53.89z
		 M624.83,108.9c0-1.66-1.34-3-3-3s-3,1.34-3,3s1.34,3,3,3S624.83,110.56,624.83,108.9L624.83,108.9z M623.46,94.68
		c0-1.66-1.34-3-3-3s-3,1.34-3,3s1.34,3,3,3S623.46,96.33,623.46,94.68L623.46,94.68z M633.98,104.23c0-1.66-1.34-3-3-3s-3,1.34-3,3
		s1.34,3,3,3S633.98,105.89,633.98,104.23L633.98,104.23z M610.12,113.14c0-1.66-1.34-3-3-3s-3,1.34-3,3s1.34,3,3,3
		S610.12,114.8,610.12,113.14L610.12,113.14z M610.75,85.75c0-1.66-1.34-3-3-3s-3,1.34-3,3s1.34,3,3,3S610.75,87.41,610.75,85.75
		L610.75,85.75z M610.95,124.83c0-1.66-1.34-3-3-3s-3,1.34-3,3s1.34,3,3,3S610.95,126.49,610.95,124.83L610.95,124.83z
		 M625.23,104.64c0-1.66-1.34-3-3-3s-3,1.34-3,3s1.34,3,3,3S625.23,106.3,625.23,104.64L625.23,104.64z M614.99,84.82
		c0-1.66-1.34-3-3-3s-3,1.34-3,3s1.34,3,3,3S614.99,86.47,614.99,84.82L614.99,84.82z M633.68,123.6c0-1.66-1.34-3-3-3
		c-1.66,0-3,1.34-3,3s1.34,3,3,3C632.34,126.6,633.68,125.26,633.68,123.6L633.68,123.6z M617.27,62.93c0-1.66-1.34-3-3-3
		c-1.66,0-3,1.34-3,3s1.34,3,3,3C615.93,65.93,617.27,64.58,617.27,62.93L617.27,62.93z M625.71,131.56c0-1.66-1.34-3-3-3
		c-1.66,0-3,1.34-3,3s1.34,3,3,3C624.37,134.56,625.71,133.21,625.71,131.56L625.71,131.56z M619.69,120.29c0-1.66-1.34-3-3-3
		c-1.66,0-3,1.34-3,3s1.34,3,3,3C618.35,123.29,619.69,121.94,619.69,120.29L619.69,120.29z M639.73,72.33c0-1.66-1.34-3-3-3
		s-3,1.34-3,3s1.34,3,3,3S639.73,73.99,639.73,72.33L639.73,72.33z M608.94,101.75c0-1.66-1.34-3-3-3c-1.66,0-3,1.34-3,3s1.34,3,3,3
		C607.59,104.75,608.94,103.41,608.94,101.75L608.94,101.75z M616.48,95.43c0-1.66-1.34-3-3-3c-1.66,0-3,1.34-3,3s1.34,3,3,3
		C615.14,98.43,616.48,97.09,616.48,95.43L616.48,95.43z M634.75,73.55c0-1.66-1.34-3-3-3c-1.66,0-3,1.34-3,3s1.34,3,3,3
		C633.4,76.55,634.75,75.2,634.75,73.55L634.75,73.55z M634.11,58.81c0-1.66-1.34-3-3-3c-1.66,0-3,1.34-3,3s1.34,3,3,3
		C632.77,61.81,634.11,60.47,634.11,58.81L634.11,58.81z M633.07,78.54c0-1.66-1.34-3-3-3c-1.66,0-3,1.34-3,3s1.34,3,3,3
		C631.73,81.54,633.07,80.2,633.07,78.54L633.07,78.54z M626.84,96.39c0-1.66-1.34-3-3-3c-1.66,0-3,1.34-3,3s1.34,3,3,3
		C625.49,99.39,626.84,98.04,626.84,96.39L626.84,96.39z M645.3,99.04c0-1.66-1.34-3-3-3c-1.66,0-3,1.34-3,3c0,1.66,1.34,3,3,3
		C643.96,102.04,645.3,100.69,645.3,99.04L645.3,99.04z M628.6,104.55c0-1.66-1.34-3-3-3c-1.66,0-3,1.34-3,3s1.34,3,3,3
		C627.25,107.55,628.6,106.21,628.6,104.55L628.6,104.55z M630.65,104.15c0-1.66-1.34-3-3-3c-1.66,0-3,1.34-3,3c0,1.66,1.34,3,3,3
		C629.3,107.15,630.65,105.8,630.65,104.15L630.65,104.15z M617.27,111.94c0-1.66-1.34-3-3-3s-3,1.34-3,3s1.34,3,3,3
		S617.27,113.6,617.27,111.94L617.27,111.94z M634.38,121.52c0-1.66-1.34-3-3-3c-1.66,0-3,1.34-3,3s1.34,3,3,3
		C633.04,124.52,634.38,123.17,634.38,121.52L634.38,121.52z M600.38,149.23c0-1.66-1.34-3-3-3c-1.66,0-3,1.34-3,3s1.34,3,3,3
		C599.03,152.23,600.38,150.88,600.38,149.23L600.38,149.23z M628.01,123.66c0-1.66-1.34-3-3-3s-3,1.34-3,3s1.34,3,3,3
		S628.01,125.31,628.01,123.66L628.01,123.66z M620.35,106.39c0-1.66-1.34-3-3-3c-1.66,0-3,1.34-3,3s1.34,3,3,3
		C619.01,109.39,620.35,108.05,620.35,106.39L620.35,106.39z M619.61,114c0-1.66-1.34-3-3-3s-3,1.34-3,3s1.34,3,3,3
		S619.61,115.65,619.61,114L619.61,114z M613.92,95.4c0-1.66-1.34-3-3-3s-3,1.34-3,3s1.34,3,3,3S613.92,97.05,613.92,95.4
		L613.92,95.4z M631.52,135.51c0-1.66-1.34-3-3-3c-1.66,0-3,1.34-3,3s1.34,3,3,3C630.18,138.51,631.52,137.17,631.52,135.51
		L631.52,135.51z M628.39,101.26c0-1.66-1.34-3-3-3s-3,1.34-3,3c0,1.66,1.34,3,3,3S628.39,102.92,628.39,101.26L628.39,101.26z
		 M607.4,94.39c0-1.66-1.34-3-3-3c-1.66,0-3,1.34-3,3s1.34,3,3,3C606.05,97.39,607.4,96.04,607.4,94.39L607.4,94.39z M630.98,103.8
		c0-1.66-1.34-3-3-3s-3,1.34-3,3s1.34,3,3,3S630.98,105.46,630.98,103.8L630.98,103.8z M611.12,118.11c0-1.66-1.34-3-3-3
		s-3,1.34-3,3s1.34,3,3,3S611.12,119.76,611.12,118.11L611.12,118.11z M622.66,90.4c0-1.66-1.34-3-3-3s-3,1.34-3,3
		c0,1.66,1.34,3,3,3S622.66,92.05,622.66,90.4L622.66,90.4z M607.92,124.81c0-1.66-1.34-3-3-3c-1.66,0-3,1.34-3,3s1.34,3,3,3
		C606.58,127.81,607.92,126.47,607.92,124.81L607.92,124.81z M617.96,77.59c0-1.66-1.34-3-3-3s-3,1.34-3,3s1.34,3,3,3
		S617.96,79.24,617.96,77.59L617.96,77.59z M632.18,114.14c0-1.66-1.34-3-3-3c-1.66,0-3,1.34-3,3s1.34,3,3,3
		C630.84,117.14,632.18,115.8,632.18,114.14L632.18,114.14z M621.93,118.1c0-1.66-1.34-3-3-3s-3,1.34-3,3s1.34,3,3,3
		S621.93,119.76,621.93,118.1L621.93,118.1z M629.18,121.86c0-1.66-1.34-3-3-3c-1.66,0-3,1.34-3,3s1.34,3,3,3
		C627.83,124.86,629.18,123.52,629.18,121.86L629.18,121.86z M622.24,60.63c0-1.66-1.34-3-3-3s-3,1.34-3,3s1.34,3,3,3
		S622.24,62.28,622.24,60.63L622.24,60.63z M615.17,105.68c0-1.66-1.34-3-3-3c-1.66,0-3,1.34-3,3s1.34,3,3,3
		C613.83,108.68,615.17,107.34,615.17,105.68L615.17,105.68z M606.68,139.36c0-1.66-1.34-3-3-3c-1.66,0-3,1.34-3,3s1.34,3,3,3
		C605.34,142.36,606.68,141.01,606.68,139.36L606.68,139.36z M620.01,163.01c0-1.66-1.34-3-3-3s-3,1.34-3,3s1.34,3,3,3
		S620.01,164.67,620.01,163.01L620.01,163.01z M626.25,101.31c0-1.66-1.34-3-3-3c-1.66,0-3,1.34-3,3c0,1.66,1.34,3,3,3
		C624.91,104.31,626.25,102.96,626.25,101.31L626.25,101.31z M621.76,97.89c0-1.66-1.34-3-3-3c-1.66,0-3,1.34-3,3s1.34,3,3,3
		C620.42,100.89,621.76,99.55,621.76,97.89L621.76,97.89z M628.92,124.95c0-1.66-1.34-3-3-3c-1.66,0-3,1.34-3,3s1.34,3,3,3
		C627.57,127.95,628.92,126.61,628.92,124.95L628.92,124.95z M614.09,114.53c0-1.66-1.34-3-3-3c-1.66,0-3,1.34-3,3s1.34,3,3,3
		C612.75,117.53,614.09,116.18,614.09,114.53L614.09,114.53z M621.61,116.92c0-1.66-1.34-3-3-3s-3,1.34-3,3s1.34,3,3,3
		S621.61,118.58,621.61,116.92L621.61,116.92z M622.15,103.03c0-1.66-1.34-3-3-3s-3,1.34-3,3s1.34,3,3,3
		S622.15,104.69,622.15,103.03L622.15,103.03z M634.35,94.05c0-1.66-1.34-3-3-3c-1.66,0-3,1.34-3,3s1.34,3,3,3
		C633,97.05,634.35,95.71,634.35,94.05L634.35,94.05z M622.37,77.76c0-1.66-1.34-3-3-3c-1.66,0-3,1.34-3,3s1.34,3,3,3
		C621.02,80.76,622.37,79.41,622.37,77.76L622.37,77.76z M628.83,100.67c0-1.66-1.34-3-3-3c-1.66,0-3,1.34-3,3s1.34,3,3,3
		C627.49,103.67,628.83,102.32,628.83,100.67L628.83,100.67z M624.1,116.6c0-1.66-1.34-3-3-3s-3,1.34-3,3s1.34,3,3,3
		S624.1,118.26,624.1,116.6L624.1,116.6z M608.38,130.73c0-1.66-1.34-3-3-3s-3,1.34-3,3s1.34,3,3,3S608.38,132.39,608.38,130.73
		L608.38,130.73z M619.83,106.58c0-1.66-1.34-3-3-3c-1.66,0-3,1.34-3,3s1.34,3,3,3C618.49,109.58,619.83,108.24,619.83,106.58
		L619.83,106.58z M626.75,107.03c0-1.66-1.34-3-3-3c-1.66,0-3,1.34-3,3s1.34,3,3,3C625.4,110.03,626.75,108.68,626.75,107.03
		L626.75,107.03z M606.63,61.62c0-1.66-1.34-3-3-3s-3,1.34-3,3s1.34,3,3,3S606.63,63.28,606.63,61.62L606.63,61.62z"/>
	<path class="st10" d="M642.48,190.2c0-1.66-1.34-3-3-3s-3,1.34-3,3s1.34,3,3,3S642.48,191.86,642.48,190.2L642.48,190.2z"/>
	<path class="st11" d="M642.48,190.2c0-1.66-1.34-3-3-3s-3,1.34-3,3s1.34,3,3,3S642.48,191.86,642.48,190.2L642.48,190.2z"/>
	<path class="st12" d="M642.48,82.04c0-1.66-1.34-3-3-3s-3,1.34-3,3s1.34,3,3,3S642.48,83.7,642.48,82.04L642.48,82.04z"/>
	<path class="st13" d="M642.48,82.04c0-1.66-1.34-3-3-3s-3,1.34-3,3s1.34,3,3,3S642.48,83.7,642.48,82.04L642.48,82.04z"/>
	<path class="st10" d="M662.54,189.65c0-1.66-1.34-3-3-3c-1.66,0-3,1.34-3,3s1.34,3,3,3C661.2,192.65,662.54,191.3,662.54,189.65
		L662.54,189.65z"/>
	<path class="st11" d="M662.54,189.65c0-1.66-1.34-3-3-3c-1.66,0-3,1.34-3,3s1.34,3,3,3C661.2,192.65,662.54,191.3,662.54,189.65
		L662.54,189.65z"/>
	<path class="st12" d="M662.54,86.26c0-1.66-1.34-3-3-3c-1.66,0-3,1.34-3,3s1.34,3,3,3C661.2,89.26,662.54,87.92,662.54,86.26
		L662.54,86.26z"/>
	<path class="st13" d="M662.54,86.26c0-1.66-1.34-3-3-3c-1.66,0-3,1.34-3,3s1.34,3,3,3C661.2,89.26,662.54,87.92,662.54,86.26
		L662.54,86.26z"/>
	<path class="st10" d="M685.53,192.59c0-1.66-1.34-3-3-3c-1.66,0-3,1.34-3,3s1.34,3,3,3C684.19,195.59,685.53,194.25,685.53,192.59
		L685.53,192.59z"/>
	<path class="st11" d="M685.53,192.59c0-1.66-1.34-3-3-3c-1.66,0-3,1.34-3,3s1.34,3,3,3C684.19,195.59,685.53,194.25,685.53,192.59
		L685.53,192.59z"/>
	<path class="st12" d="M685.53,38.87c0-1.66-1.34-3-3-3c-1.66,0-3,1.34-3,3s1.34,3,3,3C684.19,41.87,685.53,40.53,685.53,38.87
		L685.53,38.87z"/>
	<path class="st13" d="M685.53,38.87c0-1.66-1.34-3-3-3c-1.66,0-3,1.34-3,3s1.34,3,3,3C684.19,41.87,685.53,40.53,685.53,38.87
		L685.53,38.87z"/>
	<path class="st12" d="M678.92,68.87c0-1.66-1.34-3-3-3c-1.66,0-3,1.34-3,3s1.34,3,3,3C677.57,71.87,678.92,70.53,678.92,68.87
		L678.92,68.87z"/>
	<path class="st13" d="M678.92,68.87c0-1.66-1.34-3-3-3c-1.66,0-3,1.34-3,3s1.34,3,3,3C677.57,71.87,678.92,70.53,678.92,68.87
		L678.92,68.87z"/>
	<path class="st10" d="M653.46,189.18c0-1.66-1.34-3-3-3c-1.66,0-3,1.34-3,3s1.34,3,3,3C652.12,192.18,653.46,190.83,653.46,189.18
		L653.46,189.18z"/>
	<path class="st11" d="M653.46,189.18c0-1.66-1.34-3-3-3c-1.66,0-3,1.34-3,3s1.34,3,3,3C652.12,192.18,653.46,190.83,653.46,189.18
		L653.46,189.18z"/>
	<path class="st12" d="M653.46,86.33c0-1.66-1.34-3-3-3c-1.66,0-3,1.34-3,3s1.34,3,3,3C652.12,89.33,653.46,87.99,653.46,86.33
		L653.46,86.33z"/>
	<path class="st13" d="M653.46,86.33c0-1.66-1.34-3-3-3c-1.66,0-3,1.34-3,3s1.34,3,3,3C652.12,89.33,653.46,87.99,653.46,86.33
		L653.46,86.33z"/>
	<path class="st10" d="M706.55,191.75c0-1.66-1.34-3-3-3s-3,1.34-3,3s1.34,3,3,3S706.55,193.41,706.55,191.75L706.55,191.75z"/>
	<path class="st11" d="M706.55,191.75c0-1.66-1.34-3-3-3s-3,1.34-3,3s1.34,3,3,3S706.55,193.41,706.55,191.75L706.55,191.75z"/>
	<path class="st12" d="M706.55,26.14c0-1.66-1.34-3-3-3s-3,1.34-3,3s1.34,3,3,3S706.55,27.8,706.55,26.14L706.55,26.14z"/>
	<path class="st13" d="M706.55,26.14c0-1.66-1.34-3-3-3s-3,1.34-3,3s1.34,3,3,3S706.55,27.8,706.55,26.14L706.55,26.14z"/>
	<path class="st10" d="M686.95,192.6c0-1.66-1.34-3-3-3c-1.66,0-3,1.34-3,3s1.34,3,3,3C685.61,195.6,686.95,194.26,686.95,192.6
		L686.95,192.6z"/>
	<path class="st11" d="M686.95,192.6c0-1.66-1.34-3-3-3c-1.66,0-3,1.34-3,3s1.34,3,3,3C685.61,195.6,686.95,194.26,686.95,192.6
		L686.95,192.6z"/>
	<path class="st12" d="M686.95,46.97c0-1.66-1.34-3-3-3c-1.66,0-3,1.34-3,3s1.34,3,3,3C685.61,49.97,686.95,48.63,686.95,46.97
		L686.95,46.97z"/>
	<path class="st13" d="M686.95,46.97c0-1.66-1.34-3-3-3c-1.66,0-3,1.34-3,3s1.34,3,3,3C685.61,49.97,686.95,48.63,686.95,46.97
		L686.95,46.97z"/>
	<path class="st10" d="M670.05,187.68c0-1.66-1.34-3-3-3c-1.66,0-3,1.34-3,3s1.34,3,3,3C668.71,190.68,670.05,189.33,670.05,187.68
		L670.05,187.68z"/>
	<path class="st11" d="M670.05,187.68c0-1.66-1.34-3-3-3c-1.66,0-3,1.34-3,3s1.34,3,3,3C668.71,190.68,670.05,189.33,670.05,187.68
		L670.05,187.68z"/>
	<path class="st12" d="M670.05,68.91c0-1.66-1.34-3-3-3c-1.66,0-3,1.34-3,3s1.34,3,3,3C668.71,71.91,670.05,70.57,670.05,68.91
		L670.05,68.91z"/>
	<path class="st13" d="M670.05,68.91c0-1.66-1.34-3-3-3c-1.66,0-3,1.34-3,3s1.34,3,3,3C668.71,71.91,670.05,70.57,670.05,68.91
		L670.05,68.91z"/>
	<path class="st10" d="M667.66,191.97c0-1.66-1.34-3-3-3c-1.66,0-3,1.34-3,3s1.34,3,3,3C666.31,194.97,667.66,193.63,667.66,191.97
		L667.66,191.97z"/>
	<path class="st11" d="M667.66,191.97c0-1.66-1.34-3-3-3c-1.66,0-3,1.34-3,3s1.34,3,3,3C666.31,194.97,667.66,193.63,667.66,191.97
		L667.66,191.97z"/>
	<path class="st12" d="M667.66,37.18c0-1.66-1.34-3-3-3c-1.66,0-3,1.34-3,3s1.34,3,3,3C666.31,40.18,667.66,38.84,667.66,37.18
		L667.66,37.18z"/>
	<path class="st13" d="M667.66,37.18c0-1.66-1.34-3-3-3c-1.66,0-3,1.34-3,3s1.34,3,3,3C666.31,40.18,667.66,38.84,667.66,37.18
		L667.66,37.18z"/>
	<path class="st10" d="M588.25,157.4c0-1.66-1.34-3-3-3s-3,1.34-3,3s1.34,3,3,3S588.25,159.05,588.25,157.4L588.25,157.4z"/>
	<path class="st11" d="M588.25,157.4c0-1.66-1.34-3-3-3s-3,1.34-3,3s1.34,3,3,3S588.25,159.05,588.25,157.4L588.25,157.4z"/>
	<path class="st12" d="M588.25,123.36c0-1.66-1.34-3-3-3s-3,1.34-3,3s1.34,3,3,3S588.25,125.01,588.25,123.36L588.25,123.36z"/>
	<path class="st13" d="M588.25,123.36c0-1.66-1.34-3-3-3s-3,1.34-3,3s1.34,3,3,3S588.25,125.01,588.25,123.36L588.25,123.36z"/>
	<path class="st10" d="M576.04,151.96c0-1.66-1.34-3-3-3c-1.66,0-3,1.34-3,3s1.34,3,3,3C574.69,154.96,576.04,153.62,576.04,151.96
		L576.04,151.96z"/>
	<path class="st11" d="M576.04,151.96c0-1.66-1.34-3-3-3c-1.66,0-3,1.34-3,3s1.34,3,3,3C574.69,154.96,576.04,153.62,576.04,151.96
		L576.04,151.96z"/>
	<path class="st12" d="M576.04,166.45c0-1.66-1.34-3-3-3c-1.66,0-3,1.34-3,3s1.34,3,3,3C574.69,169.45,576.04,168.11,576.04,166.45
		L576.04,166.45z"/>
	<path class="st13" d="M576.04,166.45c0-1.66-1.34-3-3-3c-1.66,0-3,1.34-3,3s1.34,3,3,3C574.69,169.45,576.04,168.11,576.04,166.45
		L576.04,166.45z"/>
	<path class="st10" d="M585.93,155.62c0-1.66-1.34-3-3-3s-3,1.34-3,3s1.34,3,3,3S585.93,157.28,585.93,155.62L585.93,155.62z"/>
	<path class="st11" d="M585.93,155.62c0-1.66-1.34-3-3-3s-3,1.34-3,3s1.34,3,3,3S585.93,157.28,585.93,155.62L585.93,155.62z"/>
	<path class="st12" d="M585.93,121.56c0-1.66-1.34-3-3-3s-3,1.34-3,3s1.34,3,3,3S585.93,123.22,585.93,121.56L585.93,121.56z"/>
	<path class="st13" d="M585.93,121.56c0-1.66-1.34-3-3-3s-3,1.34-3,3s1.34,3,3,3S585.93,123.22,585.93,121.56L585.93,121.56z"/>
	<path class="st10" d="M571.64,124.34c0-1.66-1.34-3-3-3s-3,1.34-3,3s1.34,3,3,3S571.64,125.99,571.64,124.34L571.64,124.34z"/>
	<path class="st11" d="M571.64,124.34c0-1.66-1.34-3-3-3s-3,1.34-3,3s1.34,3,3,3S571.64,125.99,571.64,124.34L571.64,124.34z"/>
	<path class="st12" d="M571.64,142.69c0-1.66-1.34-3-3-3s-3,1.34-3,3s1.34,3,3,3S571.64,144.35,571.64,142.69L571.64,142.69z"/>
	<path class="st13" d="M571.64,142.69c0-1.66-1.34-3-3-3s-3,1.34-3,3s1.34,3,3,3S571.64,144.35,571.64,142.69L571.64,142.69z"/>
	<path class="st10" d="M583.96,159.7c0-1.66-1.34-3-3-3s-3,1.34-3,3s1.34,3,3,3S583.96,161.36,583.96,159.7L583.96,159.7z"/>
	<path class="st11" d="M583.96,159.7c0-1.66-1.34-3-3-3s-3,1.34-3,3s1.34,3,3,3S583.96,161.36,583.96,159.7L583.96,159.7z"/>
	<path class="st12" d="M583.96,122.97c0-1.66-1.34-3-3-3s-3,1.34-3,3s1.34,3,3,3S583.96,124.63,583.96,122.97L583.96,122.97z"/>
	<path class="st13" d="M583.96,122.97c0-1.66-1.34-3-3-3s-3,1.34-3,3s1.34,3,3,3S583.96,124.63,583.96,122.97L583.96,122.97z"/>
	<path class="st10" d="M549.55,106.43c0-1.66-1.34-3-3-3s-3,1.34-3,3s1.34,3,3,3S549.55,108.09,549.55,106.43L549.55,106.43z"/>
	<path class="st11" d="M549.55,106.43c0-1.66-1.34-3-3-3s-3,1.34-3,3s1.34,3,3,3S549.55,108.09,549.55,106.43L549.55,106.43z"/>
	<path class="st12" d="M549.55,176.05c0-1.66-1.34-3-3-3s-3,1.34-3,3s1.34,3,3,3S549.55,177.7,549.55,176.05L549.55,176.05z"/>
	<path class="st13" d="M549.55,176.05c0-1.66-1.34-3-3-3s-3,1.34-3,3s1.34,3,3,3S549.55,177.7,549.55,176.05L549.55,176.05z"/>
	<path class="st10" d="M557.96,49.83c0-1.66-1.34-3-3-3s-3,1.34-3,3s1.34,3,3,3S557.96,51.49,557.96,49.83L557.96,49.83z"/>
	<path class="st11" d="M557.96,49.83c0-1.66-1.34-3-3-3s-3,1.34-3,3s1.34,3,3,3S557.96,51.49,557.96,49.83L557.96,49.83z"/>
	<path class="st12" d="M557.96,129.24c0-1.66-1.34-3-3-3s-3,1.34-3,3s1.34,3,3,3S557.96,130.9,557.96,129.24L557.96,129.24z"/>
	<path class="st13" d="M557.96,129.24c0-1.66-1.34-3-3-3s-3,1.34-3,3s1.34,3,3,3S557.96,130.9,557.96,129.24L557.96,129.24z"/>
	<path class="st10" d="M534.84,55.41c0-1.66-1.34-3-3-3s-3,1.34-3,3s1.34,3,3,3S534.84,57.07,534.84,55.41L534.84,55.41z"/>
	<path class="st11" d="M534.84,55.41c0-1.66-1.34-3-3-3s-3,1.34-3,3s1.34,3,3,3S534.84,57.07,534.84,55.41L534.84,55.41z"/>
	<path class="st12" d="M534.84,162.93c0-1.66-1.34-3-3-3s-3,1.34-3,3s1.34,3,3,3S534.84,164.59,534.84,162.93L534.84,162.93z"/>
	<path class="st13" d="M534.84,162.93c0-1.66-1.34-3-3-3s-3,1.34-3,3s1.34,3,3,3S534.84,164.59,534.84,162.93L534.84,162.93z"/>
	<path class="st10" d="M555.72,106.29c0-1.66-1.34-3-3-3s-3,1.34-3,3s1.34,3,3,3S555.72,107.94,555.72,106.29L555.72,106.29z"/>
	<path class="st11" d="M555.72,106.29c0-1.66-1.34-3-3-3s-3,1.34-3,3s1.34,3,3,3S555.72,107.94,555.72,106.29L555.72,106.29z"/>
	<path class="st12" d="M555.72,167.44c0-1.66-1.34-3-3-3s-3,1.34-3,3s1.34,3,3,3S555.72,169.1,555.72,167.44L555.72,167.44z"/>
	<path class="st13" d="M555.72,167.44c0-1.66-1.34-3-3-3s-3,1.34-3,3s1.34,3,3,3S555.72,169.1,555.72,167.44L555.72,167.44z"/>
	<rect x="783.09" y="19.52" class="st1" width="189.75" height="188.25"/>
	<path class="st2" d="M783.09,207.77h189.75 M783.09,207.77v-1.9 M814.71,207.77v-1.9 M846.34,207.77v-1.9 M877.96,207.77v-1.9
		 M909.59,207.77v-1.9 M941.21,207.77v-1.9 M972.84,207.77v-1.9"/>
	<text transform="matrix(1 0 0 1 780.0883 222.2605)" class="st3 st4 st5 st17">02468</text>
	<text transform="matrix(1 0 0 1 935.5883 222.2605)" class="st3 st4 st5">10</text>
	<text transform="matrix(1 0 0 1 967.2133 222.2605)" class="st3 st4 st5">12</text>
	<text transform="matrix(1 0 0 1 849.0883 236.7683)" class="st3 st4 st7">Ankle angle</text>
	<path class="st2" d="M783.09,207.77V19.52 M783.09,207.77h1.9 M783.09,176.39h1.9 M783.09,145.02h1.9 M783.09,113.64h1.9
		 M783.09,82.27h1.9 M783.09,50.89h1.9 M783.09,19.52h1.9"/>
	<text transform="matrix(1 0 0 1 773.0883 211.8933)" class="st3 st4 st5">0</text>
	<text transform="matrix(1 0 0 1 764.8383 180.5183)" class="st3 st4 st5">0.</text>
	<text transform="matrix(1 0 0 1 772.3383 180.5183)" class="st3 st4 st5">2</text>
	<text transform="matrix(1 0 0 1 764.8383 149.1355)" class="st3 st4 st5">0.</text>
	<text transform="matrix(1 0 0 1 772.3383 149.1355)" class="st3 st4 st5">4</text>
	<text transform="matrix(1 0 0 1 764.8383 117.7761)" class="st3 st4 st5">0.</text>
	<text transform="matrix(1 0 0 1 772.3383 117.7761)" class="st3 st4 st5">6</text>
	<text transform="matrix(1 0 0 1 764.8383 86.3933)" class="st3 st4 st5">0.</text>
	<text transform="matrix(1 0 0 1 772.3383 86.3933)" class="st3 st4 st5">8</text>
	<text transform="matrix(1 0 0 1 773.0883 55.0183)" class="st3 st4 st5">1</text>
	<text transform="matrix(1 0 0 1 764.8383 23.6433)" class="st3 st4 st5">1.</text>
	<text transform="matrix(1 0 0 1 772.3383 23.6433)" class="st3 st4 st5">2</text>
	<text transform="matrix(0 -1 1 0 758.8383 154.9011)" class="st3 st4 st7">Muscle Reponse</text>
	<path class="st8" d="M937.32,182.62c0-1.66-1.34-3-3-3s-3,1.34-3,3s1.34,3,3,3S937.32,184.27,937.32,182.62L937.32,182.62z
		 M885,190.91c0-1.66-1.34-3-3-3s-3,1.34-3,3s1.34,3,3,3S885,192.57,885,190.91L885,190.91z M922.78,193.24c0-1.66-1.34-3-3-3
		s-3,1.34-3,3s1.34,3,3,3S922.78,194.89,922.78,193.24L922.78,193.24z M886.04,188.95c0-1.66-1.34-3-3-3s-3,1.34-3,3s1.34,3,3,3
		S886.04,190.61,886.04,188.95L886.04,188.95z M920.84,192.06c0-1.66-1.34-3-3-3s-3,1.34-3,3s1.34,3,3,3
		S920.84,193.71,920.84,192.06L920.84,192.06z M894.01,193.51c0-1.66-1.34-3-3-3s-3,1.34-3,3s1.34,3,3,3
		S894.01,195.17,894.01,193.51L894.01,193.51z M879.32,189.66c0-1.66-1.34-3-3-3s-3,1.34-3,3s1.34,3,3,3
		S879.32,191.32,879.32,189.66L879.32,189.66z M893.6,195.48c0-1.66-1.34-3-3-3s-3,1.34-3,3s1.34,3,3,3S893.6,197.14,893.6,195.48
		L893.6,195.48z M912.28,161.48c0-1.66-1.34-3-3-3s-3,1.34-3,3s1.34,3,3,3S912.28,163.14,912.28,161.48L912.28,161.48z
		 M893.91,190.38c0-1.66-1.34-3-3-3s-3,1.34-3,3s1.34,3,3,3S893.91,192.04,893.91,190.38L893.91,190.38z M904.01,189.64
		c0-1.66-1.34-3-3-3s-3,1.34-3,3s1.34,3,3,3S904.01,191.3,904.01,189.64L904.01,189.64z M900.59,188.34c0-1.66-1.34-3-3-3
		s-3,1.34-3,3s1.34,3,3,3S900.59,189.99,900.59,188.34L900.59,188.34z M882.88,190.68c0-1.66-1.34-3-3-3s-3,1.34-3,3s1.34,3,3,3
		S882.88,192.33,882.88,190.68L882.88,190.68z M926.14,177.03c0-1.66-1.34-3-3-3s-3,1.34-3,3s1.34,3,3,3
		S926.14,178.69,926.14,177.03L926.14,177.03z M890.47,178.66c0-1.66-1.34-3-3-3s-3,1.34-3,3s1.34,3,3,3
		S890.47,180.31,890.47,178.66L890.47,178.66z M908.96,186.07c0-1.66-1.34-3-3-3s-3,1.34-3,3s1.34,3,3,3
		S908.96,187.73,908.96,186.07L908.96,186.07z M871.27,173.87c0-1.66-1.34-3-3-3s-3,1.34-3,3s1.34,3,3,3
		S871.27,175.53,871.27,173.87L871.27,173.87z M895.12,169.63c0-1.66-1.34-3-3-3s-3,1.34-3,3s1.34,3,3,3
		S895.12,171.28,895.12,169.63L895.12,169.63z M898.86,193.13c0-1.66-1.34-3-3-3c-1.66,0-3,1.34-3,3s1.34,3,3,3
		C897.52,196.13,898.86,194.78,898.86,193.13L898.86,193.13z M883.32,191.38c0-1.66-1.34-3-3-3s-3,1.34-3,3s1.34,3,3,3
		S883.32,193.04,883.32,191.38L883.32,191.38z M909.75,193.5c0-1.66-1.34-3-3-3s-3,1.34-3,3s1.34,3,3,3S909.75,195.16,909.75,193.5
		L909.75,193.5z M922.86,194.7c0-1.66-1.34-3-3-3s-3,1.34-3,3s1.34,3,3,3S922.86,196.35,922.86,194.7L922.86,194.7z M914.64,185.65
		c0-1.66-1.34-3-3-3s-3,1.34-3,3s1.34,3,3,3S914.64,187.31,914.64,185.65L914.64,185.65z M914.29,180.89c0-1.66-1.34-3-3-3
		s-3,1.34-3,3s1.34,3,3,3S914.29,182.55,914.29,180.89L914.29,180.89z M891.09,195.6c0-1.66-1.34-3-3-3s-3,1.34-3,3s1.34,3,3,3
		S891.09,197.25,891.09,195.6L891.09,195.6z M897.55,196.47c0-1.66-1.34-3-3-3c-1.66,0-3,1.34-3,3s1.34,3,3,3
		C896.21,199.47,897.55,198.13,897.55,196.47L897.55,196.47z M882.47,188.09c0-1.66-1.34-3-3-3s-3,1.34-3,3s1.34,3,3,3
		S882.47,189.74,882.47,188.09L882.47,188.09z M873.72,162c0-1.66-1.34-3-3-3s-3,1.34-3,3s1.34,3,3,3S873.72,163.66,873.72,162
		L873.72,162z M900.03,185.12c0-1.66-1.34-3-3-3s-3,1.34-3,3s1.34,3,3,3S900.03,186.78,900.03,185.12L900.03,185.12z M894.73,189.2
		c0-1.66-1.34-3-3-3s-3,1.34-3,3s1.34,3,3,3S894.73,190.85,894.73,189.2L894.73,189.2z M894.19,197.27c0-1.66-1.34-3-3-3
		s-3,1.34-3,3s1.34,3,3,3S894.19,198.93,894.19,197.27L894.19,197.27z M896.03,192.3c0-1.66-1.34-3-3-3s-3,1.34-3,3s1.34,3,3,3
		S896.03,193.95,896.03,192.3L896.03,192.3z M896.63,198.25c0-1.66-1.34-3-3-3s-3,1.34-3,3s1.34,3,3,3S896.63,199.91,896.63,198.25
		L896.63,198.25z M873.16,187.34c0-1.66-1.34-3-3-3s-3,1.34-3,3s1.34,3,3,3S873.16,189,873.16,187.34L873.16,187.34z M865.92,195.1
		c0-1.66-1.34-3-3-3s-3,1.34-3,3s1.34,3,3,3S865.92,196.75,865.92,195.1L865.92,195.1z M889.79,197.53c0-1.66-1.34-3-3-3
		s-3,1.34-3,3s1.34,3,3,3S889.79,199.19,889.79,197.53L889.79,197.53z M846.58,179.01c0-1.66-1.34-3-3-3s-3,1.34-3,3s1.34,3,3,3
		S846.58,180.67,846.58,179.01L846.58,179.01z M848.16,195.84c0-1.66-1.34-3-3-3s-3,1.34-3,3s1.34,3,3,3S848.16,197.5,848.16,195.84
		L848.16,195.84z M860.28,198.55c0-1.66-1.34-3-3-3s-3,1.34-3,3s1.34,3,3,3S860.28,200.21,860.28,198.55L860.28,198.55z
		 M892.08,190.53c0-1.66-1.34-3-3-3s-3,1.34-3,3s1.34,3,3,3S892.08,192.19,892.08,190.53L892.08,190.53z M868.09,196.13
		c0-1.66-1.34-3-3-3s-3,1.34-3,3s1.34,3,3,3S868.09,197.79,868.09,196.13L868.09,196.13z M883.77,192.06c0-1.66-1.34-3-3-3
		s-3,1.34-3,3s1.34,3,3,3S883.77,193.72,883.77,192.06L883.77,192.06z M891.97,190.21c0-1.66-1.34-3-3-3s-3,1.34-3,3s1.34,3,3,3
		S891.97,191.87,891.97,190.21L891.97,190.21z M870.5,189.51c0-1.66-1.34-3-3-3s-3,1.34-3,3s1.34,3,3,3S870.5,191.17,870.5,189.51
		L870.5,189.51z M862.35,190.81c0-1.66-1.34-3-3-3s-3,1.34-3,3s1.34,3,3,3S862.35,192.46,862.35,190.81L862.35,190.81z
		 M883.61,198.25c0-1.66-1.34-3-3-3s-3,1.34-3,3s1.34,3,3,3S883.61,199.9,883.61,198.25L883.61,198.25z M895.57,193.67
		c0-1.66-1.34-3-3-3s-3,1.34-3,3s1.34,3,3,3S895.57,195.33,895.57,193.67L895.57,193.67z M871.61,199.06c0-1.66-1.34-3-3-3
		s-3,1.34-3,3s1.34,3,3,3S871.61,200.72,871.61,199.06L871.61,199.06z M885.66,193.93c0-1.66-1.34-3-3-3s-3,1.34-3,3s1.34,3,3,3
		S885.66,195.58,885.66,193.93L885.66,193.93z M874.09,198.77c0-1.66-1.34-3-3-3s-3,1.34-3,3s1.34,3,3,3
		S874.09,200.42,874.09,198.77L874.09,198.77z M888.1,175.47c0-1.66-1.34-3-3-3s-3,1.34-3,3s1.34,3,3,3S888.1,177.13,888.1,175.47
		L888.1,175.47z M862.86,196.22c0-1.66-1.34-3-3-3s-3,1.34-3,3s1.34,3,3,3S862.86,197.88,862.86,196.22L862.86,196.22z
		 M890.01,197.15c0-1.66-1.34-3-3-3s-3,1.34-3,3s1.34,3,3,3S890.01,198.81,890.01,197.15L890.01,197.15z M888.59,195.73
		c0-1.66-1.34-3-3-3s-3,1.34-3,3s1.34,3,3,3S888.59,197.38,888.59,195.73L888.59,195.73z M831.15,196.31c0-1.66-1.34-3-3-3
		s-3,1.34-3,3s1.34,3,3,3S831.15,197.97,831.15,196.31L831.15,196.31z M889.51,165.22c0-1.66-1.34-3-3-3s-3,1.34-3,3s1.34,3,3,3
		S889.51,166.87,889.51,165.22L889.51,165.22z M870.3,197.07c0-1.66-1.34-3-3-3s-3,1.34-3,3s1.34,3,3,3S870.3,198.72,870.3,197.07
		L870.3,197.07z M877.74,158.07c0-1.66-1.34-3-3-3s-3,1.34-3,3s1.34,3,3,3S877.74,159.72,877.74,158.07L877.74,158.07z
		 M854.94,191.67c0-1.66-1.34-3-3-3s-3,1.34-3,3s1.34,3,3,3S854.94,193.33,854.94,191.67L854.94,191.67z M866.42,193.44
		c0-1.66-1.34-3-3-3s-3,1.34-3,3s1.34,3,3,3S866.42,195.1,866.42,193.44L866.42,193.44z M875.56,184.46c0-1.66-1.34-3-3-3
		s-3,1.34-3,3s1.34,3,3,3S875.56,186.12,875.56,184.46L875.56,184.46z"/>
	<path class="st9" d="M937.32,118.44c0-1.66-1.34-3-3-3s-3,1.34-3,3s1.34,3,3,3S937.32,120.1,937.32,118.44L937.32,118.44z
		 M885,117.56c0-1.66-1.34-3-3-3s-3,1.34-3,3s1.34,3,3,3S885,119.21,885,117.56L885,117.56z M922.78,53.89c0-1.66-1.34-3-3-3
		s-3,1.34-3,3s1.34,3,3,3S922.78,55.55,922.78,53.89L922.78,53.89z M886.04,108.9c0-1.66-1.34-3-3-3s-3,1.34-3,3s1.34,3,3,3
		S886.04,110.56,886.04,108.9L886.04,108.9z M920.84,94.68c0-1.66-1.34-3-3-3s-3,1.34-3,3s1.34,3,3,3S920.84,96.33,920.84,94.68
		L920.84,94.68z M894.01,104.23c0-1.66-1.34-3-3-3s-3,1.34-3,3s1.34,3,3,3S894.01,105.89,894.01,104.23L894.01,104.23z
		 M879.32,113.14c0-1.66-1.34-3-3-3s-3,1.34-3,3s1.34,3,3,3S879.32,114.8,879.32,113.14L879.32,113.14z M893.6,85.75
		c0-1.66-1.34-3-3-3s-3,1.34-3,3s1.34,3,3,3S893.6,87.41,893.6,85.75L893.6,85.75z M912.28,124.83c0-1.66-1.34-3-3-3s-3,1.34-3,3
		s1.34,3,3,3S912.28,126.49,912.28,124.83L912.28,124.83z M893.91,104.64c0-1.66-1.34-3-3-3s-3,1.34-3,3s1.34,3,3,3
		S893.91,106.3,893.91,104.64L893.91,104.64z M904.01,84.82c0-1.66-1.34-3-3-3s-3,1.34-3,3s1.34,3,3,3S904.01,86.47,904.01,84.82
		L904.01,84.82z M900.59,123.6c0-1.66-1.34-3-3-3s-3,1.34-3,3s1.34,3,3,3S900.59,125.26,900.59,123.6L900.59,123.6z M882.88,62.93
		c0-1.66-1.34-3-3-3s-3,1.34-3,3s1.34,3,3,3S882.88,64.58,882.88,62.93L882.88,62.93z M926.14,131.56c0-1.66-1.34-3-3-3s-3,1.34-3,3
		s1.34,3,3,3S926.14,133.21,926.14,131.56L926.14,131.56z M890.47,120.29c0-1.66-1.34-3-3-3s-3,1.34-3,3s1.34,3,3,3
		S890.47,121.94,890.47,120.29L890.47,120.29z M908.96,72.33c0-1.66-1.34-3-3-3s-3,1.34-3,3s1.34,3,3,3S908.96,73.99,908.96,72.33
		L908.96,72.33z M871.27,101.75c0-1.66-1.34-3-3-3s-3,1.34-3,3s1.34,3,3,3S871.27,103.41,871.27,101.75L871.27,101.75z
		 M895.12,95.43c0-1.66-1.34-3-3-3s-3,1.34-3,3s1.34,3,3,3S895.12,97.09,895.12,95.43L895.12,95.43z M898.86,73.55
		c0-1.66-1.34-3-3-3c-1.66,0-3,1.34-3,3s1.34,3,3,3C897.52,76.55,898.86,75.2,898.86,73.55L898.86,73.55z M883.32,58.81
		c0-1.66-1.34-3-3-3s-3,1.34-3,3s1.34,3,3,3S883.32,60.47,883.32,58.81L883.32,58.81z M909.75,78.54c0-1.66-1.34-3-3-3s-3,1.34-3,3
		s1.34,3,3,3S909.75,80.2,909.75,78.54L909.75,78.54z M922.86,96.39c0-1.66-1.34-3-3-3s-3,1.34-3,3s1.34,3,3,3
		S922.86,98.04,922.86,96.39L922.86,96.39z M914.64,99.04c0-1.66-1.34-3-3-3s-3,1.34-3,3c0,1.66,1.34,3,3,3
		S914.64,100.69,914.64,99.04L914.64,99.04z M914.29,104.55c0-1.66-1.34-3-3-3s-3,1.34-3,3s1.34,3,3,3S914.29,106.21,914.29,104.55
		L914.29,104.55z M891.09,104.15c0-1.66-1.34-3-3-3s-3,1.34-3,3c0,1.66,1.34,3,3,3S891.09,105.8,891.09,104.15L891.09,104.15z
		 M897.55,111.94c0-1.66-1.34-3-3-3c-1.66,0-3,1.34-3,3s1.34,3,3,3C896.21,114.94,897.55,113.6,897.55,111.94L897.55,111.94z
		 M882.47,121.52c0-1.66-1.34-3-3-3s-3,1.34-3,3s1.34,3,3,3S882.47,123.17,882.47,121.52L882.47,121.52z M873.72,149.23
		c0-1.66-1.34-3-3-3s-3,1.34-3,3s1.34,3,3,3S873.72,150.88,873.72,149.23L873.72,149.23z M900.03,123.66c0-1.66-1.34-3-3-3
		s-3,1.34-3,3s1.34,3,3,3S900.03,125.31,900.03,123.66L900.03,123.66z M894.73,106.39c0-1.66-1.34-3-3-3s-3,1.34-3,3s1.34,3,3,3
		S894.73,108.05,894.73,106.39L894.73,106.39z M894.19,114c0-1.66-1.34-3-3-3s-3,1.34-3,3s1.34,3,3,3S894.19,115.65,894.19,114
		L894.19,114z M896.03,95.4c0-1.66-1.34-3-3-3s-3,1.34-3,3s1.34,3,3,3S896.03,97.05,896.03,95.4L896.03,95.4z M896.63,135.51
		c0-1.66-1.34-3-3-3s-3,1.34-3,3s1.34,3,3,3S896.63,137.17,896.63,135.51L896.63,135.51z M873.16,101.26c0-1.66-1.34-3-3-3
		s-3,1.34-3,3c0,1.66,1.34,3,3,3S873.16,102.92,873.16,101.26L873.16,101.26z M865.92,94.39c0-1.66-1.34-3-3-3s-3,1.34-3,3
		s1.34,3,3,3S865.92,96.04,865.92,94.39L865.92,94.39z M889.79,103.8c0-1.66-1.34-3-3-3s-3,1.34-3,3s1.34,3,3,3
		S889.79,105.46,889.79,103.8L889.79,103.8z M846.58,118.11c0-1.66-1.34-3-3-3s-3,1.34-3,3s1.34,3,3,3S846.58,119.76,846.58,118.11
		L846.58,118.11z M848.16,90.4c0-1.66-1.34-3-3-3s-3,1.34-3,3c0,1.66,1.34,3,3,3S848.16,92.05,848.16,90.4L848.16,90.4z
		 M860.28,124.81c0-1.66-1.34-3-3-3s-3,1.34-3,3s1.34,3,3,3S860.28,126.47,860.28,124.81L860.28,124.81z M892.08,77.59
		c0-1.66-1.34-3-3-3s-3,1.34-3,3s1.34,3,3,3S892.08,79.24,892.08,77.59L892.08,77.59z M868.09,114.14c0-1.66-1.34-3-3-3s-3,1.34-3,3
		s1.34,3,3,3S868.09,115.8,868.09,114.14L868.09,114.14z M883.77,118.1c0-1.66-1.34-3-3-3s-3,1.34-3,3s1.34,3,3,3
		S883.77,119.76,883.77,118.1L883.77,118.1z M891.97,121.86c0-1.66-1.34-3-3-3s-3,1.34-3,3s1.34,3,3,3S891.97,123.52,891.97,121.86
		L891.97,121.86z M870.5,60.63c0-1.66-1.34-3-3-3s-3,1.34-3,3s1.34,3,3,3S870.5,62.28,870.5,60.63L870.5,60.63z M862.35,105.68
		c0-1.66-1.34-3-3-3s-3,1.34-3,3s1.34,3,3,3S862.35,107.34,862.35,105.68L862.35,105.68z M883.61,139.36c0-1.66-1.34-3-3-3
		s-3,1.34-3,3s1.34,3,3,3S883.61,141.01,883.61,139.36L883.61,139.36z M895.57,163.01c0-1.66-1.34-3-3-3s-3,1.34-3,3s1.34,3,3,3
		S895.57,164.67,895.57,163.01L895.57,163.01z M871.61,101.31c0-1.66-1.34-3-3-3s-3,1.34-3,3c0,1.66,1.34,3,3,3
		S871.61,102.96,871.61,101.31L871.61,101.31z M885.66,97.89c0-1.66-1.34-3-3-3s-3,1.34-3,3s1.34,3,3,3S885.66,99.55,885.66,97.89
		L885.66,97.89z M874.09,124.95c0-1.66-1.34-3-3-3s-3,1.34-3,3s1.34,3,3,3S874.09,126.61,874.09,124.95L874.09,124.95z
		 M888.1,114.53c0-1.66-1.34-3-3-3s-3,1.34-3,3s1.34,3,3,3S888.1,116.18,888.1,114.53L888.1,114.53z M862.86,116.92
		c0-1.66-1.34-3-3-3s-3,1.34-3,3s1.34,3,3,3S862.86,118.58,862.86,116.92L862.86,116.92z M890.01,103.03c0-1.66-1.34-3-3-3
		s-3,1.34-3,3s1.34,3,3,3S890.01,104.69,890.01,103.03L890.01,103.03z M888.59,94.05c0-1.66-1.34-3-3-3s-3,1.34-3,3s1.34,3,3,3
		S888.59,95.71,888.59,94.05L888.59,94.05z M831.15,77.76c0-1.66-1.34-3-3-3s-3,1.34-3,3s1.34,3,3,3S831.15,79.41,831.15,77.76
		L831.15,77.76z M889.51,100.67c0-1.66-1.34-3-3-3s-3,1.34-3,3s1.34,3,3,3S889.51,102.32,889.51,100.67L889.51,100.67z M870.3,116.6
		c0-1.66-1.34-3-3-3s-3,1.34-3,3s1.34,3,3,3S870.3,118.26,870.3,116.6L870.3,116.6z M877.74,130.73c0-1.66-1.34-3-3-3s-3,1.34-3,3
		s1.34,3,3,3S877.74,132.39,877.74,130.73L877.74,130.73z M854.94,106.58c0-1.66-1.34-3-3-3s-3,1.34-3,3s1.34,3,3,3
		S854.94,108.24,854.94,106.58L854.94,106.58z M866.42,107.03c0-1.66-1.34-3-3-3s-3,1.34-3,3s1.34,3,3,3
		S866.42,108.68,866.42,107.03L866.42,107.03z M875.56,61.62c0-1.66-1.34-3-3-3s-3,1.34-3,3s1.34,3,3,3S875.56,63.28,875.56,61.62
		L875.56,61.62z"/>
	<path class="st10" d="M848.68,190.2c0-1.66-1.34-3-3-3s-3,1.34-3,3s1.34,3,3,3S848.68,191.86,848.68,190.2L848.68,190.2z"/>
	<path class="st11" d="M848.68,190.2c0-1.66-1.34-3-3-3s-3,1.34-3,3s1.34,3,3,3S848.68,191.86,848.68,190.2L848.68,190.2z"/>
	<path class="st12" d="M848.68,82.04c0-1.66-1.34-3-3-3s-3,1.34-3,3s1.34,3,3,3S848.68,83.7,848.68,82.04L848.68,82.04z"/>
	<path class="st13" d="M848.68,82.04c0-1.66-1.34-3-3-3s-3,1.34-3,3s1.34,3,3,3S848.68,83.7,848.68,82.04L848.68,82.04z"/>
	<path class="st10" d="M890.43,189.65c0-1.66-1.34-3-3-3s-3,1.34-3,3s1.34,3,3,3S890.43,191.3,890.43,189.65L890.43,189.65z"/>
	<path class="st11" d="M890.43,189.65c0-1.66-1.34-3-3-3s-3,1.34-3,3s1.34,3,3,3S890.43,191.3,890.43,189.65L890.43,189.65z"/>
	<path class="st12" d="M890.43,86.26c0-1.66-1.34-3-3-3s-3,1.34-3,3s1.34,3,3,3S890.43,87.92,890.43,86.26L890.43,86.26z"/>
	<path class="st13" d="M890.43,86.26c0-1.66-1.34-3-3-3s-3,1.34-3,3s1.34,3,3,3S890.43,87.92,890.43,86.26L890.43,86.26z"/>
	<path class="st10" d="M941.73,192.59c0-1.66-1.34-3-3-3s-3,1.34-3,3s1.34,3,3,3S941.73,194.25,941.73,192.59L941.73,192.59z"/>
	<path class="st11" d="M941.73,192.59c0-1.66-1.34-3-3-3s-3,1.34-3,3s1.34,3,3,3S941.73,194.25,941.73,192.59L941.73,192.59z"/>
	<path class="st12" d="M941.73,38.87c0-1.66-1.34-3-3-3s-3,1.34-3,3s1.34,3,3,3S941.73,40.53,941.73,38.87L941.73,38.87z"/>
	<path class="st13" d="M941.73,38.87c0-1.66-1.34-3-3-3s-3,1.34-3,3s1.34,3,3,3S941.73,40.53,941.73,38.87L941.73,38.87z"/>
	<path class="st12" d="M914.79,68.87c0-1.66-1.34-3-3-3s-3,1.34-3,3s1.34,3,3,3S914.79,70.53,914.79,68.87L914.79,68.87z"/>
	<path class="st13" d="M914.79,68.87c0-1.66-1.34-3-3-3s-3,1.34-3,3s1.34,3,3,3S914.79,70.53,914.79,68.87L914.79,68.87z"/>
	<path class="st10" d="M901.2,189.18c0-1.66-1.34-3-3-3s-3,1.34-3,3s1.34,3,3,3S901.2,190.83,901.2,189.18L901.2,189.18z"/>
	<path class="st11" d="M901.2,189.18c0-1.66-1.34-3-3-3s-3,1.34-3,3s1.34,3,3,3S901.2,190.83,901.2,189.18L901.2,189.18z"/>
	<path class="st12" d="M901.2,86.33c0-1.66-1.34-3-3-3s-3,1.34-3,3s1.34,3,3,3S901.2,87.99,901.2,86.33L901.2,86.33z"/>
	<path class="st13" d="M901.2,86.33c0-1.66-1.34-3-3-3s-3,1.34-3,3s1.34,3,3,3S901.2,87.99,901.2,86.33L901.2,86.33z"/>
	<path class="st10" d="M948.88,191.75c0-1.66-1.34-3-3-3s-3,1.34-3,3s1.34,3,3,3S948.88,193.41,948.88,191.75L948.88,191.75z"/>
	<path class="st11" d="M948.88,191.75c0-1.66-1.34-3-3-3s-3,1.34-3,3s1.34,3,3,3S948.88,193.41,948.88,191.75L948.88,191.75z"/>
	<path class="st12" d="M948.88,26.14c0-1.66-1.34-3-3-3s-3,1.34-3,3s1.34,3,3,3S948.88,27.8,948.88,26.14L948.88,26.14z"/>
	<path class="st13" d="M948.88,26.14c0-1.66-1.34-3-3-3s-3,1.34-3,3s1.34,3,3,3S948.88,27.8,948.88,26.14L948.88,26.14z"/>
	<path class="st10" d="M904.03,192.6c0-1.66-1.34-3-3-3s-3,1.34-3,3s1.34,3,3,3S904.03,194.26,904.03,192.6L904.03,192.6z"/>
	<path class="st11" d="M904.03,192.6c0-1.66-1.34-3-3-3s-3,1.34-3,3s1.34,3,3,3S904.03,194.26,904.03,192.6L904.03,192.6z"/>
	<path class="st12" d="M904.03,46.97c0-1.66-1.34-3-3-3s-3,1.34-3,3s1.34,3,3,3S904.03,48.63,904.03,46.97L904.03,46.97z"/>
	<path class="st13" d="M904.03,46.97c0-1.66-1.34-3-3-3s-3,1.34-3,3s1.34,3,3,3S904.03,48.63,904.03,46.97L904.03,46.97z"/>
	<path class="st10" d="M887.04,187.68c0-1.66-1.34-3-3-3s-3,1.34-3,3s1.34,3,3,3S887.04,189.33,887.04,187.68L887.04,187.68z"/>
	<path class="st11" d="M887.04,187.68c0-1.66-1.34-3-3-3s-3,1.34-3,3s1.34,3,3,3S887.04,189.33,887.04,187.68L887.04,187.68z"/>
	<path class="st12" d="M887.04,68.91c0-1.66-1.34-3-3-3s-3,1.34-3,3s1.34,3,3,3S887.04,70.57,887.04,68.91L887.04,68.91z"/>
	<path class="st13" d="M887.04,68.91c0-1.66-1.34-3-3-3s-3,1.34-3,3s1.34,3,3,3S887.04,70.57,887.04,68.91L887.04,68.91z"/>
	<path class="st10" d="M888.81,191.97c0-1.66-1.34-3-3-3s-3,1.34-3,3s1.34,3,3,3S888.81,193.63,888.81,191.97L888.81,191.97z"/>
	<path class="st11" d="M888.81,191.97c0-1.66-1.34-3-3-3s-3,1.34-3,3s1.34,3,3,3S888.81,193.63,888.81,191.97L888.81,191.97z"/>
	<path class="st12" d="M888.81,37.18c0-1.66-1.34-3-3-3s-3,1.34-3,3s1.34,3,3,3S888.81,38.84,888.81,37.18L888.81,37.18z"/>
	<path class="st13" d="M888.81,37.18c0-1.66-1.34-3-3-3s-3,1.34-3,3s1.34,3,3,3S888.81,38.84,888.81,37.18L888.81,37.18z"/>
	<path class="st10" d="M844.51,157.4c0-1.66-1.34-3-3-3s-3,1.34-3,3s1.34,3,3,3S844.51,159.05,844.51,157.4L844.51,157.4z"/>
	<path class="st11" d="M844.51,157.4c0-1.66-1.34-3-3-3s-3,1.34-3,3s1.34,3,3,3S844.51,159.05,844.51,157.4L844.51,157.4z"/>
	<path class="st12" d="M844.51,123.36c0-1.66-1.34-3-3-3s-3,1.34-3,3s1.34,3,3,3S844.51,125.01,844.51,123.36L844.51,123.36z"/>
	<path class="st13" d="M844.51,123.36c0-1.66-1.34-3-3-3s-3,1.34-3,3s1.34,3,3,3S844.51,125.01,844.51,123.36L844.51,123.36z"/>
	<path class="st10" d="M796.94,151.96c0-1.66-1.34-3-3-3s-3,1.34-3,3s1.34,3,3,3S796.94,153.62,796.94,151.96L796.94,151.96z"/>
	<path class="st11" d="M796.94,151.96c0-1.66-1.34-3-3-3s-3,1.34-3,3s1.34,3,3,3S796.94,153.62,796.94,151.96L796.94,151.96z"/>
	<path class="st12" d="M796.94,166.45c0-1.66-1.34-3-3-3s-3,1.34-3,3s1.34,3,3,3S796.94,168.11,796.94,166.45L796.94,166.45z"/>
	<path class="st13" d="M796.94,166.45c0-1.66-1.34-3-3-3s-3,1.34-3,3s1.34,3,3,3S796.94,168.11,796.94,166.45L796.94,166.45z"/>
	<path class="st10" d="M845.33,155.62c0-1.66-1.34-3-3-3s-3,1.34-3,3s1.34,3,3,3S845.33,157.28,845.33,155.62L845.33,155.62z"/>
	<path class="st11" d="M845.33,155.62c0-1.66-1.34-3-3-3s-3,1.34-3,3s1.34,3,3,3S845.33,157.28,845.33,155.62L845.33,155.62z"/>
	<path class="st12" d="M845.33,121.56c0-1.66-1.34-3-3-3s-3,1.34-3,3s1.34,3,3,3S845.33,123.22,845.33,121.56L845.33,121.56z"/>
	<path class="st13" d="M845.33,121.56c0-1.66-1.34-3-3-3s-3,1.34-3,3s1.34,3,3,3S845.33,123.22,845.33,121.56L845.33,121.56z"/>
	<path class="st10" d="M819.2,124.34c0-1.66-1.34-3-3-3s-3,1.34-3,3s1.34,3,3,3S819.2,125.99,819.2,124.34L819.2,124.34z"/>
	<path class="st11" d="M819.2,124.34c0-1.66-1.34-3-3-3s-3,1.34-3,3s1.34,3,3,3S819.2,125.99,819.2,124.34L819.2,124.34z"/>
	<path class="st12" d="M819.2,142.69c0-1.66-1.34-3-3-3s-3,1.34-3,3s1.34,3,3,3S819.2,144.35,819.2,142.69L819.2,142.69z"/>
	<path class="st13" d="M819.2,142.69c0-1.66-1.34-3-3-3s-3,1.34-3,3s1.34,3,3,3S819.2,144.35,819.2,142.69L819.2,142.69z"/>
	<path class="st10" d="M859.16,159.7c0-1.66-1.34-3-3-3s-3,1.34-3,3s1.34,3,3,3S859.16,161.36,859.16,159.7L859.16,159.7z"/>
	<path class="st11" d="M859.16,159.7c0-1.66-1.34-3-3-3s-3,1.34-3,3s1.34,3,3,3S859.16,161.36,859.16,159.7L859.16,159.7z"/>
	<path class="st12" d="M859.16,122.97c0-1.66-1.34-3-3-3s-3,1.34-3,3s1.34,3,3,3S859.16,124.63,859.16,122.97L859.16,122.97z"/>
	<path class="st13" d="M859.16,122.97c0-1.66-1.34-3-3-3s-3,1.34-3,3s1.34,3,3,3S859.16,124.63,859.16,122.97L859.16,122.97z"/>
	<path class="st10" d="M860.65,106.43c0-1.66-1.34-3-3-3s-3,1.34-3,3s1.34,3,3,3S860.65,108.09,860.65,106.43L860.65,106.43z"/>
	<path class="st11" d="M860.65,106.43c0-1.66-1.34-3-3-3s-3,1.34-3,3s1.34,3,3,3S860.65,108.09,860.65,106.43L860.65,106.43z"/>
	<path class="st12" d="M860.65,176.05c0-1.66-1.34-3-3-3s-3,1.34-3,3s1.34,3,3,3S860.65,177.7,860.65,176.05L860.65,176.05z"/>
	<path class="st13" d="M860.65,176.05c0-1.66-1.34-3-3-3s-3,1.34-3,3s1.34,3,3,3S860.65,177.7,860.65,176.05L860.65,176.05z"/>
	<path class="st10" d="M803.61,49.83c0-1.66-1.34-3-3-3s-3,1.34-3,3s1.34,3,3,3S803.61,51.49,803.61,49.83L803.61,49.83z"/>
	<path class="st11" d="M803.61,49.83c0-1.66-1.34-3-3-3s-3,1.34-3,3s1.34,3,3,3S803.61,51.49,803.61,49.83L803.61,49.83z"/>
	<path class="st12" d="M803.61,129.24c0-1.66-1.34-3-3-3s-3,1.34-3,3s1.34,3,3,3S803.61,130.9,803.61,129.24L803.61,129.24z"/>
	<path class="st13" d="M803.61,129.24c0-1.66-1.34-3-3-3s-3,1.34-3,3s1.34,3,3,3S803.61,130.9,803.61,129.24L803.61,129.24z"/>
	<path class="st10" d="M813.43,55.41c0-1.66-1.34-3-3-3s-3,1.34-3,3s1.34,3,3,3S813.43,57.07,813.43,55.41L813.43,55.41z"/>
	<path class="st11" d="M813.43,55.41c0-1.66-1.34-3-3-3s-3,1.34-3,3s1.34,3,3,3S813.43,57.07,813.43,55.41L813.43,55.41z"/>
	<path class="st12" d="M813.43,162.93c0-1.66-1.34-3-3-3s-3,1.34-3,3s1.34,3,3,3S813.43,164.59,813.43,162.93L813.43,162.93z"/>
	<path class="st13" d="M813.43,162.93c0-1.66-1.34-3-3-3s-3,1.34-3,3s1.34,3,3,3S813.43,164.59,813.43,162.93L813.43,162.93z"/>
	<path class="st10" d="M838.49,106.29c0-1.66-1.34-3-3-3s-3,1.34-3,3s1.34,3,3,3S838.49,107.94,838.49,106.29L838.49,106.29z"/>
	<path class="st11" d="M838.49,106.29c0-1.66-1.34-3-3-3s-3,1.34-3,3s1.34,3,3,3S838.49,107.94,838.49,106.29L838.49,106.29z"/>
	<path class="st12" d="M838.49,167.44c0-1.66-1.34-3-3-3s-3,1.34-3,3s1.34,3,3,3S838.49,169.1,838.49,167.44L838.49,167.44z"/>
	<path class="st13" d="M838.49,167.44c0-1.66-1.34-3-3-3s-3,1.34-3,3s1.34,3,3,3S838.49,169.1,838.49,167.44L838.49,167.44z"/>
</g>
</svg>
