<?xml version="1.0" encoding="utf-8"?>
<!-- Generator: Adobe Illustrator 23.0.2, SVG Export Plug-In . SVG Version: 6.00 Build 0)  -->
<svg version="1.1" id="Layer_1" xmlns="http://www.w3.org/2000/svg" xmlns:xlink="http://www.w3.org/1999/xlink" x="0px" y="0px"
	 viewBox="0 0 595.28 841.89" style="enable-background:new 0 0 595.28 841.89;" xml:space="preserve">
<style type="text/css">
	.st0{fill:none;stroke:#262626;stroke-width:0.5002;stroke-linecap:square;stroke-linejoin:round;stroke-miterlimit:10;}
	.st1{fill:#4D4D4F;}
	.st2{font-family:'MyriadPro-Regular';}
	.st3{font-size:3.5888px;}
	.st4{letter-spacing:21;}
	.st5{letter-spacing:22;}
	.st6{fill:#262626;}
	.st7{fill:none;stroke:#5590CC;stroke-width:0.75;stroke-miterlimit:10;}
	.st8{fill:none;stroke:#8AC652;stroke-width:0.75;stroke-miterlimit:10;}
	.st9{fill:#344DA1;}
	.st10{fill:none;stroke:#344DA1;stroke-width:0.75;stroke-miterlimit:10;}
	.st11{fill:#109A48;}
	.st12{fill:none;stroke:#109A48;stroke-width:0.75;stroke-miterlimit:10;}
	.st13{font-size:7px;}
	.st14{font-size:6px;}
	.st15{fill:none;stroke:#000000;stroke-width:0.25;stroke-miterlimit:10;}
	.st16{stroke:#000000;stroke-miterlimit:10;}
	.st17{fill:none;stroke:#2E3192;stroke-miterlimit:10;}
	.st18{fill:none;stroke:#00A651;stroke-miterlimit:10;}
	.st19{fill:none;}
	.st20{letter-spacing:34;}
	.st21{font-size:12px;}
</style>
<g>
	<defs>
		<rect id="SVGID_1_" x="19.27" y="58.56" width="197.57" height="126.78"/>
	</defs>
	<clipPath id="SVGID_2_">
		<use xlink:href="#SVGID_1_"  style="overflow:visible;"/>
	</clipPath>
</g>
<path class="st0" d="M44.84,171.34h153.15 M44.84,171.34v-1.53 M70.36,171.34v-1.53 M95.89,171.34v-1.53 M121.41,171.34v-1.53
	 M146.94,171.34v-1.53 M172.47,171.34v-1.53 M197.99,171.34v-1.53"/>
<text transform="matrix(1 0 0 1 42.2806 176.5407)" class="st1 st2 st3">0.</text>
<text transform="matrix(1 0 0 1 44.9725 176.5407)" class="st1 st2 st3 st4">70</text>
<text transform="matrix(1 0 0 1 69.6009 176.5407)" class="st1 st2 st3">.8</text>
<text transform="matrix(1 0 0 1 93.3324 176.5407)" class="st1 st2 st3">0.</text>
<text transform="matrix(1 0 0 1 96.0238 176.5407)" class="st1 st2 st3 st5">91</text>
<text transform="matrix(1 0 0 1 144.3841 176.5407)" class="st1 st2 st3">1.</text>
<text transform="matrix(1 0 0 1 147.0755 176.5407)" class="st1 st2 st3 st4">11</text>
<text transform="matrix(1 0 0 1 171.7044 176.5407)" class="st1 st2 st3">.2</text>
<text transform="matrix(1 0 0 1 195.4359 176.5407)" class="st1 st2 st3">1.</text>
<text transform="matrix(1 0 0 1 198.1273 176.5407)" class="st1 st2 st3">3</text>
<path class="st6" d="M121.21,177.87c0-0.06,0.02-0.11,0.07-0.16c0.04-0.04,0.1-0.07,0.16-0.07c0.04,0,0.07,0.01,0.11,0.03
	c0.03,0.02,0.06,0.05,0.08,0.08c0.02,0.03,0.03,0.07,0.03,0.11c0,0.06-0.02,0.11-0.07,0.15s-0.09,0.07-0.15,0.07
	c-0.06,0-0.11-0.02-0.16-0.07S121.21,177.92,121.21,177.87L121.21,177.87z"/>
<path class="st6" d="M116.09,180.47c0,0.16,0.03,0.3,0.09,0.42c0.06,0.12,0.15,0.22,0.27,0.29s0.26,0.1,0.42,0.1
	c0.17,0,0.34-0.04,0.49-0.13c0.16-0.09,0.29-0.2,0.4-0.35c0.11-0.14,0.19-0.3,0.23-0.46c0.01-0.02,0.02-0.03,0.03-0.03h0.05
	c0.01,0,0.02,0,0.02,0.01c0.01,0.01,0.01,0.02,0.01,0.03c0,0,0,0,0,0.01c-0.04,0.19-0.13,0.36-0.26,0.53
	c-0.13,0.16-0.29,0.29-0.48,0.39c-0.19,0.1-0.37,0.14-0.57,0.14c-0.21,0-0.4-0.05-0.57-0.14c-0.17-0.09-0.3-0.22-0.39-0.39
	c-0.09-0.17-0.14-0.36-0.14-0.57c0-0.23,0.05-0.45,0.15-0.67c0.1-0.22,0.24-0.42,0.41-0.59c0.17-0.17,0.37-0.31,0.58-0.41
	c0.22-0.1,0.44-0.15,0.66-0.15c0.09,0,0.18,0.01,0.26,0.04c0.08,0.03,0.16,0.07,0.23,0.12c0.07,0.06,0.13,0.12,0.17,0.19l0.32-0.34
	c0-0.01,0.01-0.01,0.02-0.01h0.03c0.01,0,0.02,0,0.03,0.01c0.01,0.01,0.01,0.02,0.01,0.03l-0.27,1.09c0,0.02-0.01,0.03-0.03,0.03
	h-0.08c-0.02,0-0.03-0.02-0.03-0.05c0.01-0.06,0.02-0.13,0.02-0.21c0-0.13-0.02-0.26-0.07-0.37c-0.04-0.12-0.11-0.21-0.21-0.28
	c-0.09-0.07-0.21-0.1-0.35-0.1c-0.22,0-0.42,0.06-0.6,0.17c-0.18,0.11-0.34,0.26-0.46,0.44c-0.13,0.18-0.23,0.38-0.29,0.6
	C116.12,180.05,116.09,180.27,116.09,180.47L116.09,180.47z"/>
<path class="st6" d="M119.83,181.43c-0.2,0-0.38-0.05-0.54-0.14c-0.16-0.09-0.28-0.22-0.36-0.39c-0.08-0.17-0.13-0.35-0.13-0.55
	c0-0.29,0.08-0.59,0.25-0.88c0.17-0.29,0.38-0.53,0.66-0.71c0.27-0.18,0.56-0.28,0.85-0.28c0.15,0,0.3,0.03,0.42,0.08
	c0.13,0.05,0.24,0.13,0.32,0.23c0.09,0.1,0.16,0.21,0.2,0.34c0.05,0.13,0.07,0.27,0.07,0.43c0,0.22-0.05,0.45-0.14,0.67
	c-0.09,0.22-0.22,0.42-0.39,0.6c-0.17,0.18-0.36,0.32-0.57,0.43C120.28,181.38,120.06,181.43,119.83,181.43L119.83,181.43z
	 M119.86,181.31c0.19,0,0.37-0.06,0.54-0.19c0.17-0.12,0.31-0.28,0.44-0.48c0.12-0.2,0.21-0.4,0.28-0.62
	c0.06-0.22,0.09-0.42,0.09-0.61c0-0.15-0.03-0.28-0.08-0.4c-0.05-0.12-0.13-0.22-0.23-0.29c-0.1-0.07-0.23-0.11-0.37-0.11
	c-0.14,0-0.28,0.03-0.41,0.1s-0.25,0.16-0.36,0.27c-0.11,0.11-0.21,0.26-0.3,0.43c-0.09,0.17-0.15,0.35-0.2,0.53
	c-0.04,0.18-0.07,0.36-0.07,0.53c0,0.23,0.06,0.42,0.17,0.59C119.48,181.23,119.64,181.31,119.86,181.31L119.86,181.31z"/>
<path class="st6" d="M121.93,181.34c-0.03,0-0.04-0.02-0.04-0.05c0-0.01,0.01-0.02,0.01-0.03c0-0.02,0.01-0.03,0.01-0.04
	c0.01-0.01,0.02-0.02,0.03-0.02c0.26,0,0.4-0.08,0.45-0.24l0.53-2.11c0.01-0.03,0.01-0.05,0.01-0.06c0-0.03-0.02-0.04-0.05-0.05
	c-0.05-0.01-0.15-0.02-0.29-0.02c-0.03,0-0.04-0.02-0.04-0.05c0-0.01,0-0.02,0.01-0.03c0-0.02,0.01-0.03,0.02-0.04
	c0.01-0.01,0.02-0.01,0.03-0.01h0.71c0.03,0,0.05,0.02,0.05,0.05l0.32,2.31l1.47-2.31c0.02-0.03,0.05-0.05,0.08-0.05h0.69
	c0.03,0,0.04,0.02,0.04,0.05c0,0.01,0,0.02-0.01,0.03c0,0.02-0.01,0.03-0.02,0.04c-0.01,0.01-0.02,0.01-0.03,0.01
	c-0.17,0-0.28,0.01-0.34,0.03c-0.03,0.01-0.06,0.05-0.08,0.11l-0.56,2.22c-0.01,0.03-0.01,0.04-0.01,0.05c0,0.01,0,0.02,0.01,0.03
	c0,0.01,0.01,0.01,0.01,0.01c0.01,0,0.02,0,0.03,0c0.05,0.01,0.15,0.02,0.29,0.02c0.03,0,0.04,0.02,0.04,0.05
	c-0.01,0.04-0.02,0.06-0.02,0.07c-0.01,0.01-0.02,0.02-0.04,0.02h-1.06c-0.03,0-0.04-0.02-0.04-0.05c0-0.01,0.01-0.02,0.01-0.03
	c0-0.02,0.01-0.03,0.02-0.04c0.01-0.01,0.02-0.01,0.03-0.01c0.16,0,0.28-0.01,0.34-0.03c0.04-0.01,0.06-0.05,0.08-0.11l0.58-2.34
	l-1.63,2.57c-0.02,0.03-0.04,0.05-0.08,0.05c-0.03,0-0.05-0.02-0.06-0.05l-0.34-2.54l-0.56,2.22c0,0.01,0,0.01-0.01,0.02
	c0,0.01,0,0.02-0.01,0.04c0,0.07,0.03,0.12,0.09,0.14c0.06,0.02,0.14,0.03,0.22,0.03c0.03,0,0.04,0.02,0.04,0.05
	c-0.01,0.04-0.02,0.06-0.02,0.07c-0.01,0.01-0.02,0.02-0.04,0.02H121.93L121.93,181.34z"/>
<path class="st6" d="M125.76,181.86c0.03,0.02,0.08,0.03,0.13,0.03c0.06,0,0.11-0.03,0.15-0.08c0.04-0.05,0.07-0.11,0.09-0.18
	l0.12-0.48c0.02-0.09,0.03-0.15,0.03-0.18c0-0.04-0.01-0.08-0.04-0.12c-0.03-0.03-0.06-0.05-0.1-0.05c-0.06,0-0.11,0.02-0.16,0.05
	c-0.05,0.03-0.09,0.08-0.13,0.13c-0.03,0.05-0.06,0.11-0.07,0.17c0,0.01-0.01,0.02-0.02,0.02h-0.03c-0.01,0-0.02-0.01-0.02-0.03
	v-0.01c0.02-0.06,0.05-0.13,0.09-0.19c0.04-0.06,0.09-0.12,0.16-0.16c0.06-0.04,0.13-0.06,0.2-0.06c0.06,0,0.12,0.02,0.18,0.05
	c0.05,0.03,0.09,0.08,0.11,0.15c0.03-0.06,0.07-0.1,0.12-0.14c0.05-0.04,0.1-0.06,0.16-0.06c0.04,0,0.08,0.01,0.12,0.02
	c0.04,0.01,0.07,0.03,0.1,0.06c0.03,0.03,0.04,0.06,0.04,0.11c0,0.04-0.01,0.08-0.04,0.12c-0.03,0.03-0.07,0.05-0.12,0.05
	c-0.03,0-0.05-0.01-0.07-0.03c-0.02-0.02-0.03-0.04-0.03-0.07c0-0.04,0.01-0.07,0.04-0.1c0.03-0.03,0.06-0.05,0.09-0.05
	c-0.03-0.03-0.08-0.04-0.13-0.04c-0.06,0-0.11,0.03-0.15,0.08c-0.04,0.05-0.07,0.11-0.09,0.18l-0.12,0.48
	c-0.02,0.07-0.03,0.13-0.03,0.18c0,0.04,0.01,0.08,0.04,0.12c0.03,0.03,0.06,0.05,0.1,0.05c0.08,0,0.16-0.04,0.23-0.11
	s0.11-0.15,0.13-0.24c0-0.01,0.01-0.02,0.02-0.02h0.03c0.01,0,0.01,0,0.01,0.01c0,0.01,0.01,0.01,0.01,0.02c0,0,0,0,0,0.01
	c-0.03,0.11-0.08,0.2-0.16,0.28c-0.08,0.08-0.17,0.12-0.28,0.12c-0.06,0-0.12-0.02-0.18-0.05c-0.05-0.04-0.09-0.08-0.11-0.15
	c-0.03,0.05-0.07,0.1-0.12,0.14c-0.05,0.04-0.1,0.06-0.16,0.06c-0.04,0-0.08-0.01-0.12-0.02c-0.04-0.01-0.07-0.04-0.1-0.06
	c-0.03-0.03-0.04-0.06-0.04-0.11s0.01-0.08,0.04-0.12c0.03-0.03,0.07-0.05,0.11-0.05c0.03,0,0.06,0.01,0.08,0.03
	c0.02,0.02,0.03,0.04,0.03,0.07c0,0.04-0.01,0.07-0.04,0.1C125.83,181.83,125.8,181.85,125.76,181.86L125.76,181.86z"/>
<path class="st0" d="M44.84,171.34V67.98 M44.84,171.34h1.53 M44.84,154.11h1.53 M44.84,136.88h1.53 M44.84,119.66h1.53
	 M44.84,102.43h1.53 M44.84,85.2h1.53 M44.84,67.98h1.53"/>
<text transform="matrix(1 0 0 1 41.2489 172.82)" class="st1 st2 st3">0</text>
<text transform="matrix(1 0 0 1 38.2884 155.588)" class="st1 st2 st3">0.</text>
<text transform="matrix(1 0 0 1 40.9798 155.588)" class="st1 st2 st3">2</text>
<text transform="matrix(1 0 0 1 38.2884 138.3639)" class="st1 st2 st3">0.</text>
<text transform="matrix(1 0 0 1 40.9798 138.3639)" class="st1 st2 st3">4</text>
<text transform="matrix(1 0 0 1 38.2884 121.1374)" class="st1 st2 st3">0.</text>
<text transform="matrix(1 0 0 1 40.9798 121.1374)" class="st1 st2 st3">6</text>
<text transform="matrix(1 0 0 1 38.2884 103.9108)" class="st1 st2 st3">0.</text>
<text transform="matrix(1 0 0 1 40.9798 103.9108)" class="st1 st2 st3">8</text>
<text transform="matrix(1 0 0 1 41.2489 86.6872)" class="st1 st2 st3">1</text>
<text transform="matrix(1 0 0 1 38.2884 69.4552)" class="st1 st2 st3">1.</text>
<text transform="matrix(1 0 0 1 40.9798 69.4552)" class="st1 st2 st3">2</text>
<path class="st6" d="M35.79,124.23h-0.14c0-0.27-0.04-0.41-0.13-0.41H33.3c-0.08,0-0.13,0.14-0.13,0.41h-0.14v-2.28l0.93-0.11v0.12
	c-0.23,0.03-0.4,0.07-0.51,0.12c-0.11,0.05-0.18,0.13-0.22,0.25c-0.04,0.11-0.06,0.29-0.06,0.52v0.4c0,0.05,0,0.09,0.01,0.12
	c0,0.03,0.02,0.05,0.03,0.07c0.02,0.02,0.05,0.03,0.09,0.03h0.99v-0.3c0-0.14-0.01-0.24-0.04-0.31s-0.07-0.11-0.13-0.14
	c-0.06-0.03-0.17-0.04-0.3-0.04v-0.12h1.09v0.12c-0.14,0-0.24,0.01-0.3,0.04c-0.07,0.03-0.11,0.07-0.13,0.14
	c-0.02,0.07-0.03,0.17-0.03,0.31v0.3h1.09c0.06,0,0.09-0.02,0.11-0.05c0.01-0.03,0.02-0.08,0.02-0.16v-0.42
	c0-0.19-0.01-0.34-0.04-0.45c-0.03-0.12-0.08-0.2-0.15-0.27c-0.07-0.06-0.16-0.11-0.27-0.15c-0.11-0.03-0.26-0.07-0.46-0.1v-0.12
	l1.06,0.17V124.23L35.79,124.23z"/>
<path class="st6" d="M35.79,121.53h-0.14c0-0.28-0.08-0.42-0.24-0.42H33.3c-0.08,0-0.13,0.14-0.13,0.42h-0.14v-0.76
	c0-0.03,0.02-0.06,0.05-0.07l2.28-0.88l-2.28-0.88c-0.03-0.01-0.05-0.03-0.05-0.06v-0.77h0.14c0,0.28,0.04,0.42,0.13,0.42h2.22
	c0.08,0,0.13-0.14,0.13-0.42h0.14v1.18h-0.14c0-0.28-0.04-0.42-0.13-0.42h-2.35l2.57,0.99c0.03,0.01,0.05,0.03,0.05,0.07
	c0,0.03-0.02,0.06-0.05,0.07l-2.54,0.98h2.21c0.16,0,0.24-0.14,0.24-0.42h0.14V121.53L35.79,121.53z"/>
<path class="st6" d="M35.36,117.12c0.12-0.1,0.21-0.21,0.28-0.35c0.07-0.14,0.1-0.29,0.1-0.44c0-0.15-0.04-0.28-0.11-0.41
	c-0.08-0.12-0.18-0.18-0.32-0.18h-0.34c-0.08,0-0.13,0.17-0.13,0.5h-0.14v-1.16h0.14c0,0.08,0.01,0.15,0.02,0.2
	c0.01,0.05,0.05,0.08,0.1,0.08h0.8c0.01,0,0.02,0,0.02,0.01c0.01,0.01,0.01,0.01,0.01,0.02c0,0.03-0.03,0.07-0.09,0.13
	c-0.06,0.06-0.11,0.11-0.16,0.14c0.12,0.06,0.2,0.17,0.25,0.31c0.05,0.14,0.08,0.29,0.08,0.44c0,0.26-0.07,0.5-0.2,0.72
	c-0.13,0.21-0.31,0.38-0.54,0.51c-0.23,0.12-0.47,0.19-0.73,0.19c-0.19,0-0.38-0.04-0.56-0.11c-0.18-0.07-0.34-0.17-0.48-0.3
	c-0.14-0.13-0.24-0.28-0.32-0.45c-0.08-0.17-0.12-0.36-0.12-0.55c0-0.14,0.03-0.27,0.09-0.39c0.06-0.12,0.15-0.24,0.25-0.33
	l-0.33-0.23c-0.01-0.02-0.01-0.03-0.01-0.03v-0.03c0-0.01,0-0.02,0.01-0.02c0.01-0.01,0.01-0.01,0.02-0.01h1.09
	c0.03,0,0.04,0.01,0.04,0.03v0.07c0,0.03-0.01,0.04-0.04,0.04c-0.08,0-0.16,0.02-0.26,0.05c-0.1,0.03-0.19,0.07-0.27,0.12
	c-0.09,0.05-0.16,0.1-0.23,0.17c-0.15,0.15-0.22,0.33-0.22,0.52c0,0.15,0.03,0.29,0.1,0.43c0.07,0.14,0.16,0.25,0.28,0.34
	c0.13,0.1,0.27,0.17,0.43,0.2c0.16,0.04,0.33,0.06,0.52,0.06C34.82,117.39,35.14,117.3,35.36,117.12L35.36,117.12z"/>
<path class="st7" d="M116.95,157.53c0-0.59-0.48-1.08-1.08-1.08s-1.08,0.48-1.08,1.08c0,0.59,0.48,1.08,1.08,1.08
	S116.95,158.12,116.95,157.53L116.95,157.53z M155.12,162.08c0-0.59-0.48-1.08-1.08-1.08s-1.08,0.48-1.08,1.08
	c0,0.59,0.48,1.08,1.08,1.08S155.12,162.68,155.12,162.08L155.12,162.08z M144.99,163.36c0-0.59-0.48-1.08-1.08-1.08
	s-1.08,0.48-1.08,1.08c0,0.59,0.48,1.08,1.08,1.08S144.99,163.95,144.99,163.36L144.99,163.36z M115.34,161.01
	c0-0.59-0.48-1.08-1.08-1.08c-0.59,0-1.08,0.48-1.08,1.08c0,0.59,0.48,1.08,1.08,1.08C114.86,162.08,115.34,161.6,115.34,161.01
	L115.34,161.01z M141.74,162.71c0-0.59-0.48-1.08-1.08-1.08c-0.59,0-1.08,0.48-1.08,1.08c0,0.59,0.48,1.08,1.08,1.08
	C141.26,163.79,141.74,163.31,141.74,162.71L141.74,162.71z M135.32,163.51c0-0.59-0.48-1.08-1.08-1.08c-0.59,0-1.08,0.48-1.08,1.08
	c0,0.59,0.48,1.08,1.08,1.08C134.84,164.59,135.32,164.1,135.32,163.51L135.32,163.51z M144.84,161.4c0-0.59-0.48-1.08-1.08-1.08
	s-1.08,0.48-1.08,1.08s0.48,1.08,1.08,1.08S144.84,161.99,144.84,161.4L144.84,161.4z M140.3,164.59c0-0.59-0.48-1.08-1.08-1.08
	c-0.59,0-1.08,0.48-1.08,1.08c0,0.59,0.48,1.08,1.08,1.08C139.82,165.67,140.3,165.18,140.3,164.59L140.3,164.59z M131.86,145.92
	c0-0.59-0.48-1.08-1.08-1.08c-0.59,0-1.08,0.48-1.08,1.08c0,0.59,0.48,1.08,1.08,1.08C131.38,147,131.86,146.52,131.86,145.92
	L131.86,145.92z M129.89,161.79c0-0.59-0.48-1.08-1.08-1.08s-1.08,0.48-1.08,1.08c0,0.59,0.48,1.08,1.08,1.08
	S129.89,162.39,129.89,161.79L129.89,161.79z M151,161.38c0-0.59-0.48-1.08-1.08-1.08s-1.08,0.48-1.08,1.08
	c0,0.59,0.48,1.08,1.08,1.08S151,161.98,151,161.38L151,161.38z M119.22,160.67c0-0.59-0.48-1.08-1.08-1.08
	c-0.59,0-1.08,0.48-1.08,1.08c0,0.59,0.48,1.08,1.08,1.08C118.74,161.74,119.22,161.26,119.22,160.67L119.22,160.67z M157.83,161.95
	c0-0.59-0.48-1.08-1.08-1.08s-1.08,0.48-1.08,1.08c0,0.59,0.48,1.08,1.08,1.08S157.83,162.55,157.83,161.95L157.83,161.95z
	 M132.3,154.46c0-0.59-0.48-1.08-1.08-1.08s-1.08,0.48-1.08,1.08c0,0.59,0.48,1.08,1.08,1.08S132.3,155.05,132.3,154.46
	L132.3,154.46z M138.75,155.35c0-0.59-0.48-1.08-1.08-1.08s-1.08,0.48-1.08,1.08c0,0.59,0.48,1.08,1.08,1.08
	S138.75,155.95,138.75,155.35L138.75,155.35z M145.52,159.42c0-0.59-0.48-1.08-1.08-1.08s-1.08,0.48-1.08,1.08
	c0,0.59,0.48,1.08,1.08,1.08S145.52,160.02,145.52,159.42L145.52,159.42z M133.88,152.73c0-0.59-0.48-1.08-1.08-1.08
	s-1.08,0.48-1.08,1.08c0,0.59,0.48,1.08,1.08,1.08S133.88,153.32,133.88,152.73L133.88,152.73z M136.43,150.39
	c0-0.59-0.48-1.08-1.08-1.08s-1.08,0.48-1.08,1.08c0,0.59,0.48,1.08,1.08,1.08S136.43,150.99,136.43,150.39L136.43,150.39z
	 M135.23,163.3c0-0.59-0.48-1.08-1.08-1.08c-0.59,0-1.08,0.48-1.08,1.08c0,0.59,0.48,1.08,1.08,1.08
	C134.75,164.37,135.23,163.89,135.23,163.3L135.23,163.3z M145.13,162.34c0-0.59-0.48-1.08-1.08-1.08s-1.08,0.48-1.08,1.08
	c0,0.59,0.48,1.08,1.08,1.08S145.13,162.94,145.13,162.34L145.13,162.34z M144.87,163.5c0-0.59-0.48-1.08-1.08-1.08
	c-0.59,0-1.08,0.48-1.08,1.08c0,0.59,0.48,1.08,1.08,1.08C144.39,164.58,144.87,164.1,144.87,163.5L144.87,163.5z M134.16,164.16
	c0-0.59-0.48-1.08-1.08-1.08c-0.59,0-1.08,0.48-1.08,1.08c0,0.59,0.48,1.08,1.08,1.08C133.68,165.24,134.16,164.75,134.16,164.16
	L134.16,164.16z M143.86,159.19c0-0.59-0.48-1.08-1.08-1.08c-0.59,0-1.08,0.48-1.08,1.08c0,0.59,0.48,1.08,1.08,1.08
	C143.38,160.27,143.86,159.79,143.86,159.19L143.86,159.19z M134.78,156.58c0-0.59-0.48-1.08-1.08-1.08c-0.59,0-1.08,0.48-1.08,1.08
	c0,0.59,0.48,1.08,1.08,1.08C134.3,157.65,134.78,157.17,134.78,156.58L134.78,156.58z M132.39,164.65c0-0.59-0.48-1.08-1.08-1.08
	c-0.59,0-1.08,0.48-1.08,1.08c0,0.59,0.48,1.08,1.08,1.08C131.91,165.73,132.39,165.25,132.39,164.65L132.39,164.65z M146.93,165.14
	c0-0.59-0.48-1.08-1.08-1.08s-1.08,0.48-1.08,1.08c0,0.59,0.48,1.08,1.08,1.08S146.93,165.73,146.93,165.14L146.93,165.14z
	 M126.58,160.53c0-0.59-0.48-1.08-1.08-1.08c-0.59,0-1.08,0.48-1.08,1.08c0,0.59,0.48,1.08,1.08,1.08
	C126.09,161.61,126.58,161.12,126.58,160.53L126.58,160.53z M142.2,146.21c0-0.59-0.48-1.08-1.08-1.08s-1.08,0.48-1.08,1.08
	c0,0.59,0.48,1.08,1.08,1.08S142.2,146.8,142.2,146.21L142.2,146.21z M128.36,158.9c0-0.59-0.48-1.08-1.08-1.08
	s-1.08,0.48-1.08,1.08c0,0.59,0.48,1.08,1.08,1.08S128.36,159.5,128.36,158.9L128.36,158.9z M156.64,161.14
	c0-0.59-0.48-1.08-1.08-1.08c-0.59,0-1.08,0.48-1.08,1.08c0,0.59,0.48,1.08,1.08,1.08C156.16,162.22,156.64,161.73,156.64,161.14
	L156.64,161.14z M138.3,165.57c0-0.59-0.48-1.08-1.08-1.08c-0.59,0-1.08,0.48-1.08,1.08c0,0.59,0.48,1.08,1.08,1.08
	C137.82,166.65,138.3,166.17,138.3,165.57L138.3,165.57z M139.16,162.84c0-0.59-0.48-1.08-1.08-1.08c-0.59,0-1.08,0.48-1.08,1.08
	c0,0.59,0.48,1.08,1.08,1.08C138.68,163.92,139.16,163.44,139.16,162.84L139.16,162.84z M131.68,166.11c0-0.59-0.48-1.08-1.08-1.08
	c-0.59,0-1.08,0.48-1.08,1.08c0,0.59,0.48,1.08,1.08,1.08C131.19,167.19,131.68,166.71,131.68,166.11L131.68,166.11z M140.82,160.12
	c0-0.59-0.48-1.08-1.08-1.08s-1.08,0.48-1.08,1.08c0,0.59,0.48,1.08,1.08,1.08S140.82,160.71,140.82,160.12L140.82,160.12z
	 M141.83,164.38c0-0.59-0.48-1.08-1.08-1.08s-1.08,0.48-1.08,1.08c0,0.59,0.48,1.08,1.08,1.08S141.83,164.97,141.83,164.38
	L141.83,164.38z M128.61,165.71c0-0.59-0.48-1.08-1.08-1.08s-1.08,0.48-1.08,1.08c0,0.59,0.48,1.08,1.08,1.08
	S128.61,166.31,128.61,165.71L128.61,165.71z M152.34,155.55c0-0.59-0.48-1.08-1.08-1.08s-1.08,0.48-1.08,1.08
	c0,0.59,0.48,1.08,1.08,1.08S152.34,156.14,152.34,155.55L152.34,155.55z M141.08,164.79c0-0.59-0.48-1.08-1.08-1.08
	c-0.59,0-1.08,0.48-1.08,1.08c0,0.59,0.48,1.08,1.08,1.08C140.6,165.87,141.08,165.38,141.08,164.79L141.08,164.79z M142.17,166.28
	c0-0.59-0.48-1.08-1.08-1.08s-1.08,0.48-1.08,1.08c0,0.59,0.48,1.08,1.08,1.08S142.17,166.87,142.17,166.28L142.17,166.28z
	 M131.89,161.87c0-0.59-0.48-1.08-1.08-1.08s-1.08,0.48-1.08,1.08c0,0.59,0.48,1.08,1.08,1.08S131.89,162.47,131.89,161.87
	L131.89,161.87z M134.08,164.95c0-0.59-0.48-1.08-1.08-1.08c-0.59,0-1.08,0.48-1.08,1.08c0,0.59,0.48,1.08,1.08,1.08
	C133.6,166.02,134.08,165.54,134.08,164.95L134.08,164.95z M151.61,162.71c0-0.59-0.48-1.08-1.08-1.08c-0.59,0-1.08,0.48-1.08,1.08
	c0,0.59,0.48,1.08,1.08,1.08C151.12,163.79,151.61,163.31,151.61,162.71L151.61,162.71z M125.57,161.7c0-0.59-0.48-1.08-1.08-1.08
	c-0.59,0-1.08,0.48-1.08,1.08c0,0.59,0.48,1.08,1.08,1.08C125.09,162.78,125.57,162.29,125.57,161.7L125.57,161.7z M132.64,161.31
	c0-0.59-0.48-1.08-1.08-1.08c-0.59,0-1.08,0.48-1.08,1.08c0,0.59,0.48,1.08,1.08,1.08C132.16,162.39,132.64,161.91,132.64,161.31
	L132.64,161.31z M140.38,162.02c0-0.59-0.48-1.08-1.08-1.08s-1.08,0.48-1.08,1.08c0,0.59,0.48,1.08,1.08,1.08
	S140.38,162.62,140.38,162.02L140.38,162.02z M143.79,166.11c0-0.59-0.48-1.08-1.08-1.08c-0.59,0-1.08,0.48-1.08,1.08
	c0,0.59,0.48,1.08,1.08,1.08C143.31,167.18,143.79,166.7,143.79,166.11L143.79,166.11z M126.04,163.6c0-0.59-0.48-1.08-1.08-1.08
	c-0.59,0-1.08,0.48-1.08,1.08s0.48,1.08,1.08,1.08C125.56,164.67,126.04,164.19,126.04,163.6L126.04,163.6z M140.24,166.56
	c0-0.59-0.48-1.08-1.08-1.08s-1.08,0.48-1.08,1.08c0,0.59,0.48,1.08,1.08,1.08S140.24,167.15,140.24,166.56L140.24,166.56z
	 M141.48,163.74c0-0.59-0.48-1.08-1.08-1.08c-0.59,0-1.08,0.48-1.08,1.08c0,0.59,0.48,1.08,1.08,1.08
	C140.99,164.81,141.48,164.33,141.48,163.74L141.48,163.74z M143.74,166.39c0-0.59-0.48-1.08-1.08-1.08c-0.59,0-1.08,0.48-1.08,1.08
	c0,0.59,0.48,1.08,1.08,1.08C143.26,167.47,143.74,166.99,143.74,166.39L143.74,166.39z M149.06,153.61c0-0.59-0.48-1.08-1.08-1.08
	c-0.59,0-1.08,0.48-1.08,1.08c0,0.59,0.48,1.08,1.08,1.08C148.57,154.68,149.06,154.2,149.06,153.61L149.06,153.61z M121.49,165
	c0-0.59-0.48-1.08-1.08-1.08c-0.59,0-1.08,0.48-1.08,1.08c0,0.59,0.48,1.08,1.08,1.08C121.01,166.07,121.49,165.59,121.49,165
	L121.49,165z M145.32,165.51c0-0.59-0.48-1.08-1.08-1.08c-0.59,0-1.08,0.48-1.08,1.08c0,0.59,0.48,1.08,1.08,1.08
	C144.84,166.58,145.32,166.1,145.32,165.51L145.32,165.51z M128.5,164.73c0-0.59-0.48-1.08-1.08-1.08s-1.08,0.48-1.08,1.08
	c0,0.59,0.48,1.08,1.08,1.08S128.5,165.32,128.5,164.73L128.5,164.73z M141.37,165.05c0-0.59-0.48-1.08-1.08-1.08
	c-0.59,0-1.08,0.48-1.08,1.08c0,0.59,0.48,1.08,1.08,1.08C140.89,166.12,141.37,165.64,141.37,165.05L141.37,165.05z M139.7,147.97
	c0-0.59-0.48-1.08-1.08-1.08s-1.08,0.48-1.08,1.08c0,0.59,0.48,1.08,1.08,1.08S139.7,148.57,139.7,147.97L139.7,147.97z
	 M141.81,165.46c0-0.59-0.48-1.08-1.08-1.08s-1.08,0.48-1.08,1.08c0,0.59,0.48,1.08,1.08,1.08S141.81,166.06,141.81,165.46
	L141.81,165.46z M144.39,144.05c0-0.59-0.48-1.08-1.08-1.08c-0.59,0-1.08,0.48-1.08,1.08c0,0.59,0.48,1.08,1.08,1.08
	C143.9,145.12,144.39,144.64,144.39,144.05L144.39,144.05z M126.29,162.5c0-0.59-0.48-1.08-1.08-1.08s-1.08,0.48-1.08,1.08
	s0.48,1.08,1.08,1.08S126.29,163.09,126.29,162.5L126.29,162.5z M141.8,163.47c0-0.59-0.48-1.08-1.08-1.08s-1.08,0.48-1.08,1.08
	c0,0.59,0.48,1.08,1.08,1.08S141.8,164.07,141.8,163.47L141.8,163.47z M150.69,158.54c0-0.59-0.48-1.08-1.08-1.08
	c-0.59,0-1.08,0.48-1.08,1.08c0,0.59,0.48,1.08,1.08,1.08C150.2,159.62,150.69,159.14,150.69,158.54L150.69,158.54z"/>
<path class="st8" d="M116.95,122.29c0-0.59-0.48-1.08-1.08-1.08s-1.08,0.48-1.08,1.08c0,0.59,0.48,1.08,1.08,1.08
	S116.95,122.89,116.95,122.29L116.95,122.29z M155.12,121.81c0-0.59-0.48-1.08-1.08-1.08s-1.08,0.48-1.08,1.08
	c0,0.59,0.48,1.08,1.08,1.08S155.12,122.4,155.12,121.81L155.12,121.81z M144.99,86.85c0-0.59-0.48-1.08-1.08-1.08
	s-1.08,0.48-1.08,1.08c0,0.59,0.48,1.08,1.08,1.08S144.99,87.44,144.99,86.85L144.99,86.85z M115.34,117.05
	c0-0.59-0.48-1.08-1.08-1.08c-0.59,0-1.08,0.48-1.08,1.08c0,0.59,0.48,1.08,1.08,1.08C114.86,118.13,115.34,117.65,115.34,117.05
	L115.34,117.05z M141.74,109.24c0-0.59-0.48-1.08-1.08-1.08c-0.59,0-1.08,0.48-1.08,1.08c0,0.59,0.48,1.08,1.08,1.08
	C141.26,110.32,141.74,109.84,141.74,109.24L141.74,109.24z M135.32,114.49c0-0.59-0.48-1.08-1.08-1.08c-0.59,0-1.08,0.48-1.08,1.08
	c0,0.59,0.48,1.08,1.08,1.08C134.84,115.57,135.32,115.08,135.32,114.49L135.32,114.49z M144.84,119.38c0-0.59-0.48-1.08-1.08-1.08
	s-1.08,0.48-1.08,1.08c0,0.59,0.48,1.08,1.08,1.08S144.84,119.98,144.84,119.38L144.84,119.38z M140.3,104.34
	c0-0.59-0.48-1.08-1.08-1.08c-0.59,0-1.08,0.48-1.08,1.08c0,0.59,0.48,1.08,1.08,1.08C139.82,105.42,140.3,104.94,140.3,104.34
	L140.3,104.34z M131.86,125.8c0-0.59-0.48-1.08-1.08-1.08c-0.59,0-1.08,0.48-1.08,1.08s0.48,1.08,1.08,1.08
	C131.38,126.87,131.86,126.39,131.86,125.8L131.86,125.8z M129.89,114.72c0-0.59-0.48-1.08-1.08-1.08s-1.08,0.48-1.08,1.08
	c0,0.59,0.48,1.08,1.08,1.08S129.89,115.31,129.89,114.72L129.89,114.72z M151,103.83c0-0.59-0.48-1.08-1.08-1.08
	s-1.08,0.48-1.08,1.08s0.48,1.08,1.08,1.08S151,104.42,151,103.83L151,103.83z M119.22,125.13c0-0.59-0.48-1.08-1.08-1.08
	c-0.59,0-1.08,0.48-1.08,1.08c0,0.59,0.48,1.08,1.08,1.08C118.74,126.2,119.22,125.72,119.22,125.13L119.22,125.13z M157.83,91.81
	c0-0.59-0.48-1.08-1.08-1.08s-1.08,0.48-1.08,1.08s0.48,1.08,1.08,1.08S157.83,92.41,157.83,91.81L157.83,91.81z M132.3,129.49
	c0-0.59-0.48-1.08-1.08-1.08s-1.08,0.48-1.08,1.08c0,0.59,0.48,1.08,1.08,1.08S132.3,130.09,132.3,129.49L132.3,129.49z
	 M138.75,123.31c0-0.59-0.48-1.08-1.08-1.08s-1.08,0.48-1.08,1.08c0,0.59,0.48,1.08,1.08,1.08S138.75,123.9,138.75,123.31
	L138.75,123.31z M145.52,96.97c0-0.59-0.48-1.08-1.08-1.08s-1.08,0.48-1.08,1.08c0,0.59,0.48,1.08,1.08,1.08
	S145.52,97.57,145.52,96.97L145.52,96.97z M133.88,113.13c0-0.59-0.48-1.08-1.08-1.08s-1.08,0.48-1.08,1.08
	c0,0.59,0.48,1.08,1.08,1.08S133.88,113.72,133.88,113.13L133.88,113.13z M136.43,109.66c0-0.59-0.48-1.08-1.08-1.08
	s-1.08,0.48-1.08,1.08c0,0.59,0.48,1.08,1.08,1.08S136.43,110.25,136.43,109.66L136.43,109.66z M135.23,97.64
	c0-0.59-0.48-1.08-1.08-1.08c-0.59,0-1.08,0.48-1.08,1.08c0,0.59,0.48,1.08,1.08,1.08C134.75,98.72,135.23,98.24,135.23,97.64
	L135.23,97.64z M145.13,89.55c0-0.59-0.48-1.08-1.08-1.08s-1.08,0.48-1.08,1.08s0.48,1.08,1.08,1.08S145.13,90.15,145.13,89.55
	L145.13,89.55z M144.87,100.38c0-0.59-0.48-1.08-1.08-1.08c-0.59,0-1.08,0.48-1.08,1.08c0,0.59,0.48,1.08,1.08,1.08
	C144.39,101.46,144.87,100.98,144.87,100.38L144.87,100.38z M134.16,110.18c0-0.59-0.48-1.08-1.08-1.08c-0.59,0-1.08,0.48-1.08,1.08
	c0,0.59,0.48,1.08,1.08,1.08C133.68,111.26,134.16,110.78,134.16,110.18L134.16,110.18z M143.86,111.64c0-0.59-0.48-1.08-1.08-1.08
	c-0.59,0-1.08,0.48-1.08,1.08s0.48,1.08,1.08,1.08C143.38,112.71,143.86,112.23,143.86,111.64L143.86,111.64z M134.78,114.66
	c0-0.59-0.48-1.08-1.08-1.08c-0.59,0-1.08,0.48-1.08,1.08c0,0.59,0.48,1.08,1.08,1.08C134.3,115.74,134.78,115.26,134.78,114.66
	L134.78,114.66z M132.39,114.44c0-0.59-0.48-1.08-1.08-1.08c-0.59,0-1.08,0.48-1.08,1.08c0,0.59,0.48,1.08,1.08,1.08
	C131.91,115.52,132.39,115.04,132.39,114.44L132.39,114.44z M146.93,118.72c0-0.59-0.48-1.08-1.08-1.08s-1.08,0.48-1.08,1.08
	c0,0.59,0.48,1.08,1.08,1.08S146.93,119.32,146.93,118.72L146.93,118.72z M126.58,123.98c0-0.59-0.48-1.08-1.08-1.08
	c-0.59,0-1.08,0.48-1.08,1.08c0,0.59,0.48,1.08,1.08,1.08C126.09,125.06,126.58,124.57,126.58,123.98L126.58,123.98z M142.2,139.19
	c0-0.59-0.48-1.08-1.08-1.08s-1.08,0.48-1.08,1.08c0,0.59,0.48,1.08,1.08,1.08S142.2,139.79,142.2,139.19L142.2,139.19z
	 M128.36,125.16c0-0.59-0.48-1.08-1.08-1.08s-1.08,0.48-1.08,1.08c0,0.59,0.48,1.08,1.08,1.08S128.36,125.75,128.36,125.16
	L128.36,125.16z M156.64,115.68c0-0.59-0.48-1.08-1.08-1.08c-0.59,0-1.08,0.48-1.08,1.08c0,0.59,0.48,1.08,1.08,1.08
	C156.16,116.75,156.64,116.27,156.64,115.68L156.64,115.68z M138.3,119.85c0-0.59-0.48-1.08-1.08-1.08c-0.59,0-1.08,0.48-1.08,1.08
	c0,0.59,0.48,1.08,1.08,1.08C137.82,120.93,138.3,120.44,138.3,119.85L138.3,119.85z M139.16,109.64c0-0.59-0.48-1.08-1.08-1.08
	c-0.59,0-1.08,0.48-1.08,1.08c0,0.59,0.48,1.08,1.08,1.08C138.68,110.72,139.16,110.23,139.16,109.64L139.16,109.64z M131.68,131.66
	c0-0.59-0.48-1.08-1.08-1.08c-0.59,0-1.08,0.48-1.08,1.08s0.48,1.08,1.08,1.08C131.19,132.74,131.68,132.26,131.68,131.66
	L131.68,131.66z M140.82,112.86c0-0.59-0.48-1.08-1.08-1.08s-1.08,0.48-1.08,1.08c0,0.59,0.48,1.08,1.08,1.08
	S140.82,113.45,140.82,112.86L140.82,112.86z M141.83,109.08c0-0.59-0.48-1.08-1.08-1.08s-1.08,0.48-1.08,1.08
	c0,0.59,0.48,1.08,1.08,1.08S141.83,109.68,141.83,109.08L141.83,109.08z M128.61,114.25c0-0.59-0.48-1.08-1.08-1.08
	s-1.08,0.48-1.08,1.08c0,0.59,0.48,1.08,1.08,1.08S128.61,114.85,128.61,114.25L128.61,114.25z M152.34,122.11
	c0-0.59-0.48-1.08-1.08-1.08s-1.08,0.48-1.08,1.08s0.48,1.08,1.08,1.08S152.34,122.7,152.34,122.11L152.34,122.11z M141.08,106.89
	c0-0.59-0.48-1.08-1.08-1.08c-0.59,0-1.08,0.48-1.08,1.08s0.48,1.08,1.08,1.08C140.6,107.97,141.08,107.49,141.08,106.89
	L141.08,106.89z M142.17,125.79c0-0.59-0.48-1.08-1.08-1.08s-1.08,0.48-1.08,1.08c0,0.59,0.48,1.08,1.08,1.08
	S142.17,126.39,142.17,125.79L142.17,125.79z M131.89,99.86c0-0.59-0.48-1.08-1.08-1.08s-1.08,0.48-1.08,1.08
	c0,0.59,0.48,1.08,1.08,1.08S131.89,100.45,131.89,99.86L131.89,99.86z M134.08,119.93c0-0.59-0.48-1.08-1.08-1.08
	c-0.59,0-1.08,0.48-1.08,1.08s0.48,1.08,1.08,1.08C133.6,121.01,134.08,120.52,134.08,119.93L134.08,119.93z M151.61,122.11
	c0-0.59-0.48-1.08-1.08-1.08c-0.59,0-1.08,0.48-1.08,1.08c0,0.59,0.48,1.08,1.08,1.08C151.12,123.18,151.61,122.7,151.61,122.11
	L151.61,122.11z M125.57,124.17c0-0.59-0.48-1.08-1.08-1.08c-0.59,0-1.08,0.48-1.08,1.08c0,0.59,0.48,1.08,1.08,1.08
	C125.09,125.25,125.57,124.76,125.57,124.17L125.57,124.17z M132.64,90.55c0-0.59-0.48-1.08-1.08-1.08c-0.59,0-1.08,0.48-1.08,1.08
	s0.48,1.08,1.08,1.08C132.16,91.62,132.64,91.14,132.64,90.55L132.64,90.55z M140.38,115.29c0-0.59-0.48-1.08-1.08-1.08
	s-1.08,0.48-1.08,1.08c0,0.59,0.48,1.08,1.08,1.08S140.38,115.88,140.38,115.29L140.38,115.29z M143.79,133.78
	c0-0.59-0.48-1.08-1.08-1.08c-0.59,0-1.08,0.48-1.08,1.08c0,0.59,0.48,1.08,1.08,1.08C143.31,134.85,143.79,134.37,143.79,133.78
	L143.79,133.78z M126.04,146.76c0-0.59-0.48-1.08-1.08-1.08c-0.59,0-1.08,0.48-1.08,1.08c0,0.59,0.48,1.08,1.08,1.08
	C125.56,147.84,126.04,147.36,126.04,146.76L126.04,146.76z M140.24,112.88c0-0.59-0.48-1.08-1.08-1.08s-1.08,0.48-1.08,1.08
	c0,0.59,0.48,1.08,1.08,1.08S140.24,113.48,140.24,112.88L140.24,112.88z M141.48,111.01c0-0.59-0.48-1.08-1.08-1.08
	c-0.59,0-1.08,0.48-1.08,1.08c0,0.59,0.48,1.08,1.08,1.08C140.99,112.08,141.48,111.6,141.48,111.01L141.48,111.01z M143.74,125.87
	c0-0.59-0.48-1.08-1.08-1.08c-0.59,0-1.08,0.48-1.08,1.08s0.48,1.08,1.08,1.08C143.26,126.94,143.74,126.46,143.74,125.87
	L143.74,125.87z M149.06,120.14c0-0.59-0.48-1.08-1.08-1.08c-0.59,0-1.08,0.48-1.08,1.08c0,0.59,0.48,1.08,1.08,1.08
	C148.57,121.22,149.06,120.74,149.06,120.14L149.06,120.14z M121.49,121.46c0-0.59-0.48-1.08-1.08-1.08c-0.59,0-1.08,0.48-1.08,1.08
	c0,0.59,0.48,1.08,1.08,1.08C121.01,122.53,121.49,122.05,121.49,121.46L121.49,121.46z M145.32,113.83c0-0.59-0.48-1.08-1.08-1.08
	c-0.59,0-1.08,0.48-1.08,1.08c0,0.59,0.48,1.08,1.08,1.08C144.84,114.91,145.32,114.43,145.32,113.83L145.32,113.83z M128.5,108.9
	c0-0.59-0.48-1.08-1.08-1.08s-1.08,0.48-1.08,1.08c0,0.59,0.48,1.08,1.08,1.08S128.5,109.49,128.5,108.9L128.5,108.9z M141.37,99.95
	c0-0.59-0.48-1.08-1.08-1.08c-0.59,0-1.08,0.48-1.08,1.08c0,0.59,0.48,1.08,1.08,1.08C140.89,101.03,141.37,100.55,141.37,99.95
	L141.37,99.95z M139.7,112.53c0-0.59-0.48-1.08-1.08-1.08s-1.08,0.48-1.08,1.08c0,0.59,0.48,1.08,1.08,1.08
	S139.7,113.13,139.7,112.53L139.7,112.53z M141.81,121.28c0-0.59-0.48-1.08-1.08-1.08s-1.08,0.48-1.08,1.08
	c0,0.59,0.48,1.08,1.08,1.08S141.81,121.88,141.81,121.28L141.81,121.28z M144.39,129.04c0-0.59-0.48-1.08-1.08-1.08
	c-0.59,0-1.08,0.48-1.08,1.08s0.48,1.08,1.08,1.08C143.9,130.12,144.39,129.63,144.39,129.04L144.39,129.04z M126.29,115.78
	c0-0.59-0.48-1.08-1.08-1.08s-1.08,0.48-1.08,1.08s0.48,1.08,1.08,1.08S126.29,116.37,126.29,115.78L126.29,115.78z M141.8,116.02
	c0-0.59-0.48-1.08-1.08-1.08s-1.08,0.48-1.08,1.08c0,0.59,0.48,1.08,1.08,1.08S141.8,116.62,141.8,116.02L141.8,116.02z
	 M150.69,91.1c0-0.59-0.48-1.08-1.08-1.08c-0.59,0-1.08,0.48-1.08,1.08s0.48,1.08,1.08,1.08C150.2,92.17,150.69,91.69,150.69,91.1
	L150.69,91.1z"/>
<path class="st9" d="M149.21,161.69c0-0.59-0.48-1.08-1.08-1.08s-1.08,0.48-1.08,1.08c0,0.59,0.48,1.08,1.08,1.08
	S149.21,162.29,149.21,161.69L149.21,161.69z"/>
<path class="st10" d="M149.21,161.69c0-0.59-0.48-1.08-1.08-1.08s-1.08,0.48-1.08,1.08c0,0.59,0.48,1.08,1.08,1.08
	S149.21,162.29,149.21,161.69L149.21,161.69z"/>
<path class="st11" d="M149.21,102.31c0-0.59-0.48-1.08-1.08-1.08s-1.08,0.48-1.08,1.08c0,0.59,0.48,1.08,1.08,1.08
	S149.21,102.9,149.21,102.31L149.21,102.31z"/>
<path class="st12" d="M149.21,102.31c0-0.59-0.48-1.08-1.08-1.08s-1.08,0.48-1.08,1.08c0,0.59,0.48,1.08,1.08,1.08
	S149.21,102.9,149.21,102.31L149.21,102.31z"/>
<path class="st9" d="M159.84,161.39c0-0.59-0.48-1.08-1.08-1.08c-0.59,0-1.08,0.48-1.08,1.08c0,0.59,0.48,1.08,1.08,1.08
	C159.35,162.46,159.84,161.98,159.84,161.39L159.84,161.39z"/>
<path class="st10" d="M159.84,161.39c0-0.59-0.48-1.08-1.08-1.08c-0.59,0-1.08,0.48-1.08,1.08c0,0.59,0.48,1.08,1.08,1.08
	C159.35,162.46,159.84,161.98,159.84,161.39L159.84,161.39z"/>
<path class="st11" d="M159.84,104.62c0-0.59-0.48-1.08-1.08-1.08c-0.59,0-1.08,0.48-1.08,1.08s0.48,1.08,1.08,1.08
	C159.35,105.7,159.84,105.22,159.84,104.62L159.84,104.62z"/>
<path class="st12" d="M159.84,104.62c0-0.59-0.48-1.08-1.08-1.08c-0.59,0-1.08,0.48-1.08,1.08s0.48,1.08,1.08,1.08
	C159.35,105.7,159.84,105.22,159.84,104.62L159.84,104.62z"/>
<path class="st9" d="M155.21,163.01c0-0.59-0.48-1.08-1.08-1.08s-1.08,0.48-1.08,1.08c0,0.59,0.48,1.08,1.08,1.08
	S155.21,163.6,155.21,163.01L155.21,163.01z"/>
<path class="st10" d="M155.21,163.01c0-0.59-0.48-1.08-1.08-1.08s-1.08,0.48-1.08,1.08c0,0.59,0.48,1.08,1.08,1.08
	S155.21,163.6,155.21,163.01L155.21,163.01z"/>
<path class="st11" d="M155.21,78.6c0-0.59-0.48-1.08-1.08-1.08s-1.08,0.48-1.08,1.08c0,0.59,0.48,1.08,1.08,1.08
	S155.21,79.2,155.21,78.6L155.21,78.6z"/>
<path class="st12" d="M155.21,78.6c0-0.59-0.48-1.08-1.08-1.08s-1.08,0.48-1.08,1.08c0,0.59,0.48,1.08,1.08,1.08
	S155.21,79.2,155.21,78.6L155.21,78.6z"/>
<path class="st11" d="M164.41,95.08c0-0.59-0.48-1.08-1.08-1.08s-1.08,0.48-1.08,1.08c0,0.59,0.48,1.08,1.08,1.08
	S164.41,95.67,164.41,95.08L164.41,95.08z"/>
<path class="st12" d="M164.41,95.08c0-0.59-0.48-1.08-1.08-1.08s-1.08,0.48-1.08,1.08c0,0.59,0.48,1.08,1.08,1.08
	S164.41,95.67,164.41,95.08L164.41,95.08z"/>
<path class="st9" d="M157.22,161.13c0-0.59-0.48-1.08-1.08-1.08s-1.08,0.48-1.08,1.08c0,0.59,0.48,1.08,1.08,1.08
	S157.22,161.72,157.22,161.13L157.22,161.13z"/>
<path class="st10" d="M157.22,161.13c0-0.59-0.48-1.08-1.08-1.08s-1.08,0.48-1.08,1.08c0,0.59,0.48,1.08,1.08,1.08
	S157.22,161.72,157.22,161.13L157.22,161.13z"/>
<path class="st11" d="M157.22,104.66c0-0.59-0.48-1.08-1.08-1.08s-1.08,0.48-1.08,1.08c0,0.59,0.48,1.08,1.08,1.08
	S157.22,105.26,157.22,104.66L157.22,104.66z"/>
<path class="st12" d="M157.22,104.66c0-0.59-0.48-1.08-1.08-1.08s-1.08,0.48-1.08,1.08c0,0.59,0.48,1.08,1.08,1.08
	S157.22,105.26,157.22,104.66L157.22,104.66z"/>
<path class="st9" d="M161.83,162.54c0-0.59-0.48-1.08-1.08-1.08c-0.59,0-1.08,0.48-1.08,1.08c0,0.59,0.48,1.08,1.08,1.08
	C161.35,163.62,161.83,163.14,161.83,162.54L161.83,162.54z"/>
<path class="st10" d="M161.83,162.54c0-0.59-0.48-1.08-1.08-1.08c-0.59,0-1.08,0.48-1.08,1.08c0,0.59,0.48,1.08,1.08,1.08
	C161.35,163.62,161.83,163.14,161.83,162.54L161.83,162.54z"/>
<path class="st11" d="M161.83,71.61c0-0.59-0.48-1.08-1.08-1.08c-0.59,0-1.08,0.48-1.08,1.08c0,0.59,0.48,1.08,1.08,1.08
	C161.35,72.69,161.83,72.21,161.83,71.61L161.83,71.61z"/>
<path class="st12" d="M161.83,71.61c0-0.59-0.48-1.08-1.08-1.08c-0.59,0-1.08,0.48-1.08,1.08c0,0.59,0.48,1.08,1.08,1.08
	C161.35,72.69,161.83,72.21,161.83,71.61L161.83,71.61z"/>
<path class="st9" d="M160.46,163.01c0-0.59-0.48-1.08-1.08-1.08s-1.08,0.48-1.08,1.08c0,0.59,0.48,1.08,1.08,1.08
	S160.46,163.6,160.46,163.01L160.46,163.01z"/>
<path class="st10" d="M160.46,163.01c0-0.59-0.48-1.08-1.08-1.08s-1.08,0.48-1.08,1.08c0,0.59,0.48,1.08,1.08,1.08
	S160.46,163.6,160.46,163.01L160.46,163.01z"/>
<path class="st11" d="M160.46,83.05c0-0.59-0.48-1.08-1.08-1.08s-1.08,0.48-1.08,1.08s0.48,1.08,1.08,1.08
	S160.46,83.64,160.46,83.05L160.46,83.05z"/>
<path class="st12" d="M160.46,83.05c0-0.59-0.48-1.08-1.08-1.08s-1.08,0.48-1.08,1.08s0.48,1.08,1.08,1.08
	S160.46,83.64,160.46,83.05L160.46,83.05z"/>
<path class="st9" d="M162.23,160.31c0-0.59-0.48-1.08-1.08-1.08s-1.08,0.48-1.08,1.08c0,0.59,0.48,1.08,1.08,1.08
	S162.23,160.9,162.23,160.31L162.23,160.31z"/>
<path class="st10" d="M162.23,160.31c0-0.59-0.48-1.08-1.08-1.08s-1.08,0.48-1.08,1.08c0,0.59,0.48,1.08,1.08,1.08
	S162.23,160.9,162.23,160.31L162.23,160.31z"/>
<path class="st11" d="M162.23,95.1c0-0.59-0.48-1.08-1.08-1.08s-1.08,0.48-1.08,1.08c0,0.59,0.48,1.08,1.08,1.08
	S162.23,95.69,162.23,95.1L162.23,95.1z"/>
<path class="st12" d="M162.23,95.1c0-0.59-0.48-1.08-1.08-1.08s-1.08,0.48-1.08,1.08c0,0.59,0.48,1.08,1.08,1.08
	S162.23,95.69,162.23,95.1L162.23,95.1z"/>
<path class="st9" d="M178.51,162.66c0-0.59-0.48-1.08-1.08-1.08c-0.59,0-1.08,0.48-1.08,1.08c0,0.59,0.48,1.08,1.08,1.08
	C178.03,163.74,178.51,163.26,178.51,162.66L178.51,162.66z"/>
<path class="st10" d="M178.51,162.66c0-0.59-0.48-1.08-1.08-1.08c-0.59,0-1.08,0.48-1.08,1.08c0,0.59,0.48,1.08,1.08,1.08
	C178.03,163.74,178.51,163.26,178.51,162.66L178.51,162.66z"/>
<path class="st11" d="M178.51,77.68c0-0.59-0.48-1.08-1.08-1.08c-0.59,0-1.08,0.48-1.08,1.08c0,0.59,0.48,1.08,1.08,1.08
	C178.03,78.75,178.51,78.27,178.51,77.68L178.51,77.68z"/>
<path class="st12" d="M178.51,77.68c0-0.59-0.48-1.08-1.08-1.08c-0.59,0-1.08,0.48-1.08,1.08c0,0.59,0.48,1.08,1.08,1.08
	C178.03,78.75,178.51,78.27,178.51,77.68L178.51,77.68z"/>
<path class="st9" d="M103.4,143.68c0-0.59-0.48-1.08-1.08-1.08c-0.59,0-1.08,0.48-1.08,1.08c0,0.59,0.48,1.08,1.08,1.08
	C102.91,144.76,103.4,144.27,103.4,143.68L103.4,143.68z"/>
<path class="st10" d="M103.4,143.68c0-0.59-0.48-1.08-1.08-1.08c-0.59,0-1.08,0.48-1.08,1.08c0,0.59,0.48,1.08,1.08,1.08
	C102.91,144.76,103.4,144.27,103.4,143.68L103.4,143.68z"/>
<path class="st11" d="M103.4,124.99c0-0.59-0.48-1.08-1.08-1.08c-0.59,0-1.08,0.48-1.08,1.08s0.48,1.08,1.08,1.08
	C102.91,126.07,103.4,125.58,103.4,124.99L103.4,124.99z"/>
<path class="st12" d="M103.4,124.99c0-0.59-0.48-1.08-1.08-1.08c-0.59,0-1.08,0.48-1.08,1.08s0.48,1.08,1.08,1.08
	C102.91,126.07,103.4,125.58,103.4,124.99L103.4,124.99z"/>
<path class="st9" d="M107.1,140.69c0-0.59-0.48-1.08-1.08-1.08c-0.59,0-1.08,0.48-1.08,1.08s0.48,1.08,1.08,1.08
	C106.62,141.77,107.1,141.29,107.1,140.69L107.1,140.69z"/>
<path class="st10" d="M107.1,140.69c0-0.59-0.48-1.08-1.08-1.08c-0.59,0-1.08,0.48-1.08,1.08s0.48,1.08,1.08,1.08
	C106.62,141.77,107.1,141.29,107.1,140.69L107.1,140.69z"/>
<path class="st11" d="M107.1,148.65c0-0.59-0.48-1.08-1.08-1.08c-0.59,0-1.08,0.48-1.08,1.08c0,0.59,0.48,1.08,1.08,1.08
	C106.62,149.73,107.1,149.25,107.1,148.65L107.1,148.65z"/>
<path class="st12" d="M107.1,148.65c0-0.59-0.48-1.08-1.08-1.08c-0.59,0-1.08,0.48-1.08,1.08c0,0.59,0.48,1.08,1.08,1.08
	C106.62,149.73,107.1,149.25,107.1,148.65L107.1,148.65z"/>
<path class="st9" d="M101.34,142.7c0-0.59-0.48-1.08-1.08-1.08c-0.59,0-1.08,0.48-1.08,1.08c0,0.59,0.48,1.08,1.08,1.08
	C100.85,143.78,101.34,143.3,101.34,142.7L101.34,142.7z"/>
<path class="st10" d="M101.34,142.7c0-0.59-0.48-1.08-1.08-1.08c-0.59,0-1.08,0.48-1.08,1.08c0,0.59,0.48,1.08,1.08,1.08
	C100.85,143.78,101.34,143.3,101.34,142.7L101.34,142.7z"/>
<path class="st11" d="M101.34,124c0-0.59-0.48-1.08-1.08-1.08c-0.59,0-1.08,0.48-1.08,1.08c0,0.59,0.48,1.08,1.08,1.08
	C100.85,125.08,101.34,124.6,101.34,124L101.34,124z"/>
<path class="st12" d="M101.34,124c0-0.59-0.48-1.08-1.08-1.08c-0.59,0-1.08,0.48-1.08,1.08c0,0.59,0.48,1.08,1.08,1.08
	C100.85,125.08,101.34,124.6,101.34,124L101.34,124z"/>
<path class="st9" d="M94.55,125.53c0-0.59-0.48-1.08-1.08-1.08c-0.59,0-1.08,0.48-1.08,1.08c0,0.59,0.48,1.08,1.08,1.08
	C94.07,126.6,94.55,126.12,94.55,125.53L94.55,125.53z"/>
<path class="st10" d="M94.55,125.53c0-0.59-0.48-1.08-1.08-1.08c-0.59,0-1.08,0.48-1.08,1.08c0,0.59,0.48,1.08,1.08,1.08
	C94.07,126.6,94.55,126.12,94.55,125.53L94.55,125.53z"/>
<path class="st11" d="M94.55,135.61c0-0.59-0.48-1.08-1.08-1.08c-0.59,0-1.08,0.48-1.08,1.08c0,0.59,0.48,1.08,1.08,1.08
	C94.07,136.68,94.55,136.2,94.55,135.61L94.55,135.61z"/>
<path class="st12" d="M94.55,135.61c0-0.59-0.48-1.08-1.08-1.08c-0.59,0-1.08,0.48-1.08,1.08c0,0.59,0.48,1.08,1.08,1.08
	C94.07,136.68,94.55,136.2,94.55,135.61L94.55,135.61z"/>
<path class="st9" d="M117.69,144.94c0-0.59-0.48-1.08-1.08-1.08s-1.08,0.48-1.08,1.08c0,0.59,0.48,1.08,1.08,1.08
	S117.69,145.54,117.69,144.94L117.69,144.94z"/>
<path class="st10" d="M117.69,144.94c0-0.59-0.48-1.08-1.08-1.08s-1.08,0.48-1.08,1.08c0,0.59,0.48,1.08,1.08,1.08
	S117.69,145.54,117.69,144.94L117.69,144.94z"/>
<path class="st11" d="M117.69,124.78c0-0.59-0.48-1.08-1.08-1.08s-1.08,0.48-1.08,1.08s0.48,1.08,1.08,1.08
	S117.69,125.37,117.69,124.78L117.69,124.78z"/>
<path class="st12" d="M117.69,124.78c0-0.59-0.48-1.08-1.08-1.08s-1.08,0.48-1.08,1.08s0.48,1.08,1.08,1.08
	S117.69,125.37,117.69,124.78L117.69,124.78z"/>
<path class="st9" d="M85.66,115.7c0-0.59-0.48-1.08-1.08-1.08s-1.08,0.48-1.08,1.08c0,0.59,0.48,1.08,1.08,1.08
	S85.66,116.29,85.66,115.7L85.66,115.7z"/>
<path class="st10" d="M85.66,115.7c0-0.59-0.48-1.08-1.08-1.08s-1.08,0.48-1.08,1.08c0,0.59,0.48,1.08,1.08,1.08
	S85.66,116.29,85.66,115.7L85.66,115.7z"/>
<path class="st11" d="M85.66,153.92c0-0.59-0.48-1.08-1.08-1.08s-1.08,0.48-1.08,1.08c0,0.59,0.48,1.08,1.08,1.08
	S85.66,154.51,85.66,153.92L85.66,153.92z"/>
<path class="st12" d="M85.66,153.92c0-0.59-0.48-1.08-1.08-1.08s-1.08,0.48-1.08,1.08c0,0.59,0.48,1.08,1.08,1.08
	S85.66,154.51,85.66,153.92L85.66,153.92z"/>
<path class="st9" d="M83.32,84.62c0-0.59-0.48-1.08-1.08-1.08c-0.59,0-1.08,0.48-1.08,1.08c0,0.59,0.48,1.08,1.08,1.08
	C82.84,85.7,83.32,85.21,83.32,84.62L83.32,84.62z"/>
<path class="st10" d="M83.32,84.62c0-0.59-0.48-1.08-1.08-1.08c-0.59,0-1.08,0.48-1.08,1.08c0,0.59,0.48,1.08,1.08,1.08
	C82.84,85.7,83.32,85.21,83.32,84.62L83.32,84.62z"/>
<path class="st11" d="M83.32,128.22c0-0.59-0.48-1.08-1.08-1.08c-0.59,0-1.08,0.48-1.08,1.08s0.48,1.08,1.08,1.08
	C82.84,129.3,83.32,128.82,83.32,128.22L83.32,128.22z"/>
<path class="st12" d="M83.32,128.22c0-0.59-0.48-1.08-1.08-1.08c-0.59,0-1.08,0.48-1.08,1.08s0.48,1.08,1.08,1.08
	C82.84,129.3,83.32,128.82,83.32,128.22L83.32,128.22z"/>
<path class="st9" d="M54.6,87.69c0-0.59-0.48-1.08-1.08-1.08s-1.08,0.48-1.08,1.08c0,0.59,0.48,1.08,1.08,1.08
	S54.6,88.28,54.6,87.69L54.6,87.69z"/>
<path class="st10" d="M54.6,87.69c0-0.59-0.48-1.08-1.08-1.08s-1.08,0.48-1.08,1.08c0,0.59,0.48,1.08,1.08,1.08
	S54.6,88.28,54.6,87.69L54.6,87.69z"/>
<path class="st11" d="M54.6,146.72c0-0.59-0.48-1.08-1.08-1.08s-1.08,0.48-1.08,1.08c0,0.59,0.48,1.08,1.08,1.08
	S54.6,147.31,54.6,146.72L54.6,146.72z"/>
<path class="st12" d="M54.6,146.72c0-0.59-0.48-1.08-1.08-1.08s-1.08,0.48-1.08,1.08c0,0.59,0.48,1.08,1.08,1.08
	S54.6,147.31,54.6,146.72L54.6,146.72z"/>
<path class="st9" d="M66.14,115.62c0-0.59-0.48-1.08-1.08-1.08c-0.59,0-1.08,0.48-1.08,1.08c0,0.59,0.48,1.08,1.08,1.08
	C65.66,116.69,66.14,116.21,66.14,115.62L66.14,115.62z"/>
<path class="st10" d="M66.14,115.62c0-0.59-0.48-1.08-1.08-1.08c-0.59,0-1.08,0.48-1.08,1.08c0,0.59,0.48,1.08,1.08,1.08
	C65.66,116.69,66.14,116.21,66.14,115.62L66.14,115.62z"/>
<path class="st11" d="M66.14,149.19c0-0.59-0.48-1.08-1.08-1.08c-0.59,0-1.08,0.48-1.08,1.08c0,0.59,0.48,1.08,1.08,1.08
	C65.66,150.27,66.14,149.79,66.14,149.19L66.14,149.19z"/>
<path class="st12" d="M66.14,149.19c0-0.59-0.48-1.08-1.08-1.08c-0.59,0-1.08,0.48-1.08,1.08c0,0.59,0.48,1.08,1.08,1.08
	C65.66,150.27,66.14,149.79,66.14,149.19L66.14,149.19z"/>
<path class="st7" d="M181.95,121.29c0-1.1-0.89-1.99-1.99-1.99s-1.99,0.89-1.99,1.99c0,1.1,0.89,1.99,1.99,1.99
	S181.95,122.39,181.95,121.29L181.95,121.29z"/>
<path class="st8" d="M181.88,129.71c0-0.94-0.76-1.71-1.71-1.71c-0.94,0-1.71,0.76-1.71,1.71c0,0.94,0.76,1.71,1.71,1.71
	C181.12,131.42,181.88,130.65,181.88,129.71L181.88,129.71z"/>
<text transform="matrix(1 0 0 1 187.0002 122.5835)" class="st2 st13">tibialis anterior</text>
<text transform="matrix(1 0 0 1 187.5002 131.5835)" class="st2 st13">gastrocnemius</text>
<text transform="matrix(1 0 0 1 150.8333 55.6667)" class="st2 st14">forward perturbations</text>
<path d="M202.5,63.17"/>
<g>
	<line x1="172.17" y1="57.17" x2="172.17" y2="72.5"/>
	<g>
		<line class="st15" x1="172.17" y1="57.17" x2="172.17" y2="70.99"/>
		<g>
			<path d="M172.17,72.5c-0.26-0.71-0.71-1.59-1.19-2.14l1.19,0.43l1.19-0.43C172.88,70.91,172.43,71.79,172.17,72.5z"/>
		</g>
	</g>
</g>
<text transform="matrix(1 0 0 1 49.3333 53.1667)" class="st2 st14">backward perturbations</text>
<g>
	<line x1="70.67" y1="54.67" x2="70.67" y2="70"/>
	<g>
		<line class="st15" x1="70.67" y1="54.67" x2="70.67" y2="68.49"/>
		<g>
			<path d="M70.67,70c-0.26-0.71-0.71-1.59-1.19-2.14l1.19,0.43l1.19-0.43C71.38,68.41,70.93,69.29,70.67,70z"/>
		</g>
	</g>
</g>
<line class="st16" x1="367.33" y1="178" x2="367.33" y2="49.33"/>
<line class="st16" x1="275.67" y1="176" x2="484.33" y2="176"/>
<path class="st17" d="M282,80c16.1,22.39,64.44,83.17,139.33,90.67c9.26,0.93,19.51,1.1,30.67,0"/>
<path class="st18" d="M280.14,133.97c27.38,3.31,104.83,8.91,161.07-41.12c6.95-6.18,14.02-13.61,20.77-22.56"/>
<rect x="65" y="33.75" class="st19" width="3.75" height="2.25"/>
<text transform="matrix(1 0 0 1 26.5 26.25)"><tspan x="0" y="0" class="st2 st13">Sagital plane perturbation coordionation of ankle muscles</tspan><tspan x="0" y="8.4" class="st2 st13 st20">	</tspan><tspan x="36" y="8.4" class="st2 st13">Hypothesis = &gt; EMG = K COMdot</tspan></text>
<text transform="matrix(1 0 0 1 343.667 189.3335)" class="st2 st14">center of mass velocity</text>
<text transform="matrix(0 -1 1 0 359.5409 115.0186)" class="st2 st14">muscle activity</text>
<text transform="matrix(1 0 0 1 445.4774 69.4775)" class="st2 st14">calf muscles</text>
<text transform="matrix(1 0 0 1 415.4774 166.8108)" class="st2 st14">tibialis anterior</text>
<text transform="matrix(1 0 0 1 268 272.5)" class="st2 st21">Lorem ipsum</text>
</svg>
